<svg width="24" height="24" viewBox="0 0 24 24" fill="none" xmlns="http://www.w3.org/2000/svg">
<path fill-rule="evenodd" clip-rule="evenodd" d="M3.42847 6.74509C3.42847 5.6003 4.3565 4.67226 5.50129 4.67226H18.7674C19.9121 4.67226 20.8402 5.6003 20.8402 6.74509V8.40334C20.8402 8.6323 20.6545 8.81791 20.4256 8.81791H3.84303C3.61408 8.81791 3.42847 8.6323 3.42847 8.40334V6.74509ZM5.50129 5.50139C4.81441 5.50139 4.2576 6.05821 4.2576 6.74509V7.98878H20.011V6.74509C20.011 6.05821 19.4542 5.50139 18.7674 5.50139H5.50129Z" fill="white"/>
<path fill-rule="evenodd" clip-rule="evenodd" d="M3.42847 8.4034C3.42847 8.17445 3.61408 7.98884 3.84303 7.98884H20.4256C20.6545 7.98884 20.8402 8.17445 20.8402 8.4034V18.353C20.8402 19.4977 19.9121 20.4258 18.7674 20.4258H5.50129C4.3565 20.4258 3.42847 19.4977 3.42847 18.353V8.4034ZM4.2576 8.81797V18.353C4.2576 19.0398 4.81441 19.5966 5.50129 19.5966H18.7674C19.4542 19.5966 20.011 19.0398 20.011 18.353V8.81797H4.2576Z" fill="white"/>
<path fill-rule="evenodd" clip-rule="evenodd" d="M16.6946 5.91596V3.42857H17.5237V5.91596H16.6946Z" fill="white"/>
<path fill-rule="evenodd" clip-rule="evenodd" d="M6.74512 5.91596V3.42857H7.57425V5.91596H6.74512Z" fill="white"/>
<path fill-rule="evenodd" clip-rule="evenodd" d="M15.7442 12.0131L11.5986 16.1587C11.4367 16.3205 11.1742 16.3205 11.0123 16.1587L8.5249 13.6713L9.11119 13.085L11.3054 15.2792L15.1579 11.4267L15.7442 12.0131Z" fill="white"/>
</svg>
