<svg width="24" height="24" viewBox="0 0 24 24" fill="none" xmlns="http://www.w3.org/2000/svg">
<path d="M20.7588 1.9502C21.476 1.9502 22.0908 2.53049 22.0908 3.28223V18.1758C22.0906 18.8926 21.511 19.5064 20.7598 19.5068C18.426 19.5726 17.2426 19.6066 16.6426 19.623C16.3428 19.6313 16.1886 19.6347 16.1094 19.6367C16.0852 19.6373 16.0679 19.6374 16.0557 19.6377L14.457 22.835C14.3643 23.002 14.1953 23.0686 14.0439 23.0449C13.8927 23.0211 13.759 22.907 13.7393 22.7197L13.2529 19.5078H2.28223C1.56516 19.5078 0.9504 18.9273 0.950195 18.1758V3.28223C0.950195 2.53049 1.56504 1.9502 2.28223 1.9502H20.7588ZM14.3086 21.3975L15.4873 19.0732L15.4893 19.0684H15.4902C15.5633 18.9588 15.6754 18.8826 15.8252 18.8818L18.3975 18.7881L13.4268 15.5166L14.3086 21.3975ZM1.70801 18.1426C1.70803 18.4454 1.94991 18.7168 2.28223 18.7168H13.1719L12.5889 14.7969V14.7959C12.5166 14.4556 12.8942 14.2328 13.1582 14.4189H13.1592L19.7207 18.75H20.7588C21.0616 18.75 21.3338 18.5079 21.334 18.1758V7.27734H1.70801V18.1426ZM2.28223 2.70801C1.97934 2.70801 1.70801 2.94989 1.70801 3.28223V6.51953H21.334V3.28223C21.334 2.94989 21.0617 2.70801 20.7588 2.70801H2.28223Z" fill="white" stroke="white" stroke-width="0.1"/>
<path d="M14.8413 3.46265C15.4607 3.46266 15.9761 3.97802 15.9761 4.59741C15.9761 5.21679 15.4607 5.73216 14.8413 5.73218C14.2219 5.73218 13.7066 5.2168 13.7065 4.59741C13.7065 3.97801 14.2219 3.46265 14.8413 3.46265ZM14.8413 4.22046C14.6388 4.22046 14.4644 4.39489 14.4644 4.59741C14.4644 4.79993 14.6388 4.97437 14.8413 4.97437C15.0438 4.97435 15.2182 4.79992 15.2183 4.59741C15.2183 4.3949 15.0438 4.22047 14.8413 4.22046Z" fill="white" stroke="white" stroke-width="0.1"/>
<path d="M18.3259 3.46265C18.9453 3.46266 19.4607 3.97802 19.4607 4.59741C19.4607 5.21679 18.9453 5.73216 18.3259 5.73218C17.7065 5.73218 17.1912 5.2168 17.1912 4.59741C17.1912 3.97801 17.7065 3.46265 18.3259 3.46265ZM18.3259 4.22046C18.1234 4.22046 17.949 4.39489 17.949 4.59741C17.949 4.79993 18.1234 4.97437 18.3259 4.97437C18.5284 4.97435 18.7029 4.79992 18.7029 4.59741C18.7029 4.3949 18.5284 4.22047 18.3259 4.22046Z" fill="white" stroke="white" stroke-width="0.1"/>
<path d="M8.85791 4.21863C9.04645 4.21887 9.23584 4.36965 9.23584 4.59753C9.23577 4.70735 9.19941 4.80287 9.13135 4.87097C9.06327 4.93905 8.96771 4.97634 8.85791 4.97644H3.53174C3.42175 4.97644 3.3255 4.93915 3.25732 4.87097C3.18932 4.80288 3.15291 4.7073 3.15283 4.59753C3.15283 4.48754 3.18915 4.39129 3.25732 4.32312C3.3255 4.25495 3.42175 4.21863 3.53174 4.21863H8.85791Z" fill="white" stroke="white" stroke-width="0.1"/>
<path d="M11.0278 4.21863C11.1376 4.21871 11.2332 4.25511 11.3013 4.32312C11.3694 4.39129 11.4058 4.48754 11.4058 4.59753C11.4057 4.70738 11.3694 4.80287 11.3013 4.87097C11.2332 4.93907 11.1377 4.97636 11.0278 4.97644H10.2388C10.1288 4.97644 10.0325 4.93915 9.96436 4.87097C9.89635 4.80288 9.85994 4.7073 9.85986 4.59753C9.85986 4.48754 9.89618 4.39129 9.96436 4.32312C10.0325 4.25495 10.1288 4.21863 10.2388 4.21863H11.0278Z" fill="white" stroke="white" stroke-width="0.1"/>
<path d="M6.39209 8.39417C7.07707 8.39436 7.62549 8.94253 7.62549 9.62756V9.92346C7.62548 10.249 7.49963 10.5417 7.28271 10.775C7.5024 10.9856 7.62549 11.3107 7.62549 11.6334V11.9293C7.62527 12.6142 7.07694 13.1625 6.39209 13.1627H5.40576C5.29577 13.1627 5.19952 13.1254 5.13135 13.0573C5.06337 12.9891 5.02688 12.8936 5.02686 12.7838V8.77307C5.02686 8.66308 5.06317 8.56683 5.13135 8.49866C5.19952 8.43048 5.29577 8.39417 5.40576 8.39417H6.39209ZM5.78467 12.4049H6.39209C6.66006 12.4047 6.86747 12.1973 6.86768 11.9293V11.6334C6.86768 11.3653 6.66019 11.157 6.39209 11.1569H5.78467V12.4049ZM5.78467 10.399H6.39209C6.66018 10.3989 6.86766 10.1916 6.86768 9.92346V9.62756C6.86768 9.35941 6.66019 9.15216 6.39209 9.15198H5.78467V10.399Z" fill="white" stroke="white" stroke-width="0.1"/>
<path d="M9.74512 8.42688C10.3974 8.4269 10.9131 8.94259 10.9131 9.59485V11.8634C10.9129 12.5155 10.3972 13.0304 9.74512 13.0304H9.48242C8.83028 13.0304 8.31467 12.5155 8.31445 11.8634V9.59485C8.31445 8.94257 8.83015 8.42688 9.48242 8.42688H9.74512ZM9.48242 9.18469C9.24702 9.18469 9.07227 9.35945 9.07227 9.59485V11.8634C9.07247 12.0986 9.24716 12.2736 9.48242 12.2736H9.74512C9.98037 12.2735 10.1551 12.0986 10.1553 11.8634V9.59485C10.1553 9.35946 9.9805 9.18471 9.74512 9.18469H9.48242Z" fill="white" stroke="white" stroke-width="0.1"/>
<path d="M12.9343 8.42688C13.5866 8.4269 14.1023 8.94259 14.1023 9.59485V11.8634C14.1021 12.5155 13.5865 13.0304 12.9343 13.0304H12.6716C12.0195 13.0304 11.5039 12.5155 11.5037 11.8634V9.59485C11.5037 8.94257 12.0194 8.42688 12.6716 8.42688H12.9343ZM12.6716 9.18469C12.4362 9.18469 12.2615 9.35945 12.2615 9.59485V11.8634C12.2617 12.0986 12.4364 12.2736 12.6716 12.2736H12.9343C13.1696 12.2735 13.3443 12.0986 13.3445 11.8634V9.59485C13.3445 9.35946 13.1697 9.18471 12.9343 9.18469H12.6716Z" fill="white" stroke="white" stroke-width="0.1"/>
<path d="M17.3413 8.47095C17.4985 8.31795 17.7257 8.36413 17.8687 8.50708C18.026 8.66442 17.9795 8.89426 17.8354 9.03833L17.8325 9.04126L16.2886 10.3274L17.6772 12.3938L17.6792 12.3967C17.7893 12.5807 17.7545 12.81 17.563 12.925L17.5601 12.927C17.4973 12.9584 17.42 12.9982 17.3403 12.9983C17.2304 12.9983 17.1132 12.9609 17.0356 12.845L15.6851 10.8508L15.5493 10.9651V12.6526C15.5492 12.7624 15.5119 12.8579 15.4438 12.926C15.3757 12.9941 15.2803 13.0304 15.1704 13.0305C14.9395 13.0305 14.7915 12.8378 14.7915 12.6194V8.77271C14.7915 8.66289 14.828 8.56741 14.896 8.49927C14.9642 8.43109 15.0604 8.3938 15.1704 8.3938C15.2803 8.39387 15.3757 8.43116 15.4438 8.49927C15.5119 8.56742 15.5493 8.66281 15.5493 8.77271V9.94849L17.3413 8.47095Z" fill="white" stroke="white" stroke-width="0.1"/>
<path d="M8.85791 14.6735C8.96766 14.6736 9.06327 14.7099 9.13135 14.778C9.19952 14.8461 9.23584 14.9424 9.23584 15.0524C9.23577 15.1622 9.19941 15.2577 9.13135 15.3258C9.06327 15.3939 8.96771 15.4312 8.85791 15.4313H3.53174C3.42175 15.4313 3.3255 15.394 3.25732 15.3258C3.18932 15.2577 3.15291 15.1621 3.15283 15.0524C3.15283 14.9424 3.18915 14.8461 3.25732 14.778C3.3255 14.7098 3.42175 14.6735 3.53174 14.6735H8.85791Z" fill="white" stroke="white" stroke-width="0.1"/>
<path d="M9.81104 16.6134C9.92083 16.6134 10.0163 16.6499 10.0845 16.7179C10.1526 16.7861 10.1899 16.8823 10.1899 16.9923C10.1899 17.1022 10.1526 17.1976 10.0845 17.2657C10.0163 17.3338 9.92092 17.3712 9.81104 17.3712H3.53174C3.42175 17.3712 3.3255 17.3339 3.25732 17.2657C3.18932 17.1977 3.15291 17.1021 3.15283 16.9923C3.15283 16.8823 3.18915 16.7861 3.25732 16.7179C3.3255 16.6497 3.42175 16.6134 3.53174 16.6134H9.81104Z" fill="white" stroke="white" stroke-width="0.1"/>
</svg>
