<svg width="24" height="24" viewBox="0 0 24 24" fill="none" xmlns="http://www.w3.org/2000/svg">
<mask id="path-1-outside-1_38_1464" maskUnits="userSpaceOnUse" x="2" y="1" width="20" height="23" fill="black">
<rect fill="white" x="2" y="1" width="20" height="23"/>
<path d="M15.2653 11.1633C15.1964 10.6332 14.6992 10.2333 14.1087 10.2333H13.787V9.24146C13.7864 6.89325 10.2127 6.89495 10.213 9.24146V10.2333H9.89153C9.30161 10.2333 8.80422 10.6329 8.73504 11.1633L8.05627 16.3667C8.01925 16.6481 8.10582 16.925 8.29998 17.146C8.52205 17.3995 8.85461 17.5448 9.21249 17.5448H14.7875C15.1457 17.5448 15.4782 17.3995 15.7003 17.1466C15.8939 16.925 15.9805 16.6481 15.944 16.3672L15.2653 11.1633ZM10.7961 9.24145C10.7958 7.96481 12.208 7.78079 12.8344 8.33736C13.0764 8.55242 13.2039 8.86489 13.2039 9.24145V10.2333H10.7961V9.24145ZM15.2618 16.7615C15.1502 16.8885 14.9777 16.9614 14.7875 16.9614H9.21249C9.02259 16.9614 8.84948 16.8885 8.73815 16.7615C8.68036 16.6954 8.61544 16.5866 8.63424 16.4425L9.313 11.2387C9.34403 11.002 9.59827 10.8166 9.89153 10.8166H10.213V11.3934C10.213 11.5546 10.3434 11.6851 10.5045 11.6851C10.6657 11.6851 10.7961 11.5546 10.7961 11.3934V10.8166H13.2039V11.3934C13.2039 11.5546 13.3343 11.6851 13.4955 11.6851C13.6566 11.6851 13.787 11.5546 13.787 11.3934V10.8166H14.1087C14.402 10.8166 14.656 11.002 14.6867 11.2387L15.3655 16.443C15.3848 16.5872 15.3199 16.696 15.2618 16.7615ZM13.139 21.3496C13.139 21.5109 13.0086 21.6413 12.8474 21.6413H11.1528C10.9917 21.6413 10.8613 21.5109 10.8613 21.3496C10.8613 21.1884 10.9917 21.058 11.1528 21.058H12.8474C13.0086 21.058 13.139 21.1884 13.139 21.3496ZM19.778 2H4.222C3.54808 2 3 2.54832 3 3.22225V4.28298C3 5.40467 3.91195 6.31701 5.03315 6.31701C5.0565 6.31701 5.07916 6.31429 5.10232 6.31351V20.7916C5.10232 22.009 6.09286 23 7.313 23H16.687C17.9071 23 18.8977 22.009 18.8977 20.7916V6.31352C18.9207 6.31431 18.9433 6.31701 18.9665 6.31701C20.0878 6.31701 21 5.40467 21 4.28298V3.22225C21 2.54832 20.4516 2 19.778 2ZM16.9337 4.28298C16.9337 5.0828 16.2828 5.73366 15.4834 5.73366C14.6839 5.73366 14.033 5.0828 14.033 4.28298V2.58335H16.9337L16.9337 4.28298ZM13.4499 4.28298C13.4499 5.0828 12.7996 5.73366 11.9999 5.73366C11.2004 5.73366 10.5498 5.0828 10.5498 4.28298V2.58335H13.4499V4.28298ZM9.96671 4.28298C9.96671 5.0828 9.31613 5.73366 8.51665 5.73366C7.71717 5.73366 7.06659 5.0828 7.06659 4.28298V2.58335H9.96671V4.28298ZM3.58311 4.28298V3.22225C3.58311 2.8699 3.86981 2.58335 4.222 2.58335H6.48349V4.28298C6.48349 5.0828 5.83294 5.73367 5.03315 5.73367C4.23367 5.73366 3.58311 5.0828 3.58311 4.28298ZM16.687 22.4159H7.313C6.41429 22.4159 5.68616 21.6875 5.68616 20.7916V20.283H18.3138V20.7916C18.3138 21.6875 17.5857 22.4159 16.687 22.4159ZM18.3138 19.699H5.68616V6.20744C6.14475 6.05126 6.52912 5.73597 6.77501 5.3271C7.13087 5.91898 7.77729 6.31701 8.51665 6.31701C9.25599 6.31701 9.90239 5.919 10.2583 5.32716C10.6141 5.919 11.2605 6.31701 11.9999 6.31701C12.7391 6.31701 13.3856 5.91894 13.7415 5.32704C14.0974 5.91894 14.744 6.31701 15.4834 6.31701C16.2227 6.31701 16.8692 5.919 17.2252 5.32716C17.471 5.73607 17.8553 6.0514 18.3138 6.20754L18.3138 19.699ZM20.4169 4.28298C20.4169 5.0828 19.766 5.73366 18.9665 5.73366C18.1671 5.73366 17.5168 5.0828 17.5168 4.28298V2.58335H19.778C20.1305 2.58335 20.4169 2.8699 20.4169 3.22225L20.4169 4.28298Z"/>
</mask>
<path d="M15.2653 11.1633C15.1964 10.6332 14.6992 10.2333 14.1087 10.2333H13.787V9.24146C13.7864 6.89325 10.2127 6.89495 10.213 9.24146V10.2333H9.89153C9.30161 10.2333 8.80422 10.6329 8.73504 11.1633L8.05627 16.3667C8.01925 16.6481 8.10582 16.925 8.29998 17.146C8.52205 17.3995 8.85461 17.5448 9.21249 17.5448H14.7875C15.1457 17.5448 15.4782 17.3995 15.7003 17.1466C15.8939 16.925 15.9805 16.6481 15.944 16.3672L15.2653 11.1633ZM10.7961 9.24145C10.7958 7.96481 12.208 7.78079 12.8344 8.33736C13.0764 8.55242 13.2039 8.86489 13.2039 9.24145V10.2333H10.7961V9.24145ZM15.2618 16.7615C15.1502 16.8885 14.9777 16.9614 14.7875 16.9614H9.21249C9.02259 16.9614 8.84948 16.8885 8.73815 16.7615C8.68036 16.6954 8.61544 16.5866 8.63424 16.4425L9.313 11.2387C9.34403 11.002 9.59827 10.8166 9.89153 10.8166H10.213V11.3934C10.213 11.5546 10.3434 11.6851 10.5045 11.6851C10.6657 11.6851 10.7961 11.5546 10.7961 11.3934V10.8166H13.2039V11.3934C13.2039 11.5546 13.3343 11.6851 13.4955 11.6851C13.6566 11.6851 13.787 11.5546 13.787 11.3934V10.8166H14.1087C14.402 10.8166 14.656 11.002 14.6867 11.2387L15.3655 16.443C15.3848 16.5872 15.3199 16.696 15.2618 16.7615ZM13.139 21.3496C13.139 21.5109 13.0086 21.6413 12.8474 21.6413H11.1528C10.9917 21.6413 10.8613 21.5109 10.8613 21.3496C10.8613 21.1884 10.9917 21.058 11.1528 21.058H12.8474C13.0086 21.058 13.139 21.1884 13.139 21.3496ZM19.778 2H4.222C3.54808 2 3 2.54832 3 3.22225V4.28298C3 5.40467 3.91195 6.31701 5.03315 6.31701C5.0565 6.31701 5.07916 6.31429 5.10232 6.31351V20.7916C5.10232 22.009 6.09286 23 7.313 23H16.687C17.9071 23 18.8977 22.009 18.8977 20.7916V6.31352C18.9207 6.31431 18.9433 6.31701 18.9665 6.31701C20.0878 6.31701 21 5.40467 21 4.28298V3.22225C21 2.54832 20.4516 2 19.778 2ZM16.9337 4.28298C16.9337 5.0828 16.2828 5.73366 15.4834 5.73366C14.6839 5.73366 14.033 5.0828 14.033 4.28298V2.58335H16.9337L16.9337 4.28298ZM13.4499 4.28298C13.4499 5.0828 12.7996 5.73366 11.9999 5.73366C11.2004 5.73366 10.5498 5.0828 10.5498 4.28298V2.58335H13.4499V4.28298ZM9.96671 4.28298C9.96671 5.0828 9.31613 5.73366 8.51665 5.73366C7.71717 5.73366 7.06659 5.0828 7.06659 4.28298V2.58335H9.96671V4.28298ZM3.58311 4.28298V3.22225C3.58311 2.8699 3.86981 2.58335 4.222 2.58335H6.48349V4.28298C6.48349 5.0828 5.83294 5.73367 5.03315 5.73367C4.23367 5.73366 3.58311 5.0828 3.58311 4.28298ZM16.687 22.4159H7.313C6.41429 22.4159 5.68616 21.6875 5.68616 20.7916V20.283H18.3138V20.7916C18.3138 21.6875 17.5857 22.4159 16.687 22.4159ZM18.3138 19.699H5.68616V6.20744C6.14475 6.05126 6.52912 5.73597 6.77501 5.3271C7.13087 5.91898 7.77729 6.31701 8.51665 6.31701C9.25599 6.31701 9.90239 5.919 10.2583 5.32716C10.6141 5.919 11.2605 6.31701 11.9999 6.31701C12.7391 6.31701 13.3856 5.91894 13.7415 5.32704C14.0974 5.91894 14.744 6.31701 15.4834 6.31701C16.2227 6.31701 16.8692 5.919 17.2252 5.32716C17.471 5.73607 17.8553 6.0514 18.3138 6.20754L18.3138 19.699ZM20.4169 4.28298C20.4169 5.0828 19.766 5.73366 18.9665 5.73366C18.1671 5.73366 17.5168 5.0828 17.5168 4.28298V2.58335H19.778C20.1305 2.58335 20.4169 2.8699 20.4169 3.22225L20.4169 4.28298Z" fill="white"/>
<path d="M15.2653 11.1633C15.1964 10.6332 14.6992 10.2333 14.1087 10.2333H13.787V9.24146C13.7864 6.89325 10.2127 6.89495 10.213 9.24146V10.2333H9.89153C9.30161 10.2333 8.80422 10.6329 8.73504 11.1633L8.05627 16.3667C8.01925 16.6481 8.10582 16.925 8.29998 17.146C8.52205 17.3995 8.85461 17.5448 9.21249 17.5448H14.7875C15.1457 17.5448 15.4782 17.3995 15.7003 17.1466C15.8939 16.925 15.9805 16.6481 15.944 16.3672L15.2653 11.1633ZM10.7961 9.24145C10.7958 7.96481 12.208 7.78079 12.8344 8.33736C13.0764 8.55242 13.2039 8.86489 13.2039 9.24145V10.2333H10.7961V9.24145ZM15.2618 16.7615C15.1502 16.8885 14.9777 16.9614 14.7875 16.9614H9.21249C9.02259 16.9614 8.84948 16.8885 8.73815 16.7615C8.68036 16.6954 8.61544 16.5866 8.63424 16.4425L9.313 11.2387C9.34403 11.002 9.59827 10.8166 9.89153 10.8166H10.213V11.3934C10.213 11.5546 10.3434 11.6851 10.5045 11.6851C10.6657 11.6851 10.7961 11.5546 10.7961 11.3934V10.8166H13.2039V11.3934C13.2039 11.5546 13.3343 11.6851 13.4955 11.6851C13.6566 11.6851 13.787 11.5546 13.787 11.3934V10.8166H14.1087C14.402 10.8166 14.656 11.002 14.6867 11.2387L15.3655 16.443C15.3848 16.5872 15.3199 16.696 15.2618 16.7615ZM13.139 21.3496C13.139 21.5109 13.0086 21.6413 12.8474 21.6413H11.1528C10.9917 21.6413 10.8613 21.5109 10.8613 21.3496C10.8613 21.1884 10.9917 21.058 11.1528 21.058H12.8474C13.0086 21.058 13.139 21.1884 13.139 21.3496ZM19.778 2H4.222C3.54808 2 3 2.54832 3 3.22225V4.28298C3 5.40467 3.91195 6.31701 5.03315 6.31701C5.0565 6.31701 5.07916 6.31429 5.10232 6.31351V20.7916C5.10232 22.009 6.09286 23 7.313 23H16.687C17.9071 23 18.8977 22.009 18.8977 20.7916V6.31352C18.9207 6.31431 18.9433 6.31701 18.9665 6.31701C20.0878 6.31701 21 5.40467 21 4.28298V3.22225C21 2.54832 20.4516 2 19.778 2ZM16.9337 4.28298C16.9337 5.0828 16.2828 5.73366 15.4834 5.73366C14.6839 5.73366 14.033 5.0828 14.033 4.28298V2.58335H16.9337L16.9337 4.28298ZM13.4499 4.28298C13.4499 5.0828 12.7996 5.73366 11.9999 5.73366C11.2004 5.73366 10.5498 5.0828 10.5498 4.28298V2.58335H13.4499V4.28298ZM9.96671 4.28298C9.96671 5.0828 9.31613 5.73366 8.51665 5.73366C7.71717 5.73366 7.06659 5.0828 7.06659 4.28298V2.58335H9.96671V4.28298ZM3.58311 4.28298V3.22225C3.58311 2.8699 3.86981 2.58335 4.222 2.58335H6.48349V4.28298C6.48349 5.0828 5.83294 5.73367 5.03315 5.73367C4.23367 5.73366 3.58311 5.0828 3.58311 4.28298ZM16.687 22.4159H7.313C6.41429 22.4159 5.68616 21.6875 5.68616 20.7916V20.283H18.3138V20.7916C18.3138 21.6875 17.5857 22.4159 16.687 22.4159ZM18.3138 19.699H5.68616V6.20744C6.14475 6.05126 6.52912 5.73597 6.77501 5.3271C7.13087 5.91898 7.77729 6.31701 8.51665 6.31701C9.25599 6.31701 9.90239 5.919 10.2583 5.32716C10.6141 5.919 11.2605 6.31701 11.9999 6.31701C12.7391 6.31701 13.3856 5.91894 13.7415 5.32704C14.0974 5.91894 14.744 6.31701 15.4834 6.31701C16.2227 6.31701 16.8692 5.919 17.2252 5.32716C17.471 5.73607 17.8553 6.0514 18.3138 6.20754L18.3138 19.699ZM20.4169 4.28298C20.4169 5.0828 19.766 5.73366 18.9665 5.73366C18.1671 5.73366 17.5168 5.0828 17.5168 4.28298V2.58335H19.778C20.1305 2.58335 20.4169 2.8699 20.4169 3.22225L20.4169 4.28298Z" stroke="white" stroke-width="0.2" mask="url(#path-1-outside-1_38_1464)"/>
</svg>
