<svg width="24" height="24" viewBox="0 0 24 24" fill="none" xmlns="http://www.w3.org/2000/svg">
<path d="M12.0039 1.9502C17.5529 1.95032 22.0537 6.47668 22.0537 12C22.0537 17.5406 17.5415 22.0497 12.0039 22.0498C6.46038 22.0498 1.95042 17.5434 1.9502 12.0039C1.9502 6.46039 6.46021 1.9502 12.0039 1.9502ZM12.3662 4.79688C12.3662 4.99701 12.204 5.16003 12.0039 5.16016C11.8037 5.16016 11.6416 4.99709 11.6416 4.79688V2.68555C6.78696 2.8721 2.87395 6.78355 2.68555 11.6377H4.80078C5.00099 11.6377 5.16309 11.7998 5.16309 12C5.16309 12.2002 5.00099 12.3623 4.80078 12.3623H2.68555C2.87071 17.2158 6.78476 21.127 11.6416 21.3135V19.2031C11.6416 19.0029 11.8037 18.8408 12.0039 18.8408C12.204 18.8409 12.3662 19.003 12.3662 19.2031V21.3135C17.219 21.1266 21.1295 17.2156 21.3145 12.3623H19.2061C19.006 12.3621 18.8438 12.2001 18.8438 12C18.8438 11.7999 19.006 11.6379 19.2061 11.6377H21.3145C21.1262 6.78377 17.2168 2.87244 12.3662 2.68555V4.79688Z" fill="white" stroke="white" stroke-width="0.1"/>
<path d="M14.5613 15.1808C14.7135 15.0507 14.9422 15.0687 15.072 15.2209C15.3522 15.5495 15.5753 15.9229 15.7341 16.3303C16.0776 17.2055 15.4252 18.1564 14.4841 18.1564H9.51831C8.57884 18.1563 7.92319 17.2067 8.27222 16.3283C8.42752 15.9298 8.64878 15.5581 8.92847 15.2258C9.05735 15.0724 9.28635 15.0532 9.43921 15.1818C9.59221 15.3109 9.61201 15.5394 9.48315 15.6926C9.25444 15.9643 9.07421 16.2676 8.94702 16.5939V16.5949C8.78759 16.9975 9.0863 17.4317 9.51831 17.4318H14.4841C14.8912 17.4318 15.1786 17.0469 15.0837 16.6701L15.0593 16.5949C14.9296 16.2622 14.7486 15.9584 14.5212 15.6916C14.3914 15.5393 14.409 15.3108 14.5613 15.1808Z" fill="white" stroke="white" stroke-width="0.1"/>
<path d="M12.0027 5.84393C14.0288 5.84393 15.8218 7.13806 16.4753 9.02948C17.3479 8.9669 18.1433 9.6493 18.1433 10.5812C18.1433 11.51 17.3527 12.1934 16.4753 12.132C15.8224 14.0221 14.0295 15.3156 12.0027 15.3156C9.9776 15.3156 8.18434 14.0225 7.52808 12.133C6.66769 12.1976 5.85914 11.52 5.85913 10.5812C5.85913 9.63743 6.67012 8.9663 7.52808 9.0285C8.1849 7.13772 9.97819 5.84395 12.0027 5.84393ZM12.0027 6.56854C10.1927 6.56856 8.59906 7.79011 8.12769 9.53827C8.07405 9.73748 7.86265 9.8534 7.66284 9.78729C7.16269 9.62043 6.58374 9.9983 6.58374 10.5812C6.58381 11.1621 7.15836 11.5413 7.66284 11.3742C7.86207 11.3082 8.0741 11.4243 8.12769 11.6242L8.22925 11.9455C8.79903 13.5183 10.3053 14.59 12.0027 14.59C13.8142 14.59 15.4067 13.3711 15.8748 11.6252C15.9285 11.4239 16.141 11.3096 16.3367 11.3742C16.8624 11.5443 17.4187 11.1489 17.4187 10.5812C17.4187 10.0137 16.8637 9.61834 16.3367 9.78827C16.1417 9.85168 15.9289 9.73987 15.8748 9.53729C15.4064 7.78947 13.8138 6.56854 12.0027 6.56854Z" fill="white" stroke="white" stroke-width="0.1"/>
<path d="M13.5718 9.92529C13.772 9.92531 13.9341 10.0874 13.9341 10.2876V10.4966C13.9339 10.6966 13.7718 10.8589 13.5718 10.8589C13.3717 10.8589 13.2097 10.6966 13.2095 10.4966V10.2876C13.2095 10.0874 13.3716 9.92529 13.5718 9.92529Z" fill="white" stroke="white" stroke-width="0.1"/>
<path d="M10.8167 12.3822C10.9582 12.2406 11.1868 12.2406 11.3284 12.3822C11.7 12.7533 12.3046 12.7536 12.675 12.3832C12.8167 12.2419 13.0462 12.2417 13.1877 12.3832C13.3292 12.5247 13.329 12.7543 13.1877 12.8959C12.532 13.5519 11.4681 13.5454 10.8167 12.8939C10.675 12.7525 10.6751 12.5238 10.8167 12.3822Z" fill="white" stroke="white" stroke-width="0.1"/>
<path d="M10.4321 9.92529C10.6323 9.92531 10.7944 10.0874 10.7944 10.2876V10.4966C10.7942 10.6966 10.6322 10.8589 10.4321 10.8589C10.232 10.8589 10.07 10.6966 10.0698 10.4966V10.2876C10.0698 10.0874 10.2319 9.92529 10.4321 9.92529Z" fill="white" stroke="white" stroke-width="0.1"/>
</svg>
