<svg width="24" height="24" viewBox="0 0 24 24" fill="none" xmlns="http://www.w3.org/2000/svg">
<mask id="path-1-outside-1_38_1090" maskUnits="userSpaceOnUse" x="0.195312" y="2.54527" width="23" height="19" fill="black">
<rect fill="white" x="0.195312" y="2.54527" width="23" height="19"/>
<path fill-rule="evenodd" clip-rule="evenodd" d="M3.5307 9.37194C3.40604 9.241 3.41108 9.03407 3.54169 8.90918C5.37231 7.16083 9.26751 7.15842 11.1024 8.90918C11.316 9.11299 11.17 9.47318 10.8767 9.47318C10.7956 9.47318 10.714 9.44351 10.6506 9.38294C9.07302 7.87574 5.58049 7.87156 3.99399 9.38294C3.86286 9.50774 3.65569 9.50298 3.5307 9.37194ZM9.71622 10.3681C8.62772 9.14251 6.0133 9.145 4.92817 10.3681C4.80826 10.5035 4.82036 10.7105 4.95577 10.8306C5.09113 10.9506 5.29801 10.9378 5.41791 10.8031C6.24394 9.8734 8.40154 9.87393 9.22652 10.8031C9.29127 10.8759 9.38103 10.913 9.47137 10.913C9.75116 10.913 9.90476 10.5805 9.71622 10.3681ZM17.1181 18.3051C17.1181 18.4869 16.9736 18.6325 16.784 18.6325C16.6028 18.6325 16.4567 18.4858 16.4567 18.3051C16.4567 18.1228 16.601 17.9777 16.7908 17.9777C16.9718 17.9777 17.1181 18.1239 17.1181 18.3051ZM15.1753 18.3051C15.1753 18.487 15.0305 18.6325 14.8409 18.6325C14.6602 18.6325 14.5136 18.4858 14.5136 18.3051C14.5136 18.1227 14.6583 17.9777 14.8479 17.9777C15.0286 17.9777 15.1753 18.1239 15.1753 18.3051ZM17.1181 16.6397C17.1181 16.8215 16.9736 16.9671 16.784 16.9671C16.6028 16.9671 16.4567 16.8204 16.4567 16.6397C16.4567 16.4578 16.601 16.3123 16.7908 16.3123C16.9718 16.3123 17.1181 16.459 17.1181 16.6397ZM15.1753 16.6397C15.1753 16.8215 15.0305 16.9671 14.8409 16.9671C14.6602 16.9671 14.5136 16.8204 14.5136 16.6397C14.5136 16.4578 14.6583 16.3123 14.8479 16.3123C15.0286 16.3123 15.1753 16.459 15.1753 16.6397ZM22.1499 19.7999V16.6397C22.1499 15.4087 20.6852 14.4688 18.2138 14.0973C17.9232 14.9388 16.7757 15.21 15.8786 15.21C14.9963 15.21 13.7955 14.9442 13.4443 14.1483C12.4806 14.3124 11.6436 14.563 10.9875 14.883C11.598 15.5928 11.9721 16.4572 12.0663 17.38C12.5226 17.3993 12.9068 17.7014 13.0306 18.1449L13.4224 19.5458C13.4457 19.6313 13.4536 19.7166 13.4472 19.7999L22.1499 19.7999ZM11.9633 19.7999H1.91209C1.86961 19.7999 1.84191 19.7632 1.85295 19.7221L2.24473 18.3212C2.29369 18.1462 2.44258 18.0327 2.62441 18.0327H12.0201C12.2019 18.0327 12.3508 18.1462 12.3998 18.3212L12.7913 19.7221C12.8025 19.7628 12.7747 19.7999 12.7325 19.7999H11.9633ZM7.32246 13.8698C9.43868 13.8698 11.1705 15.3855 11.4074 17.3778H3.23689C3.47415 15.3855 5.20594 13.8698 7.32246 13.8698ZM6.81726 12.5099C6.81726 12.3414 6.95377 12.2043 7.12234 12.2043H7.52228C7.69057 12.2043 7.82737 12.3414 7.82737 12.5099V13.2407C7.4918 13.2064 7.15258 13.2064 6.81726 13.2407V12.5099ZM12.9222 8.08977C14.6401 7.34399 16.9916 7.34409 18.7092 8.08977C18.7821 8.38708 18.8189 8.69534 18.8189 9.00748C18.8189 10.8929 17.4716 12.4265 15.8158 12.4265C14.16 12.4265 12.8127 10.8929 12.8127 9.00748C12.8127 8.69538 12.8499 8.38708 12.9222 8.08977ZM12.674 4.84881V7.483C14.5516 6.67314 17.0798 6.67329 18.9577 7.483V4.84881C18.9577 4.49082 18.667 4.20014 18.3095 4.20014H13.3227C12.965 4.20014 12.674 4.49082 12.674 4.84881ZM14.0092 12.5487C15.1278 13.259 16.5038 13.2596 17.6222 12.5487V13.7187C17.6222 13.9549 17.4669 14.1518 17.1609 14.3038C16.1148 14.8233 14.0092 14.4857 14.0092 13.7187V12.5487ZM21.3112 14.405C20.5493 13.9571 19.5046 13.627 18.2772 13.4441V12.0188C19.0123 11.2732 19.4736 10.1993 19.4736 9.00748C19.4736 8.77046 19.455 8.5355 19.4193 8.30414C19.538 8.2487 19.6126 8.13652 19.6126 8.00553V4.84876C19.6126 4.12986 19.0281 3.54527 18.3095 3.54527H13.3227C12.6042 3.54527 12.0191 4.12986 12.0191 4.84876V8.00553C12.0191 8.13316 12.0967 8.25542 12.213 8.30414C12.1767 8.53545 12.1578 8.77041 12.1578 9.00748C12.1578 10.1992 12.6197 11.2732 13.3546 12.0188V13.4992C12.2251 13.6899 11.2496 13.9968 10.5026 14.3953C9.91969 13.8882 9.2282 13.5332 8.48233 13.3529V12.5099C8.48233 11.9804 8.05172 11.5495 7.52228 11.5495H7.12234C6.59266 11.5495 6.1623 11.9804 6.1623 12.5099V13.3529C4.24801 13.8156 2.7795 15.4111 2.5777 17.3801C2.12204 17.3993 1.73785 17.7014 1.61372 18.145L1.22223 19.5458C1.09465 20.0037 1.43646 20.4547 1.91209 20.4547H22.4773C22.6579 20.4547 22.8046 20.308 22.8046 20.1273V16.6397C22.8046 15.7518 22.2881 14.979 21.3112 14.405Z"/>
</mask>
<path fill-rule="evenodd" clip-rule="evenodd" d="M3.5307 9.37194C3.40604 9.241 3.41108 9.03407 3.54169 8.90918C5.37231 7.16083 9.26751 7.15842 11.1024 8.90918C11.316 9.11299 11.17 9.47318 10.8767 9.47318C10.7956 9.47318 10.714 9.44351 10.6506 9.38294C9.07302 7.87574 5.58049 7.87156 3.99399 9.38294C3.86286 9.50774 3.65569 9.50298 3.5307 9.37194ZM9.71622 10.3681C8.62772 9.14251 6.0133 9.145 4.92817 10.3681C4.80826 10.5035 4.82036 10.7105 4.95577 10.8306C5.09113 10.9506 5.29801 10.9378 5.41791 10.8031C6.24394 9.8734 8.40154 9.87393 9.22652 10.8031C9.29127 10.8759 9.38103 10.913 9.47137 10.913C9.75116 10.913 9.90476 10.5805 9.71622 10.3681ZM17.1181 18.3051C17.1181 18.4869 16.9736 18.6325 16.784 18.6325C16.6028 18.6325 16.4567 18.4858 16.4567 18.3051C16.4567 18.1228 16.601 17.9777 16.7908 17.9777C16.9718 17.9777 17.1181 18.1239 17.1181 18.3051ZM15.1753 18.3051C15.1753 18.487 15.0305 18.6325 14.8409 18.6325C14.6602 18.6325 14.5136 18.4858 14.5136 18.3051C14.5136 18.1227 14.6583 17.9777 14.8479 17.9777C15.0286 17.9777 15.1753 18.1239 15.1753 18.3051ZM17.1181 16.6397C17.1181 16.8215 16.9736 16.9671 16.784 16.9671C16.6028 16.9671 16.4567 16.8204 16.4567 16.6397C16.4567 16.4578 16.601 16.3123 16.7908 16.3123C16.9718 16.3123 17.1181 16.459 17.1181 16.6397ZM15.1753 16.6397C15.1753 16.8215 15.0305 16.9671 14.8409 16.9671C14.6602 16.9671 14.5136 16.8204 14.5136 16.6397C14.5136 16.4578 14.6583 16.3123 14.8479 16.3123C15.0286 16.3123 15.1753 16.459 15.1753 16.6397ZM22.1499 19.7999V16.6397C22.1499 15.4087 20.6852 14.4688 18.2138 14.0973C17.9232 14.9388 16.7757 15.21 15.8786 15.21C14.9963 15.21 13.7955 14.9442 13.4443 14.1483C12.4806 14.3124 11.6436 14.563 10.9875 14.883C11.598 15.5928 11.9721 16.4572 12.0663 17.38C12.5226 17.3993 12.9068 17.7014 13.0306 18.1449L13.4224 19.5458C13.4457 19.6313 13.4536 19.7166 13.4472 19.7999L22.1499 19.7999ZM11.9633 19.7999H1.91209C1.86961 19.7999 1.84191 19.7632 1.85295 19.7221L2.24473 18.3212C2.29369 18.1462 2.44258 18.0327 2.62441 18.0327H12.0201C12.2019 18.0327 12.3508 18.1462 12.3998 18.3212L12.7913 19.7221C12.8025 19.7628 12.7747 19.7999 12.7325 19.7999H11.9633ZM7.32246 13.8698C9.43868 13.8698 11.1705 15.3855 11.4074 17.3778H3.23689C3.47415 15.3855 5.20594 13.8698 7.32246 13.8698ZM6.81726 12.5099C6.81726 12.3414 6.95377 12.2043 7.12234 12.2043H7.52228C7.69057 12.2043 7.82737 12.3414 7.82737 12.5099V13.2407C7.4918 13.2064 7.15258 13.2064 6.81726 13.2407V12.5099ZM12.9222 8.08977C14.6401 7.34399 16.9916 7.34409 18.7092 8.08977C18.7821 8.38708 18.8189 8.69534 18.8189 9.00748C18.8189 10.8929 17.4716 12.4265 15.8158 12.4265C14.16 12.4265 12.8127 10.8929 12.8127 9.00748C12.8127 8.69538 12.8499 8.38708 12.9222 8.08977ZM12.674 4.84881V7.483C14.5516 6.67314 17.0798 6.67329 18.9577 7.483V4.84881C18.9577 4.49082 18.667 4.20014 18.3095 4.20014H13.3227C12.965 4.20014 12.674 4.49082 12.674 4.84881ZM14.0092 12.5487C15.1278 13.259 16.5038 13.2596 17.6222 12.5487V13.7187C17.6222 13.9549 17.4669 14.1518 17.1609 14.3038C16.1148 14.8233 14.0092 14.4857 14.0092 13.7187V12.5487ZM21.3112 14.405C20.5493 13.9571 19.5046 13.627 18.2772 13.4441V12.0188C19.0123 11.2732 19.4736 10.1993 19.4736 9.00748C19.4736 8.77046 19.455 8.5355 19.4193 8.30414C19.538 8.2487 19.6126 8.13652 19.6126 8.00553V4.84876C19.6126 4.12986 19.0281 3.54527 18.3095 3.54527H13.3227C12.6042 3.54527 12.0191 4.12986 12.0191 4.84876V8.00553C12.0191 8.13316 12.0967 8.25542 12.213 8.30414C12.1767 8.53545 12.1578 8.77041 12.1578 9.00748C12.1578 10.1992 12.6197 11.2732 13.3546 12.0188V13.4992C12.2251 13.6899 11.2496 13.9968 10.5026 14.3953C9.91969 13.8882 9.2282 13.5332 8.48233 13.3529V12.5099C8.48233 11.9804 8.05172 11.5495 7.52228 11.5495H7.12234C6.59266 11.5495 6.1623 11.9804 6.1623 12.5099V13.3529C4.24801 13.8156 2.7795 15.4111 2.5777 17.3801C2.12204 17.3993 1.73785 17.7014 1.61372 18.145L1.22223 19.5458C1.09465 20.0037 1.43646 20.4547 1.91209 20.4547H22.4773C22.6579 20.4547 22.8046 20.308 22.8046 20.1273V16.6397C22.8046 15.7518 22.2881 14.979 21.3112 14.405Z" fill="white"/>
<path fill-rule="evenodd" clip-rule="evenodd" d="M3.5307 9.37194C3.40604 9.241 3.41108 9.03407 3.54169 8.90918C5.37231 7.16083 9.26751 7.15842 11.1024 8.90918C11.316 9.11299 11.17 9.47318 10.8767 9.47318C10.7956 9.47318 10.714 9.44351 10.6506 9.38294C9.07302 7.87574 5.58049 7.87156 3.99399 9.38294C3.86286 9.50774 3.65569 9.50298 3.5307 9.37194ZM9.71622 10.3681C8.62772 9.14251 6.0133 9.145 4.92817 10.3681C4.80826 10.5035 4.82036 10.7105 4.95577 10.8306C5.09113 10.9506 5.29801 10.9378 5.41791 10.8031C6.24394 9.8734 8.40154 9.87393 9.22652 10.8031C9.29127 10.8759 9.38103 10.913 9.47137 10.913C9.75116 10.913 9.90476 10.5805 9.71622 10.3681ZM17.1181 18.3051C17.1181 18.4869 16.9736 18.6325 16.784 18.6325C16.6028 18.6325 16.4567 18.4858 16.4567 18.3051C16.4567 18.1228 16.601 17.9777 16.7908 17.9777C16.9718 17.9777 17.1181 18.1239 17.1181 18.3051ZM15.1753 18.3051C15.1753 18.487 15.0305 18.6325 14.8409 18.6325C14.6602 18.6325 14.5136 18.4858 14.5136 18.3051C14.5136 18.1227 14.6583 17.9777 14.8479 17.9777C15.0286 17.9777 15.1753 18.1239 15.1753 18.3051ZM17.1181 16.6397C17.1181 16.8215 16.9736 16.9671 16.784 16.9671C16.6028 16.9671 16.4567 16.8204 16.4567 16.6397C16.4567 16.4578 16.601 16.3123 16.7908 16.3123C16.9718 16.3123 17.1181 16.459 17.1181 16.6397ZM15.1753 16.6397C15.1753 16.8215 15.0305 16.9671 14.8409 16.9671C14.6602 16.9671 14.5136 16.8204 14.5136 16.6397C14.5136 16.4578 14.6583 16.3123 14.8479 16.3123C15.0286 16.3123 15.1753 16.459 15.1753 16.6397ZM22.1499 19.7999V16.6397C22.1499 15.4087 20.6852 14.4688 18.2138 14.0973C17.9232 14.9388 16.7757 15.21 15.8786 15.21C14.9963 15.21 13.7955 14.9442 13.4443 14.1483C12.4806 14.3124 11.6436 14.563 10.9875 14.883C11.598 15.5928 11.9721 16.4572 12.0663 17.38C12.5226 17.3993 12.9068 17.7014 13.0306 18.1449L13.4224 19.5458C13.4457 19.6313 13.4536 19.7166 13.4472 19.7999L22.1499 19.7999ZM11.9633 19.7999H1.91209C1.86961 19.7999 1.84191 19.7632 1.85295 19.7221L2.24473 18.3212C2.29369 18.1462 2.44258 18.0327 2.62441 18.0327H12.0201C12.2019 18.0327 12.3508 18.1462 12.3998 18.3212L12.7913 19.7221C12.8025 19.7628 12.7747 19.7999 12.7325 19.7999H11.9633ZM7.32246 13.8698C9.43868 13.8698 11.1705 15.3855 11.4074 17.3778H3.23689C3.47415 15.3855 5.20594 13.8698 7.32246 13.8698ZM6.81726 12.5099C6.81726 12.3414 6.95377 12.2043 7.12234 12.2043H7.52228C7.69057 12.2043 7.82737 12.3414 7.82737 12.5099V13.2407C7.4918 13.2064 7.15258 13.2064 6.81726 13.2407V12.5099ZM12.9222 8.08977C14.6401 7.34399 16.9916 7.34409 18.7092 8.08977C18.7821 8.38708 18.8189 8.69534 18.8189 9.00748C18.8189 10.8929 17.4716 12.4265 15.8158 12.4265C14.16 12.4265 12.8127 10.8929 12.8127 9.00748C12.8127 8.69538 12.8499 8.38708 12.9222 8.08977ZM12.674 4.84881V7.483C14.5516 6.67314 17.0798 6.67329 18.9577 7.483V4.84881C18.9577 4.49082 18.667 4.20014 18.3095 4.20014H13.3227C12.965 4.20014 12.674 4.49082 12.674 4.84881ZM14.0092 12.5487C15.1278 13.259 16.5038 13.2596 17.6222 12.5487V13.7187C17.6222 13.9549 17.4669 14.1518 17.1609 14.3038C16.1148 14.8233 14.0092 14.4857 14.0092 13.7187V12.5487ZM21.3112 14.405C20.5493 13.9571 19.5046 13.627 18.2772 13.4441V12.0188C19.0123 11.2732 19.4736 10.1993 19.4736 9.00748C19.4736 8.77046 19.455 8.5355 19.4193 8.30414C19.538 8.2487 19.6126 8.13652 19.6126 8.00553V4.84876C19.6126 4.12986 19.0281 3.54527 18.3095 3.54527H13.3227C12.6042 3.54527 12.0191 4.12986 12.0191 4.84876V8.00553C12.0191 8.13316 12.0967 8.25542 12.213 8.30414C12.1767 8.53545 12.1578 8.77041 12.1578 9.00748C12.1578 10.1992 12.6197 11.2732 13.3546 12.0188V13.4992C12.2251 13.6899 11.2496 13.9968 10.5026 14.3953C9.91969 13.8882 9.2282 13.5332 8.48233 13.3529V12.5099C8.48233 11.9804 8.05172 11.5495 7.52228 11.5495H7.12234C6.59266 11.5495 6.1623 11.9804 6.1623 12.5099V13.3529C4.24801 13.8156 2.7795 15.4111 2.5777 17.3801C2.12204 17.3993 1.73785 17.7014 1.61372 18.145L1.22223 19.5458C1.09465 20.0037 1.43646 20.4547 1.91209 20.4547H22.4773C22.6579 20.4547 22.8046 20.308 22.8046 20.1273V16.6397C22.8046 15.7518 22.2881 14.979 21.3112 14.405Z" stroke="white" stroke-width="0.2" mask="url(#path-1-outside-1_38_1090)"/>
</svg>
