<svg width="24" height="24" viewBox="0 0 24 24" fill="none" xmlns="http://www.w3.org/2000/svg">
<path d="M9.65625 1.9502C10.4377 1.9502 11.0732 2.58571 11.0732 3.36719V9.65625C11.0732 10.4377 10.4377 11.0732 9.65625 11.0732H3.36719C2.58571 11.0732 1.9502 10.4377 1.9502 9.65625V3.36719C1.9502 2.58571 2.58571 1.9502 3.36719 1.9502H9.65625ZM3.36719 2.83105C3.07172 2.83105 2.83105 3.07172 2.83105 3.36719V9.65625C2.83105 9.95172 3.07172 10.1924 3.36719 10.1924H9.65625C9.95172 10.1924 10.1924 9.95172 10.1924 9.65625V3.36719C10.1924 3.07172 9.95172 2.83105 9.65625 2.83105H3.36719Z" fill="white" stroke="white" stroke-width="0.1"/>
<path d="M20.6328 1.9502C21.4143 1.9502 22.0498 2.58571 22.0498 3.36719V9.65625C22.0498 10.4377 21.4143 11.0732 20.6328 11.0732H14.3438C13.5623 11.0732 12.9268 10.4377 12.9268 9.65625V3.36719C12.9268 2.58571 13.5623 1.9502 14.3438 1.9502H20.6328ZM14.3438 2.83105C14.0483 2.83105 13.8076 3.07172 13.8076 3.36719V9.65625C13.8076 9.95172 14.0483 10.1924 14.3438 10.1924H20.6328C20.9283 10.1924 21.1689 9.95172 21.1689 9.65625V3.36719C21.1689 3.07172 20.9283 2.83105 20.6328 2.83105H14.3438Z" fill="white" stroke="white" stroke-width="0.1"/>
<path d="M9.65625 12.9268C10.4377 12.9268 11.0732 13.5623 11.0732 14.3438V20.6328C11.0732 21.4143 10.4377 22.0498 9.65625 22.0498H3.36719C2.58571 22.0498 1.9502 21.4143 1.9502 20.6328V14.3438C1.9502 13.5623 2.58571 12.9268 3.36719 12.9268H9.65625ZM3.36719 13.8076C3.07172 13.8076 2.83105 14.0483 2.83105 14.3438V20.6328C2.83105 20.9283 3.07172 21.1689 3.36719 21.1689H9.65625C9.95172 21.1689 10.1924 20.9283 10.1924 20.6328V14.3438C10.1924 14.0483 9.95172 13.8076 9.65625 13.8076H3.36719Z" fill="white" stroke="white" stroke-width="0.1"/>
<path d="M17.4883 12.9268C20.0037 12.9268 22.0498 14.9729 22.0498 17.4883C22.0498 20.0037 20.0037 22.0498 17.4883 22.0498C14.9729 22.0498 12.9268 20.0037 12.9268 17.4883C12.9268 14.9729 14.9729 12.9268 17.4883 12.9268ZM17.4883 13.8076C15.4589 13.8076 13.8076 15.4589 13.8076 17.4883C13.8076 19.5177 15.4589 21.1689 17.4883 21.1689C19.5177 21.1689 21.1689 19.5177 21.1689 17.4883C21.1689 15.4589 19.5177 13.8076 17.4883 13.8076Z" fill="white" stroke="white" stroke-width="0.1"/>
</svg>
