<svg width="24" height="24" viewBox="0 0 24 24" fill="none" xmlns="http://www.w3.org/2000/svg">
<path d="M15.7554 7.52832C15.9239 7.55545 16.08 7.63512 16.2007 7.75586C16.3214 7.8766 16.4011 8.03259 16.4282 8.20117C16.4554 8.36972 16.4287 8.54277 16.3521 8.69531L16.3511 8.69629L13.9575 13.2842C13.8231 13.541 13.6225 13.7563 13.3774 13.9082L13.269 13.9697L8.7417 16.3076H8.74072C8.58846 16.3833 8.4163 16.4093 8.24854 16.3818C8.08073 16.3543 7.92539 16.2746 7.80518 16.1543C7.68524 16.0341 7.60608 15.8795 7.57861 15.7119C7.55118 15.544 7.57717 15.3711 7.65283 15.2188L9.98975 10.6885C10.1421 10.394 10.3816 10.1538 10.6753 10L15.2612 7.60547L15.3794 7.55664C15.5002 7.51806 15.629 7.50799 15.7554 7.52832ZM11.2104 10.6387L11.4585 10.8877C11.5349 10.9641 11.5776 11.0677 11.5776 11.1758C11.5776 11.2838 11.5348 11.3875 11.4585 11.4639C11.3821 11.5402 11.2783 11.583 11.1704 11.583C11.0627 11.5829 10.9596 11.54 10.8833 11.4639L10.6343 11.2148L8.38428 15.5742L12.7427 13.3242L12.4946 13.0762C12.4569 13.0384 12.4262 12.9937 12.4058 12.9443C12.3853 12.8949 12.3755 12.8416 12.3755 12.7881C12.3755 12.7346 12.3853 12.6813 12.4058 12.6318C12.4262 12.5825 12.4569 12.5378 12.4946 12.5C12.5324 12.4623 12.5772 12.4326 12.6265 12.4121C12.6759 12.3916 12.7292 12.3809 12.7827 12.3809C12.8361 12.3809 12.8887 12.3917 12.938 12.4121C12.9873 12.4325 13.0321 12.4623 13.0698 12.5L13.3179 12.748L15.6196 8.33691L11.2104 10.6387Z" fill="white" stroke="white" stroke-width="0.1"/>
<path d="M6.64355 3.49023C10.4675 0.96402 15.9671 1.6296 19.1045 4.87402H19.1035C25.28 11.0643 21.1213 21.6672 12.4209 22.04L12.0029 22.0498C10.2002 22.0513 8.43032 21.567 6.87891 20.6484C5.32753 19.7298 4.05171 18.4108 3.18555 16.8291C2.31943 15.2474 1.89476 13.4616 1.95605 11.6592C2.01676 9.87537 2.55108 8.14001 3.50391 6.63184C3.3191 6.5479 3.14516 6.44255 2.98828 6.31445L2.82324 6.16602C2.57631 5.91962 2.38616 5.6211 2.26758 5.29297C2.14915 4.965 2.10439 4.61479 2.13672 4.26758C2.16906 3.92017 2.27797 3.58378 2.45508 3.2832C2.63217 2.98275 2.87403 2.72479 3.16211 2.52832C3.45012 2.332 3.77793 2.20156 4.12207 2.14648C4.46646 2.09139 4.81923 2.11312 5.1543 2.20996C5.48928 2.30682 5.79864 2.47674 6.06055 2.70703C6.30787 2.9245 6.50509 3.19184 6.64355 3.49023ZM17.3047 17.8574C14.4524 20.5565 9.57675 20.5651 6.71582 17.873L5.77637 18.8125C9.15098 22.0223 14.8765 22.0156 18.2441 18.7979L17.3047 17.8574ZM5.18555 5.76367C1.97769 9.13962 1.98455 14.8672 5.2002 18.2363L6.13965 17.2969C3.44247 14.4434 3.43467 9.56612 6.125 6.7041L5.18555 5.76367ZM17.8652 6.6875C20.5634 9.54093 20.5707 14.4189 17.8799 17.2812L18.8193 18.2217C22.0276 14.8454 22.0213 9.11708 18.8047 5.74805L17.8652 6.6875ZM18.2285 5.17188C14.8539 1.9631 9.12808 1.96934 5.76074 5.18652L6.7002 6.12695C9.55236 3.42828 14.4282 3.42078 17.2891 6.1123L18.2285 5.17188ZM4.33691 2.93848C4.10352 2.96297 3.87818 3.03942 3.67871 3.16309C3.47916 3.28686 3.31034 3.45497 3.18457 3.65332C3.05889 3.85155 2.97908 4.0754 2.95215 4.30859C2.92525 4.54195 2.95196 4.77919 3.0293 5.00098C3.10663 5.22249 3.2325 5.42403 3.39844 5.58984C3.56046 5.75141 3.75736 5.87274 3.97266 5.94922C4.25921 5.56988 4.57185 5.21097 4.9082 4.875C5.23784 4.54599 5.58927 4.23955 5.96094 3.95898C5.88531 3.74959 5.76807 3.55783 5.6123 3.39844C5.44824 3.23063 5.24804 3.10212 5.02734 3.02246C4.80656 2.94284 4.57032 2.91403 4.33691 2.93848ZM12.4102 19.0684C14.1445 18.9669 15.7824 18.2338 17.0117 17.0039C18.241 15.7741 18.9738 14.1355 19.0752 12.4004H17.7178C17.6111 12.3984 17.5093 12.3545 17.4346 12.2783C17.3599 12.2022 17.3184 12.0998 17.3184 11.9932C17.3184 11.8864 17.3599 11.7832 17.4346 11.707C17.5093 11.631 17.6112 11.587 17.7178 11.585H19.0752C18.9737 9.85016 18.2407 8.21217 17.0117 6.98242C15.7824 5.75257 14.1445 5.01844 12.4102 4.91699V6.27539C12.4081 6.38209 12.3642 6.48385 12.2881 6.55859C12.212 6.63329 12.1095 6.67476 12.0029 6.6748C11.8963 6.6748 11.7939 6.63322 11.7178 6.55859C11.6416 6.48385 11.5977 6.38209 11.5957 6.27539V4.91699C9.86126 5.01836 8.22354 5.75248 6.99414 6.98242C5.76503 8.2122 5.03114 9.85006 4.92969 11.585H6.28711C6.39505 11.585 6.49887 11.6287 6.5752 11.7051C6.65136 11.7815 6.69434 11.8853 6.69434 11.9932C6.69424 12.1011 6.65148 12.2049 6.5752 12.2812C6.49888 12.3576 6.39504 12.4003 6.28711 12.4004H4.92969C5.03108 14.1355 5.76482 15.774 6.99414 17.0039C8.22352 18.2338 9.86132 18.967 11.5957 19.0684V17.71C11.5978 17.6034 11.6417 17.5014 11.7178 17.4268C11.7939 17.3522 11.8964 17.3105 12.0029 17.3105C12.1095 17.3106 12.212 17.3522 12.2881 17.4268C12.3642 17.5014 12.4081 17.6034 12.4102 17.71V19.0684Z" fill="white" stroke="white" stroke-width="0.1"/>
</svg>
