<svg width="24" height="24" viewBox="0 0 24 24" fill="none" xmlns="http://www.w3.org/2000/svg">
<path d="M7.20898 3.31836C7.66226 3.00431 8.21166 2.88556 8.75391 2.98438L21.3535 5.27344C21.8963 5.37195 22.3687 5.67649 22.6826 6.12988C22.9964 6.58322 23.1153 7.13233 23.0166 7.6748L21.502 16.0068C21.4113 16.5053 21.1445 16.925 20.7812 17.2236C20.5468 18.0672 19.7926 18.6924 18.8848 18.7314C18.8699 19.8575 17.9508 20.7686 16.8213 20.7686H4.01465C3.39111 20.7685 2.80597 20.4847 2.40918 19.9902C2.1095 19.6164 1.95025 19.1712 1.9502 18.7041V10.2354C1.9502 9.12694 2.82812 8.22233 3.9248 8.1748C3.94037 7.04938 4.86024 6.13867 5.98926 6.13867H6.08203L6.35254 4.64648C6.45122 4.10395 6.75557 3.63223 7.20898 3.31836ZM8.51465 15.0059C8.04625 14.6791 7.40927 14.7449 7.01562 15.1445L6.94043 15.2285L3.21387 19.7295C3.44231 19.9112 3.72182 20.0126 4.01465 20.0127H16.8213C17.5428 20.0127 18.1307 19.4255 18.1309 18.7041V14.9375L13.4648 17.2666C12.8886 17.5537 12.2083 17.525 11.6611 17.1963L11.5537 17.126L8.51465 15.0059ZM4.01465 8.92578C3.29323 8.92595 2.70605 9.51387 2.70605 10.2354V18.7041C2.70608 18.834 2.72685 18.9615 2.76562 19.084L6.35547 14.749C6.98527 13.9719 8.12498 13.8118 8.94824 14.3857L11.9863 16.5059L12.1182 16.585C12.4339 16.7465 12.8091 16.7482 13.1279 16.5889L18.1309 14.0918V10.2354C18.1309 9.51378 17.5428 8.92578 16.8213 8.92578H4.01465ZM5.98926 6.89453C5.279 6.89453 4.69966 7.46396 4.68164 8.16992H16.8213C17.96 8.16992 18.8867 9.09666 18.8867 10.2354V17.9727C19.5656 17.9253 20.1044 17.3631 20.1045 16.6729V8.2041C20.1045 7.48263 19.5173 6.89472 18.7959 6.89453H5.98926ZM8.61816 3.72754C8.27477 3.66525 7.92755 3.74035 7.63965 3.93945C7.35228 4.13854 7.15926 4.43745 7.09668 4.78125L6.84961 6.13867H18.7959C19.9343 6.13886 20.8604 7.06552 20.8604 8.2041V15.3096L22.2725 7.53906C22.327 7.2381 22.2758 6.93458 22.1289 6.6709L22.0605 6.56055C21.8616 6.273 21.5628 6.08013 21.2188 6.01758L8.61816 3.72754Z" fill="white" stroke="white" stroke-width="0.1"/>
<path d="M12.9316 10.6259C13.9311 10.626 14.7441 11.439 14.7441 12.4384C14.7441 13.4378 13.931 14.2508 12.9316 14.2509C11.9322 14.2509 11.1192 13.4378 11.1191 12.4384C11.1191 11.4389 11.9321 10.6259 12.9316 10.6259ZM12.9316 11.3818C12.3493 11.3818 11.875 11.8561 11.875 12.4384C11.8751 13.0207 12.3494 13.4941 12.9316 13.4941C13.5139 13.494 13.9872 13.0206 13.9873 12.4384C13.9873 11.8561 13.5139 11.3819 12.9316 11.3818Z" fill="white" stroke="white" stroke-width="0.1"/>
</svg>
