<svg width="24" height="24" viewBox="0 0 24 24" fill="none" xmlns="http://www.w3.org/2000/svg">
<mask id="path-1-outside-1_38_1020" maskUnits="userSpaceOnUse" x="0.705322" y="2.42857" width="23" height="19" fill="black">
<rect fill="white" x="0.705322" y="2.42857" width="23" height="19"/>
<path d="M22.2449 15.0462C22.121 14.952 21.9749 14.8912 21.8207 14.8698C21.6665 14.8483 21.5094 14.8669 21.3645 14.9237C21.412 14.7352 21.3992 14.5364 21.3277 14.3556C21.2562 14.1747 21.1297 14.0209 20.9661 13.9158C20.0508 13.381 17.9284 14.9167 16.57 15.1876C18.7352 13.4258 21.5129 10.6062 21.5129 7.63631C21.5046 6.75285 21.221 5.89396 20.7016 5.17924C20.1822 4.46452 19.4529 3.92954 18.6152 3.64877C17.7775 3.368 16.8731 3.35543 16.0279 3.61279C15.1828 3.87016 14.4389 4.38467 13.8998 5.08467C13.3608 4.38467 12.6169 3.87016 11.7717 3.61279C10.9265 3.35543 10.0221 3.368 9.1844 3.64877C8.34669 3.92954 7.61739 4.46452 7.09801 5.17924C6.57864 5.89396 6.29505 6.75285 6.28673 7.63631C6.28673 9.74474 7.69401 11.7884 9.29053 13.4178C6.8764 13.157 4.44697 13.0655 2.02006 13.1439C1.93718 13.1442 1.85773 13.177 1.79885 13.2353C1.73997 13.2937 1.70638 13.3728 1.70534 13.4557V19.1615C1.70494 19.2036 1.71293 19.2453 1.72886 19.2843C1.74478 19.3233 1.76832 19.3587 1.79809 19.3884C1.82785 19.4182 1.86325 19.4418 1.90222 19.4577C1.94119 19.4736 1.98294 19.4816 2.02504 19.4812H4.63842C8.61627 20.8955 17.056 21.1853 21.8684 17.0232C22.0679 16.8892 22.2388 16.7171 22.3715 16.5168C22.5041 16.3164 22.5958 16.0918 22.6413 15.8559C22.6436 15.6993 22.6088 15.5443 22.54 15.4036C22.4711 15.263 22.37 15.1405 22.2449 15.0462ZM19.0529 14.9237C19.7829 14.6568 20.6693 14.0602 20.757 14.7076C20.7115 14.9335 20.5886 15.1364 20.4094 15.2813C19.1208 15.8518 17.7886 16.318 16.4256 16.6756C16.4984 16.418 16.5113 16.1472 16.4634 15.8838C17.3451 15.6163 18.2099 15.2957 19.0529 14.9237ZM6.92613 7.63631C6.92679 6.84667 7.18688 6.07913 7.66639 5.45176C8.1459 4.82439 8.81827 4.37195 9.58004 4.16405C10.3418 3.95615 11.1508 4.0043 11.8825 4.30111C12.6143 4.59791 13.2282 5.12691 13.6299 5.80674C13.6573 5.855 13.697 5.89513 13.7449 5.92306C13.7928 5.95098 13.8473 5.96569 13.9028 5.96569C13.9583 5.96569 14.0128 5.95098 14.0607 5.92306C14.1086 5.89513 14.1483 5.855 14.1757 5.80674C14.5776 5.12696 15.1917 4.59796 15.9235 4.30102C16.6552 4.00408 17.4643 3.95562 18.2262 4.16308C18.9882 4.37055 19.661 4.82246 20.1412 5.44939C20.6215 6.07633 20.8826 6.8436 20.8844 7.63332C20.8844 10.4389 18.0131 13.2256 15.9047 14.8928C15.6355 14.7141 15.3194 14.6192 14.9964 14.6199C12.0812 14.6757 11.5882 14.3749 11.0125 14.0453C8.9539 12.5484 6.96398 9.96883 6.92613 7.63631ZM2.34076 13.7744H4.3745V18.8398H2.34076V13.7744ZM21.487 16.5053C15.0053 21.6424 6.46003 19.3687 5.00593 18.9344V13.7744C9.34132 13.7923 10.0564 14.2166 10.6968 14.5931C11.3372 14.9695 11.9119 15.3091 15.0232 15.2524C15.1545 15.2516 15.2842 15.281 15.4023 15.3384C15.5204 15.3958 15.6237 15.4796 15.7042 15.5833C15.7847 15.687 15.8402 15.8078 15.8665 15.9365C15.8928 16.0651 15.8892 16.198 15.8559 16.325C15.8628 16.4246 15.8071 16.7124 15.2583 16.9375C14.6488 17.1586 13.366 17.3638 10.4847 16.9943C10.4021 16.9857 10.3194 17.0092 10.2537 17.0601C10.188 17.1109 10.1445 17.1851 10.1321 17.2672C10.1265 17.3086 10.1291 17.3507 10.1398 17.3911C10.1505 17.4315 10.169 17.4694 10.1944 17.5026C10.2197 17.5358 10.2514 17.5637 10.2875 17.5846C10.3237 17.6056 10.3636 17.6192 10.405 17.6247C12.0746 17.9493 13.7937 17.9205 15.4515 17.5401C17.1645 17.1917 18.8343 16.6574 20.4313 15.9466C21.0806 15.6727 21.6932 15.4097 21.8336 15.5223C22.2887 15.8659 21.7101 16.336 21.487 16.5053Z"/>
<path d="M3.35763 14.4526C3.26016 14.4526 3.16668 14.4914 3.09776 14.5603C3.02884 14.6292 2.99012 14.7227 2.99012 14.8201C2.99012 14.9176 3.02884 15.0111 3.09776 15.08C3.16668 15.1489 3.26016 15.1877 3.35763 15.1877C3.4551 15.1877 3.54857 15.1489 3.61749 15.08C3.68642 15.0111 3.72514 14.9176 3.72514 14.8201C3.72514 14.7227 3.68642 14.6292 3.61749 14.5603C3.54857 14.4914 3.4551 14.4526 3.35763 14.4526Z"/>
<path d="M11.6051 11.3841H12.7405V12.5135C12.74 12.7262 12.8233 12.9305 12.9725 13.0821C13.1217 13.2337 13.3246 13.3203 13.5373 13.3232H14.2623C14.4749 13.32 14.6777 13.2333 14.8268 13.0818C14.9759 12.9302 15.0594 12.7261 15.0591 12.5135V11.3841H16.1935C16.4056 11.3843 16.6093 11.3007 16.76 11.1515C16.9108 11.0022 16.9964 10.7994 16.9982 10.5873V9.85826C16.998 9.64435 16.9133 9.4392 16.7626 9.28739C16.6119 9.13558 16.4074 9.04939 16.1935 9.04755H15.0661V7.91913C15.0661 7.70782 14.9821 7.50516 14.8327 7.35574C14.6833 7.20631 14.4806 7.12237 14.2693 7.12237H13.5443C13.3329 7.12237 13.1303 7.20631 12.9809 7.35574C12.8314 7.50516 12.7475 7.70782 12.7475 7.91913V9.04755H11.6051C11.3912 9.04939 11.1867 9.13558 11.036 9.28739C10.8853 9.4392 10.8006 9.64435 10.8004 9.85826V10.5873C10.8022 10.7994 10.8879 11.0022 11.0386 11.1515C11.1894 11.3007 11.393 11.3843 11.6051 11.3841ZM11.4408 9.85826C11.4405 9.81432 11.4577 9.77205 11.4885 9.7407C11.5192 9.70935 11.5612 9.69146 11.6051 9.69094H13.0592C13.1441 9.69094 13.2255 9.65729 13.2856 9.59736C13.3457 9.53743 13.3797 9.45612 13.3799 9.37123V7.91913C13.362 7.64026 13.9197 7.78169 14.2693 7.74882C14.2916 7.74882 14.3137 7.75324 14.3343 7.76181C14.3549 7.77038 14.3736 7.78294 14.3894 7.79877C14.4051 7.81459 14.4176 7.83338 14.426 7.85403C14.4345 7.87469 14.4387 7.89681 14.4386 7.91913V9.36825C14.4377 9.41012 14.4451 9.45177 14.4604 9.49075C14.4758 9.52973 14.4987 9.56527 14.5279 9.5953C14.5571 9.62534 14.592 9.64926 14.6305 9.66568C14.669 9.6821 14.7105 9.69068 14.7523 9.69094H16.2025C16.4813 9.676 16.3399 10.2517 16.3718 10.5873C16.37 10.6307 16.3512 10.6717 16.3196 10.7015C16.2879 10.7313 16.2459 10.7475 16.2025 10.7466H14.7523C14.6683 10.7485 14.5883 10.783 14.5294 10.8429C14.4704 10.9028 14.4371 10.9833 14.4366 11.0673V12.5135C14.4536 12.7923 13.8769 12.6509 13.5403 12.6828C13.5182 12.6829 13.4964 12.6786 13.476 12.6701C13.4557 12.6616 13.4373 12.649 13.422 12.6332C13.4066 12.6174 13.3946 12.5986 13.3867 12.5781C13.3788 12.5575 13.3751 12.5355 13.3759 12.5135V11.0634C13.3744 10.9788 13.3401 10.8981 13.2803 10.8383C13.2205 10.7785 13.1398 10.7442 13.0552 10.7427H11.6051C11.3342 10.7586 11.4717 10.2088 11.4408 9.85826Z"/>
</mask>
<path d="M22.2449 15.0462C22.121 14.952 21.9749 14.8912 21.8207 14.8698C21.6665 14.8483 21.5094 14.8669 21.3645 14.9237C21.412 14.7352 21.3992 14.5364 21.3277 14.3556C21.2562 14.1747 21.1297 14.0209 20.9661 13.9158C20.0508 13.381 17.9284 14.9167 16.57 15.1876C18.7352 13.4258 21.5129 10.6062 21.5129 7.63631C21.5046 6.75285 21.221 5.89396 20.7016 5.17924C20.1822 4.46452 19.4529 3.92954 18.6152 3.64877C17.7775 3.368 16.8731 3.35543 16.0279 3.61279C15.1828 3.87016 14.4389 4.38467 13.8998 5.08467C13.3608 4.38467 12.6169 3.87016 11.7717 3.61279C10.9265 3.35543 10.0221 3.368 9.1844 3.64877C8.34669 3.92954 7.61739 4.46452 7.09801 5.17924C6.57864 5.89396 6.29505 6.75285 6.28673 7.63631C6.28673 9.74474 7.69401 11.7884 9.29053 13.4178C6.8764 13.157 4.44697 13.0655 2.02006 13.1439C1.93718 13.1442 1.85773 13.177 1.79885 13.2353C1.73997 13.2937 1.70638 13.3728 1.70534 13.4557V19.1615C1.70494 19.2036 1.71293 19.2453 1.72886 19.2843C1.74478 19.3233 1.76832 19.3587 1.79809 19.3884C1.82785 19.4182 1.86325 19.4418 1.90222 19.4577C1.94119 19.4736 1.98294 19.4816 2.02504 19.4812H4.63842C8.61627 20.8955 17.056 21.1853 21.8684 17.0232C22.0679 16.8892 22.2388 16.7171 22.3715 16.5168C22.5041 16.3164 22.5958 16.0918 22.6413 15.8559C22.6436 15.6993 22.6088 15.5443 22.54 15.4036C22.4711 15.263 22.37 15.1405 22.2449 15.0462ZM19.0529 14.9237C19.7829 14.6568 20.6693 14.0602 20.757 14.7076C20.7115 14.9335 20.5886 15.1364 20.4094 15.2813C19.1208 15.8518 17.7886 16.318 16.4256 16.6756C16.4984 16.418 16.5113 16.1472 16.4634 15.8838C17.3451 15.6163 18.2099 15.2957 19.0529 14.9237ZM6.92613 7.63631C6.92679 6.84667 7.18688 6.07913 7.66639 5.45176C8.1459 4.82439 8.81827 4.37195 9.58004 4.16405C10.3418 3.95615 11.1508 4.0043 11.8825 4.30111C12.6143 4.59791 13.2282 5.12691 13.6299 5.80674C13.6573 5.855 13.697 5.89513 13.7449 5.92306C13.7928 5.95098 13.8473 5.96569 13.9028 5.96569C13.9583 5.96569 14.0128 5.95098 14.0607 5.92306C14.1086 5.89513 14.1483 5.855 14.1757 5.80674C14.5776 5.12696 15.1917 4.59796 15.9235 4.30102C16.6552 4.00408 17.4643 3.95562 18.2262 4.16308C18.9882 4.37055 19.661 4.82246 20.1412 5.44939C20.6215 6.07633 20.8826 6.8436 20.8844 7.63332C20.8844 10.4389 18.0131 13.2256 15.9047 14.8928C15.6355 14.7141 15.3194 14.6192 14.9964 14.6199C12.0812 14.6757 11.5882 14.3749 11.0125 14.0453C8.9539 12.5484 6.96398 9.96883 6.92613 7.63631ZM2.34076 13.7744H4.3745V18.8398H2.34076V13.7744ZM21.487 16.5053C15.0053 21.6424 6.46003 19.3687 5.00593 18.9344V13.7744C9.34132 13.7923 10.0564 14.2166 10.6968 14.5931C11.3372 14.9695 11.9119 15.3091 15.0232 15.2524C15.1545 15.2516 15.2842 15.281 15.4023 15.3384C15.5204 15.3958 15.6237 15.4796 15.7042 15.5833C15.7847 15.687 15.8402 15.8078 15.8665 15.9365C15.8928 16.0651 15.8892 16.198 15.8559 16.325C15.8628 16.4246 15.8071 16.7124 15.2583 16.9375C14.6488 17.1586 13.366 17.3638 10.4847 16.9943C10.4021 16.9857 10.3194 17.0092 10.2537 17.0601C10.188 17.1109 10.1445 17.1851 10.1321 17.2672C10.1265 17.3086 10.1291 17.3507 10.1398 17.3911C10.1505 17.4315 10.169 17.4694 10.1944 17.5026C10.2197 17.5358 10.2514 17.5637 10.2875 17.5846C10.3237 17.6056 10.3636 17.6192 10.405 17.6247C12.0746 17.9493 13.7937 17.9205 15.4515 17.5401C17.1645 17.1917 18.8343 16.6574 20.4313 15.9466C21.0806 15.6727 21.6932 15.4097 21.8336 15.5223C22.2887 15.8659 21.7101 16.336 21.487 16.5053Z" fill="white"/>
<path d="M3.35763 14.4526C3.26016 14.4526 3.16668 14.4914 3.09776 14.5603C3.02884 14.6292 2.99012 14.7227 2.99012 14.8201C2.99012 14.9176 3.02884 15.0111 3.09776 15.08C3.16668 15.1489 3.26016 15.1877 3.35763 15.1877C3.4551 15.1877 3.54857 15.1489 3.61749 15.08C3.68642 15.0111 3.72514 14.9176 3.72514 14.8201C3.72514 14.7227 3.68642 14.6292 3.61749 14.5603C3.54857 14.4914 3.4551 14.4526 3.35763 14.4526Z" fill="white"/>
<path d="M11.6051 11.3841H12.7405V12.5135C12.74 12.7262 12.8233 12.9305 12.9725 13.0821C13.1217 13.2337 13.3246 13.3203 13.5373 13.3232H14.2623C14.4749 13.32 14.6777 13.2333 14.8268 13.0818C14.9759 12.9302 15.0594 12.7261 15.0591 12.5135V11.3841H16.1935C16.4056 11.3843 16.6093 11.3007 16.76 11.1515C16.9108 11.0022 16.9964 10.7994 16.9982 10.5873V9.85826C16.998 9.64435 16.9133 9.4392 16.7626 9.28739C16.6119 9.13558 16.4074 9.04939 16.1935 9.04755H15.0661V7.91913C15.0661 7.70782 14.9821 7.50516 14.8327 7.35574C14.6833 7.20631 14.4806 7.12237 14.2693 7.12237H13.5443C13.3329 7.12237 13.1303 7.20631 12.9809 7.35574C12.8314 7.50516 12.7475 7.70782 12.7475 7.91913V9.04755H11.6051C11.3912 9.04939 11.1867 9.13558 11.036 9.28739C10.8853 9.4392 10.8006 9.64435 10.8004 9.85826V10.5873C10.8022 10.7994 10.8879 11.0022 11.0386 11.1515C11.1894 11.3007 11.393 11.3843 11.6051 11.3841ZM11.4408 9.85826C11.4405 9.81432 11.4577 9.77205 11.4885 9.7407C11.5192 9.70935 11.5612 9.69146 11.6051 9.69094H13.0592C13.1441 9.69094 13.2255 9.65729 13.2856 9.59736C13.3457 9.53743 13.3797 9.45612 13.3799 9.37123V7.91913C13.362 7.64026 13.9197 7.78169 14.2693 7.74882C14.2916 7.74882 14.3137 7.75324 14.3343 7.76181C14.3549 7.77038 14.3736 7.78294 14.3894 7.79877C14.4051 7.81459 14.4176 7.83338 14.426 7.85403C14.4345 7.87469 14.4387 7.89681 14.4386 7.91913V9.36825C14.4377 9.41012 14.4451 9.45177 14.4604 9.49075C14.4758 9.52973 14.4987 9.56527 14.5279 9.5953C14.5571 9.62534 14.592 9.64926 14.6305 9.66568C14.669 9.6821 14.7105 9.69068 14.7523 9.69094H16.2025C16.4813 9.676 16.3399 10.2517 16.3718 10.5873C16.37 10.6307 16.3512 10.6717 16.3196 10.7015C16.2879 10.7313 16.2459 10.7475 16.2025 10.7466H14.7523C14.6683 10.7485 14.5883 10.783 14.5294 10.8429C14.4704 10.9028 14.4371 10.9833 14.4366 11.0673V12.5135C14.4536 12.7923 13.8769 12.6509 13.5403 12.6828C13.5182 12.6829 13.4964 12.6786 13.476 12.6701C13.4557 12.6616 13.4373 12.649 13.422 12.6332C13.4066 12.6174 13.3946 12.5986 13.3867 12.5781C13.3788 12.5575 13.3751 12.5355 13.3759 12.5135V11.0634C13.3744 10.9788 13.3401 10.8981 13.2803 10.8383C13.2205 10.7785 13.1398 10.7442 13.0552 10.7427H11.6051C11.3342 10.7586 11.4717 10.2088 11.4408 9.85826Z" fill="white"/>
<path d="M22.2449 15.0462C22.121 14.952 21.9749 14.8912 21.8207 14.8698C21.6665 14.8483 21.5094 14.8669 21.3645 14.9237C21.412 14.7352 21.3992 14.5364 21.3277 14.3556C21.2562 14.1747 21.1297 14.0209 20.9661 13.9158C20.0508 13.381 17.9284 14.9167 16.57 15.1876C18.7352 13.4258 21.5129 10.6062 21.5129 7.63631C21.5046 6.75285 21.221 5.89396 20.7016 5.17924C20.1822 4.46452 19.4529 3.92954 18.6152 3.64877C17.7775 3.368 16.8731 3.35543 16.0279 3.61279C15.1828 3.87016 14.4389 4.38467 13.8998 5.08467C13.3608 4.38467 12.6169 3.87016 11.7717 3.61279C10.9265 3.35543 10.0221 3.368 9.1844 3.64877C8.34669 3.92954 7.61739 4.46452 7.09801 5.17924C6.57864 5.89396 6.29505 6.75285 6.28673 7.63631C6.28673 9.74474 7.69401 11.7884 9.29053 13.4178C6.8764 13.157 4.44697 13.0655 2.02006 13.1439C1.93718 13.1442 1.85773 13.177 1.79885 13.2353C1.73997 13.2937 1.70638 13.3728 1.70534 13.4557V19.1615C1.70494 19.2036 1.71293 19.2453 1.72886 19.2843C1.74478 19.3233 1.76832 19.3587 1.79809 19.3884C1.82785 19.4182 1.86325 19.4418 1.90222 19.4577C1.94119 19.4736 1.98294 19.4816 2.02504 19.4812H4.63842C8.61627 20.8955 17.056 21.1853 21.8684 17.0232C22.0679 16.8892 22.2388 16.7171 22.3715 16.5168C22.5041 16.3164 22.5958 16.0918 22.6413 15.8559C22.6436 15.6993 22.6088 15.5443 22.54 15.4036C22.4711 15.263 22.37 15.1405 22.2449 15.0462ZM19.0529 14.9237C19.7829 14.6568 20.6693 14.0602 20.757 14.7076C20.7115 14.9335 20.5886 15.1364 20.4094 15.2813C19.1208 15.8518 17.7886 16.318 16.4256 16.6756C16.4984 16.418 16.5113 16.1472 16.4634 15.8838C17.3451 15.6163 18.2099 15.2957 19.0529 14.9237ZM6.92613 7.63631C6.92679 6.84667 7.18688 6.07913 7.66639 5.45176C8.1459 4.82439 8.81827 4.37195 9.58004 4.16405C10.3418 3.95615 11.1508 4.0043 11.8825 4.30111C12.6143 4.59791 13.2282 5.12691 13.6299 5.80674C13.6573 5.855 13.697 5.89513 13.7449 5.92306C13.7928 5.95098 13.8473 5.96569 13.9028 5.96569C13.9583 5.96569 14.0128 5.95098 14.0607 5.92306C14.1086 5.89513 14.1483 5.855 14.1757 5.80674C14.5776 5.12696 15.1917 4.59796 15.9235 4.30102C16.6552 4.00408 17.4643 3.95562 18.2262 4.16308C18.9882 4.37055 19.661 4.82246 20.1412 5.44939C20.6215 6.07633 20.8826 6.8436 20.8844 7.63332C20.8844 10.4389 18.0131 13.2256 15.9047 14.8928C15.6355 14.7141 15.3194 14.6192 14.9964 14.6199C12.0812 14.6757 11.5882 14.3749 11.0125 14.0453C8.9539 12.5484 6.96398 9.96883 6.92613 7.63631ZM2.34076 13.7744H4.3745V18.8398H2.34076V13.7744ZM21.487 16.5053C15.0053 21.6424 6.46003 19.3687 5.00593 18.9344V13.7744C9.34132 13.7923 10.0564 14.2166 10.6968 14.5931C11.3372 14.9695 11.9119 15.3091 15.0232 15.2524C15.1545 15.2516 15.2842 15.281 15.4023 15.3384C15.5204 15.3958 15.6237 15.4796 15.7042 15.5833C15.7847 15.687 15.8402 15.8078 15.8665 15.9365C15.8928 16.0651 15.8892 16.198 15.8559 16.325C15.8628 16.4246 15.8071 16.7124 15.2583 16.9375C14.6488 17.1586 13.366 17.3638 10.4847 16.9943C10.4021 16.9857 10.3194 17.0092 10.2537 17.0601C10.188 17.1109 10.1445 17.1851 10.1321 17.2672C10.1265 17.3086 10.1291 17.3507 10.1398 17.3911C10.1505 17.4315 10.169 17.4694 10.1944 17.5026C10.2197 17.5358 10.2514 17.5637 10.2875 17.5846C10.3237 17.6056 10.3636 17.6192 10.405 17.6247C12.0746 17.9493 13.7937 17.9205 15.4515 17.5401C17.1645 17.1917 18.8343 16.6574 20.4313 15.9466C21.0806 15.6727 21.6932 15.4097 21.8336 15.5223C22.2887 15.8659 21.7101 16.336 21.487 16.5053Z" stroke="white" stroke-width="0.2" mask="url(#path-1-outside-1_38_1020)"/>
<path d="M3.35763 14.4526C3.26016 14.4526 3.16668 14.4914 3.09776 14.5603C3.02884 14.6292 2.99012 14.7227 2.99012 14.8201C2.99012 14.9176 3.02884 15.0111 3.09776 15.08C3.16668 15.1489 3.26016 15.1877 3.35763 15.1877C3.4551 15.1877 3.54857 15.1489 3.61749 15.08C3.68642 15.0111 3.72514 14.9176 3.72514 14.8201C3.72514 14.7227 3.68642 14.6292 3.61749 14.5603C3.54857 14.4914 3.4551 14.4526 3.35763 14.4526Z" stroke="white" stroke-width="0.2" mask="url(#path-1-outside-1_38_1020)"/>
<path d="M11.6051 11.3841H12.7405V12.5135C12.74 12.7262 12.8233 12.9305 12.9725 13.0821C13.1217 13.2337 13.3246 13.3203 13.5373 13.3232H14.2623C14.4749 13.32 14.6777 13.2333 14.8268 13.0818C14.9759 12.9302 15.0594 12.7261 15.0591 12.5135V11.3841H16.1935C16.4056 11.3843 16.6093 11.3007 16.76 11.1515C16.9108 11.0022 16.9964 10.7994 16.9982 10.5873V9.85826C16.998 9.64435 16.9133 9.4392 16.7626 9.28739C16.6119 9.13558 16.4074 9.04939 16.1935 9.04755H15.0661V7.91913C15.0661 7.70782 14.9821 7.50516 14.8327 7.35574C14.6833 7.20631 14.4806 7.12237 14.2693 7.12237H13.5443C13.3329 7.12237 13.1303 7.20631 12.9809 7.35574C12.8314 7.50516 12.7475 7.70782 12.7475 7.91913V9.04755H11.6051C11.3912 9.04939 11.1867 9.13558 11.036 9.28739C10.8853 9.4392 10.8006 9.64435 10.8004 9.85826V10.5873C10.8022 10.7994 10.8879 11.0022 11.0386 11.1515C11.1894 11.3007 11.393 11.3843 11.6051 11.3841ZM11.4408 9.85826C11.4405 9.81432 11.4577 9.77205 11.4885 9.7407C11.5192 9.70935 11.5612 9.69146 11.6051 9.69094H13.0592C13.1441 9.69094 13.2255 9.65729 13.2856 9.59736C13.3457 9.53743 13.3797 9.45612 13.3799 9.37123V7.91913C13.362 7.64026 13.9197 7.78169 14.2693 7.74882C14.2916 7.74882 14.3137 7.75324 14.3343 7.76181C14.3549 7.77038 14.3736 7.78294 14.3894 7.79877C14.4051 7.81459 14.4176 7.83338 14.426 7.85403C14.4345 7.87469 14.4387 7.89681 14.4386 7.91913V9.36825C14.4377 9.41012 14.4451 9.45177 14.4604 9.49075C14.4758 9.52973 14.4987 9.56527 14.5279 9.5953C14.5571 9.62534 14.592 9.64926 14.6305 9.66568C14.669 9.6821 14.7105 9.69068 14.7523 9.69094H16.2025C16.4813 9.676 16.3399 10.2517 16.3718 10.5873C16.37 10.6307 16.3512 10.6717 16.3196 10.7015C16.2879 10.7313 16.2459 10.7475 16.2025 10.7466H14.7523C14.6683 10.7485 14.5883 10.783 14.5294 10.8429C14.4704 10.9028 14.4371 10.9833 14.4366 11.0673V12.5135C14.4536 12.7923 13.8769 12.6509 13.5403 12.6828C13.5182 12.6829 13.4964 12.6786 13.476 12.6701C13.4557 12.6616 13.4373 12.649 13.422 12.6332C13.4066 12.6174 13.3946 12.5986 13.3867 12.5781C13.3788 12.5575 13.3751 12.5355 13.3759 12.5135V11.0634C13.3744 10.9788 13.3401 10.8981 13.2803 10.8383C13.2205 10.7785 13.1398 10.7442 13.0552 10.7427H11.6051C11.3342 10.7586 11.4717 10.2088 11.4408 9.85826Z" stroke="white" stroke-width="0.2" mask="url(#path-1-outside-1_38_1020)"/>
</svg>
