<svg width="24" height="24" viewBox="0 0 24 24" fill="none" xmlns="http://www.w3.org/2000/svg">
<path d="M7.04561 22.6C6.83782 22.6 6.66943 22.4315 6.66943 22.2238V15.1641C6.66943 14.9564 6.83782 14.7879 7.04561 14.7879C7.25345 14.7879 7.42179 14.9564 7.42179 15.1641V22.2238C7.42183 22.4315 7.25345 22.6 7.04561 22.6Z" fill="white"/>
<path d="M14.0369 9.4531H9.19576C8.98796 9.4531 8.81958 9.28462 8.81958 9.07692C8.81958 8.86922 8.98796 8.70074 9.19576 8.70074H14.0369C14.2447 8.70074 14.4131 8.86927 14.4131 9.07692C14.4132 9.28457 14.2447 9.4531 14.0369 9.4531Z" fill="white"/>
<path d="M4.90816 14.0458C4.70032 14.0458 4.53198 13.8772 4.53198 13.6696V9.20621C4.53198 8.99851 4.70037 8.82999 4.90816 8.82999C5.11595 8.82999 5.28438 8.99851 5.28438 9.20621V13.6696C5.28433 13.8772 5.11595 14.0458 4.90816 14.0458Z" fill="white"/>
<path d="M20.5691 22.6H2.37618C2.16838 22.6 2 22.4315 2 22.2238C2 22.0162 2.16838 21.8477 2.37618 21.8477H20.5691C20.777 21.8477 20.9453 22.0162 20.9453 22.2238C20.9453 22.4315 20.777 22.6 20.5691 22.6Z" fill="white"/>
<path d="M18.2158 22.6H11.4963C11.384 22.6 11.2776 22.5498 11.2062 22.4634C11.1347 22.3766 11.1056 22.2628 11.127 22.1526L11.7019 19.1746C11.736 18.9976 11.8909 18.8697 12.0712 18.8697H17.6408C17.8211 18.8697 17.976 18.9976 18.0102 19.1746L18.5851 22.1526C18.6064 22.2628 18.5774 22.3767 18.5059 22.4634C18.4346 22.5498 18.3281 22.6 18.2158 22.6ZM11.9521 21.8476H17.7601L17.3303 19.622H12.3818L11.9521 21.8476Z" fill="white"/>
<path d="M17.5779 19.622H12.1339C11.5698 19.622 11.1108 19.163 11.1108 18.599C11.1108 18.035 11.5698 17.5763 12.1339 17.5763H17.5779C18.1419 17.5763 18.6008 18.035 18.6008 18.599C18.6008 19.163 18.1419 19.622 17.5779 19.622ZM12.1339 18.3286C11.9846 18.3286 11.8632 18.4499 11.8632 18.599C11.8632 18.7482 11.9846 18.8696 12.1339 18.8696H17.5779C17.7271 18.8696 17.8484 18.7482 17.8484 18.599C17.8484 18.4499 17.7271 18.3286 17.5779 18.3286H12.1339Z" fill="white"/>
<path d="M14.8559 22.6C14.6481 22.6 14.4797 22.4315 14.4797 22.2238V20.7347C14.4797 20.527 14.6481 20.3586 14.8559 20.3586C15.0637 20.3586 15.2321 20.5271 15.2321 20.7347V22.2238C15.2321 22.4315 15.0637 22.6 14.8559 22.6Z" fill="white"/>
<path d="M13.1091 22.6C13.0911 22.6 13.073 22.5988 13.0548 22.5961C12.8492 22.5665 12.7066 22.3757 12.7363 22.1699L12.9519 20.6808C12.9816 20.4751 13.1734 20.333 13.378 20.3624C13.5836 20.3921 13.7262 20.5829 13.6964 20.7886L13.4809 22.2777C13.4538 22.465 13.2931 22.6 13.1091 22.6Z" fill="white"/>
<path d="M16.6027 22.6C16.4188 22.6 16.258 22.465 16.2309 22.2777L16.0154 20.7886C15.9856 20.5828 16.1282 20.392 16.3338 20.3624C16.5389 20.3328 16.7302 20.4751 16.76 20.6808L16.9755 22.1699C17.0053 22.3756 16.8627 22.5664 16.6571 22.5961C16.6389 22.5988 16.6207 22.6 16.6027 22.6Z" fill="white"/>
<path d="M15.5702 18.3286H14.0371C13.8292 18.3286 13.6609 18.1602 13.6609 17.9525V5.81873C13.6609 5.18859 14.1735 4.67599 14.8037 4.67599C15.4338 4.67599 15.9464 5.18859 15.9464 5.81873V11.732C15.9464 11.9397 15.778 12.1082 15.5702 12.1082C15.3624 12.1082 15.1941 11.9396 15.1941 11.732V5.81873C15.1941 5.60345 15.019 5.42835 14.8037 5.42835C14.5883 5.42835 14.4133 5.6035 14.4133 5.81873V17.5763H15.1941V14.6683C15.1941 14.4607 15.3625 14.2922 15.5703 14.2922C15.7781 14.2922 15.9465 14.4607 15.9465 14.6683V17.9524C15.9464 18.1602 15.778 18.3286 15.5702 18.3286Z" fill="white"/>
<path d="M9.19585 22.6H4.9082C4.70036 22.6 4.53203 22.4315 4.53203 22.2238V14.9318C4.30312 15.056 4.04464 15.1143 3.77459 15.1011C3.01364 15.0609 2.41772 14.4065 2.41772 13.6113V8.91937C2.41772 7.54686 3.53492 6.42999 4.9082 6.42999H5.50873C5.60276 6.42999 5.69353 6.46527 5.7628 6.52892C6.49412 7.19905 7.59702 7.19905 8.32806 6.52892C8.39752 6.46522 8.48824 6.42999 8.58232 6.42999H14.037C14.2448 6.42999 14.4132 6.59852 14.4132 6.80617C14.4132 7.01386 14.2448 7.18234 14.037 7.18234H8.72257C7.74241 7.9862 6.34897 7.9862 5.36852 7.18234H4.9082C3.94984 7.18234 3.17012 7.96143 3.17012 8.91932V13.6112C3.17012 13.9996 3.45904 14.331 3.814 14.3496C4.00369 14.3601 4.18283 14.2935 4.31968 14.1638C4.45657 14.0337 4.53203 13.8581 4.53203 13.6695C4.53203 13.4618 4.70041 13.2933 4.9082 13.2933C5.116 13.2933 5.28443 13.4618 5.28443 13.6695V21.8475H8.81968V9.0769C8.81968 8.86921 8.98806 8.70073 9.19585 8.70073C9.40369 8.70073 9.57203 8.86926 9.57203 9.0769V22.2238C9.57208 22.4315 9.40369 22.6 9.19585 22.6Z" fill="white"/>
<path d="M7.0455 5.77221C5.72982 5.77221 4.65942 4.70166 4.65942 3.38598C4.65942 2.0703 5.72982 1 7.0455 1C8.36118 1 9.43163 2.0703 9.43163 3.38598C9.43163 4.70166 8.36123 5.77221 7.0455 5.77221ZM7.0455 1.7524C6.14469 1.7524 5.41182 2.48517 5.41182 3.38598C5.41182 4.2868 6.14469 5.01981 7.0455 5.01981C7.94632 5.01981 8.67923 4.2868 8.67923 3.38598C8.67923 2.48517 7.94632 1.7524 7.0455 1.7524Z" fill="white"/>
<path d="M17.1771 15.37C16.9693 15.37 16.801 15.2015 16.801 14.9938C16.801 14.1704 16.1311 13.5006 15.3078 13.5006C15.1 13.5006 14.9316 13.3321 14.9316 13.1244C14.9316 12.9167 15.1 12.7483 15.3078 12.7483C16.1311 12.7483 16.801 12.0784 16.801 11.255C16.801 11.0473 16.9693 10.8788 17.1771 10.8788C17.385 10.8788 17.5533 11.0473 17.5533 11.255C17.5533 12.0784 18.2232 12.7483 19.0464 12.7483C19.2543 12.7483 19.4226 12.9168 19.4226 13.1244C19.4226 13.3321 19.2542 13.5006 19.0464 13.5006C18.2232 13.5006 17.5533 14.1704 17.5533 14.9938C17.5534 15.2015 17.385 15.37 17.1771 15.37ZM16.5508 13.1244C16.7986 13.2897 17.0118 13.5031 17.1771 13.7509C17.3424 13.5031 17.5557 13.2897 17.8035 13.1244C17.5557 12.9591 17.3424 12.7457 17.1771 12.4979C17.0118 12.7458 16.7986 12.9591 16.5508 13.1244Z" fill="white"/>
<path d="M19.0579 9.28946C18.8501 9.28946 18.6817 9.12098 18.6817 8.91329C18.6817 7.95885 17.9053 7.18245 16.9511 7.18245C16.7433 7.18245 16.575 7.01397 16.575 6.80628C16.575 6.59858 16.7433 6.4301 16.9511 6.4301C17.9053 6.4301 18.6817 5.65375 18.6817 4.69951C18.6817 4.49181 18.8501 4.32333 19.0579 4.32333C19.2657 4.32333 19.4341 4.49186 19.4341 4.69951C19.4341 5.65375 20.2105 6.4301 21.1648 6.4301C21.3726 6.4301 21.541 6.59863 21.541 6.80628C21.541 7.01397 21.3726 7.18245 21.1648 7.18245C20.2105 7.18245 19.4341 7.95885 19.4341 8.91329C19.4341 9.12098 19.2657 9.28946 19.0579 9.28946ZM18.2639 6.80623C18.585 7.00706 18.8571 7.27917 19.0579 7.60025C19.2588 7.27917 19.5309 7.00706 19.852 6.80623C19.5309 6.6054 19.2588 6.33333 19.0579 6.01221C18.8571 6.33333 18.585 6.6054 18.2639 6.80623Z" fill="white"/>
</svg>
