<svg width="24" height="24" viewBox="0 0 24 24" fill="none" xmlns="http://www.w3.org/2000/svg">
<g clip-path="url(#clip0_38_1309)">
<path d="M18.375 0.75H5.625C4.33253 0.751489 3.09342 1.26558 2.1795 2.1795C1.26558 3.09342 0.751489 4.33253 0.75 5.625V18.375C0.751489 19.6675 1.26558 20.9066 2.1795 21.8205C3.09342 22.7344 4.33253 23.2485 5.625 23.25H18.375C19.6675 23.2485 20.9066 22.7344 21.8205 21.8205C22.7344 20.9066 23.2485 19.6675 23.25 18.375V5.625C23.2485 4.33253 22.7344 3.09342 21.8205 2.1795C20.9066 1.26558 19.6675 0.751489 18.375 0.75ZM22.5 18.375C22.4988 19.4686 22.0638 20.5171 21.2904 21.2904C20.5171 22.0638 19.4686 22.4988 18.375 22.5H5.625C4.53136 22.4988 3.48287 22.0638 2.70955 21.2904C1.93624 20.5171 1.50124 19.4686 1.5 18.375V5.625C1.50124 4.53136 1.93624 3.48287 2.70955 2.70955C3.48287 1.93624 4.53136 1.50124 5.625 1.5H18.375C19.4686 1.50124 20.5171 1.93624 21.2904 2.70955C22.0638 3.48287 22.4988 4.53136 22.5 5.625V18.375Z" fill="white"/>
<path d="M12 19.875H10.5V19.125H9.75V20.25C9.75 20.3495 9.78951 20.4448 9.85983 20.5152C9.93016 20.5855 10.0255 20.625 10.125 20.625H12.375C12.4745 20.625 12.5698 20.5855 12.6402 20.5152C12.7105 20.4448 12.75 20.3495 12.75 20.25V19.125H12V19.875Z" fill="white"/>
<path d="M13.3593 18.457L11.4843 16.957C11.4177 16.904 11.3351 16.8752 11.2499 16.8752C11.1648 16.8752 11.0822 16.904 11.0156 16.957L9.14057 18.457C9.06287 18.5192 9.01304 18.6097 9.00205 18.7086C8.99106 18.8075 9.01981 18.9067 9.08197 18.9844C9.14413 19.0621 9.23461 19.1119 9.33351 19.1229C9.4324 19.1339 9.53162 19.1051 9.60932 19.043L11.2499 17.7301L12.8906 19.043C12.9683 19.1051 13.0675 19.1339 13.1664 19.1229C13.2653 19.1119 13.3557 19.0621 13.4179 18.9844C13.4801 18.9067 13.5088 18.8075 13.4978 18.7086C13.4868 18.6097 13.437 18.5192 13.3593 18.457Z" fill="white"/>
<path d="M18.9375 18.3952V18.375C18.9375 17.5477 18.3487 16.875 17.625 16.875C16.9013 16.875 16.3125 17.5477 16.3125 18.375V18.3952C16.052 18.4412 15.8157 18.5768 15.6446 18.7786C15.4734 18.9803 15.3781 19.2355 15.375 19.5C15.375 20.1203 15.8935 20.625 16.5311 20.625H18.7189C19.3564 20.625 19.875 20.1203 19.875 19.5C19.8719 19.2355 19.7766 18.9803 19.6054 18.7786C19.4343 18.5768 19.198 18.4412 18.9375 18.3952ZM18.7189 19.875H16.5311C16.3074 19.875 16.125 19.7069 16.125 19.5C16.125 19.2931 16.3074 19.125 16.5311 19.125C16.5714 19.126 16.6114 19.1328 16.6498 19.1452C16.7152 19.164 16.7845 19.1648 16.8503 19.1472C16.9161 19.1297 16.9759 19.0946 17.0233 19.0456C17.0706 18.9967 17.1038 18.9358 17.1191 18.8694C17.1345 18.8031 17.1315 18.7338 17.1105 18.669C17.0791 18.5742 17.063 18.4749 17.0625 18.375C17.0625 17.9685 17.3199 17.625 17.625 17.625C17.9301 17.625 18.1875 17.9685 18.1875 18.375C18.187 18.4749 18.1709 18.5742 18.1395 18.669C18.1185 18.7338 18.1155 18.8031 18.1309 18.8694C18.1462 18.9358 18.1794 18.9967 18.2267 19.0456C18.2741 19.0946 18.3339 19.1297 18.3997 19.1472C18.4655 19.1648 18.5348 19.164 18.6002 19.1452C18.6386 19.1328 18.6786 19.126 18.7189 19.125C18.9426 19.125 19.125 19.2931 19.125 19.5C19.125 19.7069 18.9426 19.875 18.7189 19.875Z" fill="white"/>
<path d="M7.5 16.875C6.6052 16.876 5.74732 17.2319 5.1146 17.8646C4.48187 18.4973 4.12598 19.3552 4.125 20.25C4.125 20.3495 4.16451 20.4448 4.23484 20.5152C4.30516 20.5855 4.40054 20.625 4.5 20.625C5.3948 20.624 6.25268 20.2681 6.8854 19.6354C7.51813 19.0027 7.87402 18.1448 7.875 17.25C7.875 17.1505 7.83549 17.0552 7.76517 16.9848C7.69484 16.9145 7.59946 16.875 7.5 16.875ZM4.9065 19.8435C4.99332 19.2947 5.2517 18.7875 5.64459 18.3946C6.03748 18.0017 6.54469 17.7433 7.0935 17.6565C7.00668 18.2053 6.7483 18.7125 6.35541 19.1054C5.96252 19.4983 5.45531 19.7567 4.9065 19.8435Z" fill="white"/>
<path d="M9.375 5.25H6.375C6.27554 5.25 6.18016 5.28951 6.10983 5.35984C6.03951 5.43016 6 5.52554 6 5.625C6 5.72446 6.03951 5.81984 6.10983 5.89016C6.18016 5.96049 6.27554 6 6.375 6H9V8.625H6.375C6.27554 8.625 6.18016 8.66451 6.10983 8.73483C6.03951 8.80516 6 8.90054 6 9V12.375C6 12.4745 6.03951 12.5698 6.10983 12.6402C6.18016 12.7105 6.27554 12.75 6.375 12.75H9.375C9.47446 12.75 9.56984 12.7105 9.64017 12.6402C9.71049 12.5698 9.75 12.4745 9.75 12.375C9.75 12.2755 9.71049 12.1802 9.64017 12.1098C9.56984 12.0395 9.47446 12 9.375 12H6.75V9.375H9.375C9.47446 9.375 9.56984 9.33549 9.64017 9.26517C9.71049 9.19484 9.75 9.09946 9.75 9V5.625C9.75 5.52554 9.71049 5.43016 9.64017 5.35984C9.56984 5.28951 9.47446 5.25 9.375 5.25Z" fill="white"/>
<path d="M14.25 5.25H11.25C11.1505 5.25 11.0552 5.28951 10.9848 5.35984C10.9145 5.43016 10.875 5.52554 10.875 5.625C10.875 5.72446 10.9145 5.81984 10.9848 5.89016C11.0552 5.96049 11.1505 6 11.25 6H13.875V8.625H11.25C11.1505 8.625 11.0552 8.66451 10.9848 8.73483C10.9145 8.80516 10.875 8.90054 10.875 9V12.375C10.875 12.4745 10.9145 12.5698 10.9848 12.6402C11.0552 12.7105 11.1505 12.75 11.25 12.75H14.25C14.3495 12.75 14.4448 12.7105 14.5152 12.6402C14.5855 12.5698 14.625 12.4745 14.625 12.375C14.625 12.2755 14.5855 12.1802 14.5152 12.1098C14.4448 12.0395 14.3495 12 14.25 12H11.625V9.375H14.25C14.3495 9.375 14.4448 9.33549 14.5152 9.26517C14.5855 9.19484 14.625 9.09946 14.625 9V5.625C14.625 5.52554 14.5855 5.43016 14.5152 5.35984C14.4448 5.28951 14.3495 5.25 14.25 5.25Z" fill="white"/>
<path d="M16.875 7.875C16.6525 7.875 16.435 7.94098 16.25 8.0646C16.065 8.18821 15.9208 8.36391 15.8356 8.56948C15.7505 8.77505 15.7282 9.00125 15.7716 9.21948C15.815 9.43771 15.9222 9.63816 16.0795 9.7955C16.2368 9.95283 16.4373 10.06 16.6555 10.1034C16.8738 10.1468 17.1 10.1245 17.3055 10.0394C17.5111 9.95422 17.6868 9.81002 17.8104 9.62502C17.934 9.44001 18 9.2225 18 9C17.9997 8.70173 17.881 8.41578 17.6701 8.20487C17.4592 7.99397 17.1733 7.87533 16.875 7.875ZM16.875 9.375C16.8008 9.375 16.7283 9.35301 16.6667 9.3118C16.605 9.2706 16.5569 9.21203 16.5285 9.14351C16.5002 9.07498 16.4927 8.99958 16.5072 8.92684C16.5217 8.8541 16.5574 8.78728 16.6098 8.73483C16.6623 8.68239 16.7291 8.64667 16.8018 8.63221C16.8746 8.61774 16.95 8.62516 17.0185 8.65355C17.087 8.68193 17.1456 8.72999 17.1868 8.79166C17.228 8.85333 17.25 8.92583 17.25 9C17.2499 9.09944 17.2104 9.19478 17.1401 9.2651C17.0698 9.33541 16.9744 9.37494 16.875 9.375Z" fill="white"/>
<path d="M16.875 7.125C17.0821 7.125 17.25 6.95711 17.25 6.75C17.25 6.54289 17.0821 6.375 16.875 6.375C16.6679 6.375 16.5 6.54289 16.5 6.75C16.5 6.95711 16.6679 7.125 16.875 7.125Z" fill="white"/>
<path d="M16.875 11.625C17.0821 11.625 17.25 11.4571 17.25 11.25C17.25 11.0429 17.0821 10.875 16.875 10.875C16.6679 10.875 16.5 11.0429 16.5 11.25C16.5 11.4571 16.6679 11.625 16.875 11.625Z" fill="white"/>
<path d="M16.875 5.625C17.0821 5.625 17.25 5.45711 17.25 5.25C17.25 5.04289 17.0821 4.875 16.875 4.875C16.6679 4.875 16.5 5.04289 16.5 5.25C16.5 5.45711 16.6679 5.625 16.875 5.625Z" fill="white"/>
<path d="M16.875 13.125C17.0821 13.125 17.25 12.9571 17.25 12.75C17.25 12.5429 17.0821 12.375 16.875 12.375C16.6679 12.375 16.5 12.5429 16.5 12.75C16.5 12.9571 16.6679 13.125 16.875 13.125Z" fill="white"/>
<path d="M18.75 2.625H5.25C4.55407 2.62584 3.88688 2.90268 3.39478 3.39478C2.90268 3.88688 2.62584 4.55407 2.625 5.25V15C2.625 15.0995 2.66451 15.1948 2.73484 15.2652C2.80516 15.3355 2.90054 15.375 3 15.375H21C21.0995 15.375 21.1948 15.3355 21.2652 15.2652C21.3355 15.1948 21.375 15.0995 21.375 15V5.25C21.3742 4.55407 21.0973 3.88688 20.6052 3.39478C20.1131 2.90268 19.4459 2.62584 18.75 2.625ZM20.625 14.625H3.375V5.25C3.37558 4.7529 3.57331 4.27632 3.92482 3.92482C4.27632 3.57331 4.7529 3.37558 5.25 3.375H18.75C19.2471 3.37558 19.7237 3.57331 20.0752 3.92482C20.4267 4.27632 20.6244 4.7529 20.625 5.25V14.625Z" fill="white"/>
</g>
<defs>
<clipPath id="clip0_38_1309">
<rect width="24" height="24" fill="white"/>
</clipPath>
</defs>
</svg>
