<svg width="24" height="24" viewBox="0 0 24 24" fill="none" xmlns="http://www.w3.org/2000/svg">
<g clip-path="url(#clip0_38_1183)">
<path d="M1.20664 15.9776H6.57828C6.55442 16.2274 6.61803 16.4878 6.91578 16.4973H8.83592C8.9711 16.4971 9.10487 16.4698 9.22937 16.4171C9.35387 16.3645 9.46659 16.2874 9.56091 16.1906C9.65523 16.0938 9.72925 15.9791 9.77862 15.8532C9.82799 15.7274 9.85173 15.5929 9.84842 15.4578H11.2393C11.3911 15.4566 11.539 15.5061 11.6595 15.5984C11.6934 15.6243 13.1412 16.7144 13.2819 16.8031C13.1499 17.1929 12.869 17.528 12.4545 17.6389C10.5108 18.069 9.71197 20.8858 11.1731 22.2616C11.212 22.3008 11.26 22.3298 11.3128 22.3461C11.3656 22.3625 11.4216 22.3656 11.4759 22.3552C11.5301 22.3449 11.581 22.3213 11.6241 22.2867C11.6672 22.2521 11.7011 22.2074 11.7228 22.1566L12.3369 20.7235L13.0577 20.6814L13.5247 21.2345L12.9103 22.6679C12.8873 22.7222 12.8788 22.7817 12.8857 22.8403C12.8926 22.899 12.9147 22.9548 12.9497 23.0024C12.9848 23.0499 13.0317 23.0875 13.0857 23.1114C13.1397 23.1353 13.199 23.1447 13.2577 23.1387C15.2477 23.2173 16.7237 20.659 15.6552 18.9789C15.5029 18.7057 15.494 18.3515 15.6403 18.0083L15.9801 17.0174H18.3426C19.5875 16.9785 20.0392 15.6601 19.4256 14.8096C20.2387 14.4782 20.4991 13.2861 19.876 12.6496C20.915 11.9949 20.5822 10.6105 19.7268 10.2366C20.1218 9.76093 20.0906 9.01388 19.6868 8.5322L20.3524 7.01345C20.4875 6.69376 20.7493 6.45812 21.0495 6.38377C23.035 5.9716 23.8451 3.14766 22.3849 1.7446C22.3459 1.70556 22.298 1.67659 22.2453 1.66022C22.1926 1.64384 22.1367 1.64054 22.0825 1.65061C22.0282 1.66067 21.9773 1.6838 21.934 1.71799C21.8906 1.75218 21.8563 1.7964 21.8339 1.84684L21.2156 3.27784L20.4968 3.32232L20.0294 2.76877L20.6431 1.33327C20.6648 1.28241 20.6736 1.22701 20.6689 1.17194C20.6641 1.11686 20.646 1.06379 20.6159 1.01738C20.5859 0.970964 20.5449 0.93263 20.4966 0.905735C20.4483 0.878841 20.3942 0.864207 20.3389 0.863118C18.3391 0.756383 16.8531 3.27432 17.8739 4.96848C18.1665 5.4767 17.9341 5.99771 17.713 6.46627H15.4536C14.8882 6.46676 14.3408 6.66543 13.9067 7.02774L11.6609 8.90476C11.5369 9.00835 11.3805 9.06515 11.2189 9.06526H9.84842C9.85173 8.93012 9.82799 8.79568 9.77862 8.66984C9.72925 8.544 9.65522 8.42929 9.5609 8.33246C9.46658 8.23562 9.35386 8.15861 9.22937 8.10594C9.10487 8.05327 8.9711 8.02601 8.83592 8.02576H6.91578C6.61709 8.03696 6.55484 8.29337 6.57828 8.54551H1.20664C1.11713 8.54551 1.03129 8.58107 0.967992 8.64436C0.904699 8.70765 0.869141 8.7935 0.869141 8.88301V15.6401C0.869141 15.7296 0.904699 15.8154 0.967992 15.8787C1.03129 15.942 1.11713 15.9776 1.20664 15.9776ZM15.0244 21.4015C14.7274 21.9083 14.2759 22.2583 13.7607 22.3968L14.2271 21.3087C14.2518 21.2512 14.2599 21.1879 14.2507 21.1259C14.2414 21.064 14.2151 21.0058 14.1747 20.958L13.4644 20.1169C13.4305 20.077 13.3878 20.0454 13.3396 20.0247C13.2915 20.004 13.2392 19.9947 13.1869 19.9976L12.089 20.0617C12.0265 20.0654 11.9661 20.0865 11.9148 20.1225C11.8635 20.1586 11.8233 20.2082 11.7987 20.2659L11.3313 21.3565C10.6894 20.2698 11.3854 18.5522 12.6289 18.2909C13.2753 18.1151 13.7191 17.615 13.9276 17.0104C14.1182 17.022 14.7404 17.0151 15.2668 17.0172L15.0109 17.7656C14.7887 18.2837 14.8085 18.8455 15.0685 19.3125C15.4367 19.9447 15.4202 20.7255 15.0244 21.4015ZM18.5464 6.23391C18.6516 5.97982 18.699 5.70551 18.6852 5.43083C18.6713 5.15616 18.5965 4.888 18.4662 4.64579C17.8048 3.57634 18.5683 1.88377 19.7935 1.60271L19.3265 2.6949C19.302 2.75245 19.2939 2.81568 19.3032 2.87755C19.3125 2.93941 19.3388 2.99747 19.3792 3.04524L20.0901 3.88726C20.1239 3.92761 20.1668 3.95942 20.2152 3.98012C20.2636 4.00083 20.3161 4.00983 20.3687 4.00641L21.464 3.93882C21.5263 3.93499 21.5862 3.91399 21.6373 3.87815C21.6883 3.84232 21.7284 3.79305 21.7531 3.73581L22.2224 2.64966C22.8636 3.75432 22.1609 5.47656 20.8899 5.72766C20.382 5.85324 19.9486 6.2356 19.7327 6.74626L19.1286 8.12438C18.8038 7.96501 18.1289 8.04751 17.773 8.04113L18.5464 6.23391ZM9.84842 9.74026C10.5996 9.69666 11.5594 9.91093 12.0937 9.42259L14.3396 7.54571C14.652 7.28475 15.0461 7.14163 15.4533 7.14127H17.4236L17.0324 8.05534L16.6282 8.06312C16.1867 8.0739 16.2004 8.74473 16.6414 8.73812L18.5932 8.70062C19.5736 8.70029 19.5468 10.105 18.6325 10.105H16.7817C16.3326 10.1013 16.3224 10.7715 16.7724 10.78H19.1125C20.0861 10.7779 20.0714 12.1842 19.1523 12.1842C19.1388 12.1856 17.1532 12.1749 17.1421 12.1793C17.1412 12.1793 16.6359 12.1777 16.6349 12.1778C16.5454 12.1777 16.4595 12.2131 16.3961 12.2763C16.3328 12.3395 16.2971 12.4253 16.2969 12.5148C16.2968 12.6043 16.3322 12.6902 16.3954 12.7536C16.4586 12.817 16.5444 12.8527 16.634 12.8528L18.8531 12.8592C19.78 12.8592 19.7772 14.2635 18.8573 14.2635C18.853 14.2635 16.6445 14.2351 16.6405 14.2349C16.5962 14.2342 16.5522 14.2422 16.5109 14.2585C16.4697 14.2747 16.4321 14.299 16.4002 14.3298C16.3684 14.3606 16.3429 14.3974 16.3252 14.4381C16.3076 14.4787 16.2982 14.5225 16.2974 14.5668C16.2967 14.6111 16.3047 14.6552 16.321 14.6964C16.3372 14.7376 16.3615 14.7752 16.3923 14.8071C16.4231 14.839 16.4599 14.8644 16.5006 14.8821C16.5413 14.8997 16.585 14.9092 16.6293 14.9099L18.3254 14.9383C19.2655 14.9641 19.2656 16.3124 18.334 16.3425C17.2605 16.3425 15.0874 16.3425 14.0107 16.3425C13.8588 16.3438 13.7108 16.2943 13.5902 16.2019L12.0672 15.0605C11.5572 14.6267 10.56 14.8246 9.84833 14.7832L9.84842 9.74026ZM7.25323 8.70076H8.83592C8.92541 8.70084 9.0112 8.73643 9.07447 8.79971C9.13775 8.86298 9.17333 8.94877 9.17342 9.03826V15.4849C9.17333 15.5744 9.13775 15.6602 9.07447 15.7234C9.0112 15.7867 8.92541 15.8223 8.83592 15.8224H7.25328L7.25323 8.70076ZM1.54414 9.22032H6.57828V15.3026H1.54414V9.22032Z" fill="white"/>
</g>
<defs>
<clipPath id="clip0_38_1183">
<rect width="24" height="24" fill="white"/>
</clipPath>
</defs>
</svg>
