<svg width="24" height="24" viewBox="0 0 24 24" fill="none" xmlns="http://www.w3.org/2000/svg">
<path d="M4.08301 2.0498H14.083C15.2036 2.0498 16.117 2.96162 16.1172 4.08301V11.8496C16.1172 12.052 15.9524 12.2168 15.75 12.2168C15.5476 12.2168 15.3838 12.052 15.3838 11.8496V4.08301C15.3836 3.36638 14.7997 2.7832 14.083 2.7832H4.08301C3.36649 2.78339 2.78338 3.36649 2.7832 4.08301V17.417C2.78338 18.1335 3.36649 18.7166 4.08301 18.7168H9.8584C10.0607 18.7168 10.2244 18.8808 10.2246 19.083C10.2246 19.2855 10.0615 19.4502 9.8584 19.4502H4.08301C2.96253 19.45 2.04998 18.5383 2.0498 17.417V4.08301C2.04998 2.96173 2.96253 2.04999 4.08301 2.0498Z" fill="white" stroke="white" stroke-width="0.1"/>
<path d="M4.91699 8.71637H13.25C13.4524 8.71637 13.6172 8.88117 13.6172 9.08356C13.617 9.28579 13.4523 9.44977 13.25 9.44977H4.91699C4.71471 9.44977 4.54998 9.28579 4.5498 9.08356C4.5498 8.88117 4.71461 8.71637 4.91699 8.71637Z" fill="white" stroke="white" stroke-width="0.1"/>
<path d="M4.91699 12.0498H9.91699C10.1192 12.0499 10.2832 12.2147 10.2832 12.417C10.283 12.6191 10.1191 12.783 9.91699 12.7832H4.91699C4.71471 12.7832 4.54998 12.6192 4.5498 12.417C4.5498 12.2146 4.71461 12.0498 4.91699 12.0498Z" fill="white" stroke="white" stroke-width="0.1"/>
<path d="M4.91699 5.38321H9.08301C9.28539 5.38321 9.4502 5.54801 9.4502 5.7504C9.45002 5.95263 9.28529 6.11661 9.08301 6.11661H4.91699C4.71471 6.11661 4.54998 5.95263 4.5498 5.7504C4.5498 5.54801 4.71461 5.38321 4.91699 5.38321Z" fill="white" stroke="white" stroke-width="0.1"/>
<path d="M18.7231 11.8966C19.1744 11.445 19.9673 11.4449 20.4194 11.8966L21.5981 13.0753C22.0661 13.5433 22.0661 14.3046 21.5981 14.7726L15.1167 21.254C15.0783 21.2924 15.0316 21.3216 14.981 21.34L14.9292 21.3546L11.9839 21.9435C11.9594 21.9479 11.935 21.9503 11.9116 21.9503C11.8397 21.9503 11.7688 21.9286 11.7085 21.8888L11.6519 21.8429C11.5655 21.7564 11.5278 21.6314 11.5513 21.5118L12.1401 18.5655C12.155 18.4936 12.1901 18.429 12.2407 18.379L18.7231 11.8966ZM19.9009 12.4142C19.7233 12.2378 19.418 12.2376 19.2417 12.4142L12.8384 18.8175L12.8354 18.8331L12.3931 21.0421L12.3784 21.1153L12.4526 21.1007L14.6616 20.6593L14.6763 20.6564L21.0796 14.253C21.2616 14.071 21.2616 13.7749 21.0796 13.5929L19.9009 12.4142Z" fill="white" stroke="white" stroke-width="0.1"/>
</svg>
