<svg width="24" height="24" viewBox="0 0 24 24" fill="none" xmlns="http://www.w3.org/2000/svg">
<path d="M1.82471 19.2599C1.80824 19.3652 1.83292 19.4731 1.89404 19.5607C1.95684 19.6505 2.05272 19.7114 2.16064 19.7306C2.26867 19.7498 2.38023 19.726 2.47021 19.6632C2.51459 19.6322 2.55234 19.5926 2.58154 19.547C2.60984 19.5028 2.62929 19.4531 2.63916 19.4015L3.06689 17.9923L3.08643 17.9279H1.82471V19.2599ZM20.9526 17.9933L21.4136 19.4035L21.4146 19.4054C21.4439 19.4839 21.496 19.5517 21.564 19.6007C21.6319 19.6498 21.7126 19.6776 21.7964 19.6808L21.9634 19.6877L21.897 19.6398C21.9563 19.6203 22.0121 19.5901 22.0571 19.5451C22.1326 19.4696 22.1753 19.3667 22.1753 19.2599V17.9279H20.9312L20.9526 17.9933ZM1.82471 17.2775H22.1753V14.6652H1.82471V17.2775ZM4.48779 10.2589L2.14014 13.9377L2.09131 14.0148H21.9087L21.8599 13.9377L19.5122 10.2589L19.4976 10.2365H4.50244L4.48779 10.2589ZM7.48877 7.28531C7.36586 7.28531 7.24136 7.29046 7.15479 7.38882C7.11245 7.43713 7.0824 7.5042 7.06299 7.59293C7.04358 7.68185 7.03369 7.79636 7.03369 7.94254V9.58609H10.7339V7.94254C10.7339 7.79635 10.7239 7.68183 10.7046 7.59293C10.6853 7.50444 10.6556 7.43806 10.6138 7.3898C10.5278 7.291 10.404 7.28532 10.2827 7.28531H7.48877ZM13.8599 7.28531C13.7385 7.28531 13.6149 7.29093 13.5288 7.3898C13.4869 7.43806 13.4573 7.50439 13.438 7.59293C13.4186 7.68183 13.4087 7.79635 13.4087 7.94254V9.58609H17.1089V7.94254C17.1089 7.79635 17.0989 7.68183 17.0796 7.59293C17.0603 7.50444 17.0306 7.43806 16.9888 7.3898C16.9028 7.291 16.779 7.28532 16.6577 7.28531H13.8599ZM1.20752 14.3312C1.20706 14.3288 1.20712 14.3258 1.20752 14.3234L1.20947 14.3146L1.2085 14.3058C1.20545 14.2861 1.20543 14.2659 1.2085 14.2462L1.20752 14.2453C1.21135 14.2267 1.21871 14.209 1.22803 14.1925L1.23486 14.1808V14.1554L3.99072 9.82925L3.99854 9.81754V6.39566C4.02638 5.65159 4.34827 4.94912 4.89307 4.44156C5.43792 3.93399 6.16153 3.66277 6.90576 3.68765H17.0942C17.8384 3.66281 18.5621 3.93403 19.1069 4.44156C19.5837 4.88577 19.8895 5.47925 19.9771 6.11929L20.0015 6.39566V9.81754L20.0093 9.82925L22.7759 14.1671V14.1916L22.7827 14.2033C22.7925 14.2205 22.7994 14.2395 22.8032 14.2589L22.8042 14.2668L22.8081 14.2726L22.8257 14.3234C22.8261 14.3257 22.8261 14.3279 22.8257 14.3302H22.8247V19.2599C22.8076 19.4953 22.7122 19.7182 22.5532 19.8927C22.3933 20.0681 22.1781 20.1847 21.9438 20.2228C21.7097 20.2608 21.4694 20.2182 21.2622 20.1027C21.0558 19.9875 20.894 19.8063 20.8032 19.588L20.2749 17.9621L20.2642 17.9279H3.80322L3.79248 17.9621L3.26318 19.5861C3.18652 19.8254 3.027 20.0295 2.81299 20.1613C2.5989 20.2931 2.34451 20.3442 2.09619 20.3048C1.84792 20.2655 1.62227 20.138 1.45947 19.9464C1.29667 19.7549 1.20733 19.5113 1.2085 19.2599V14.34H1.20947L1.20752 14.3312ZM19.3511 6.39078C19.3221 5.81927 19.0676 5.28237 18.644 4.89761C18.2209 4.51342 17.6632 4.31158 17.0923 4.33707H6.90771C6.33661 4.31153 5.77819 4.5132 5.35498 4.89761C4.93147 5.28236 4.67787 5.81934 4.64893 6.39078V9.58609H6.39502V7.94254C6.39502 7.39142 6.54866 7.0679 6.75732 6.88101C6.9671 6.69332 7.24166 6.63498 7.49951 6.63492H10.2827C10.5388 6.63496 10.8127 6.69184 11.022 6.87906C11.2302 7.06543 11.3833 7.38937 11.3833 7.94254V9.58609H12.7437V7.94254C12.7437 7.39114 12.8976 7.06689 13.106 6.88004C13.3154 6.69248 13.5893 6.63492 13.8452 6.63492H16.6499C16.9061 6.63492 17.1798 6.69177 17.3892 6.87906C17.5975 7.06541 17.7515 7.38921 17.7515 7.94254V9.58609H19.3511V6.39078Z" fill="white" stroke="white" stroke-width="0.1"/>
</svg>
