<svg width="23" height="21" viewBox="0 0 23 21" fill="none" xmlns="http://www.w3.org/2000/svg">
<path d="M10.8788 20.5577C10.7776 20.5577 10.6763 20.5164 10.6051 20.4414C10.5226 20.3514 8.53882 18.2364 8.53882 15.5664C8.53882 12.8964 10.5188 10.7814 10.6051 10.6914C10.6763 10.6164 10.7738 10.5752 10.8788 10.5752C10.9801 10.5752 11.0813 10.6164 11.1526 10.6914C11.2351 10.7814 13.2151 12.8964 13.2151 15.5664C13.2151 18.2364 11.2351 20.3514 11.1526 20.4414C11.0813 20.5164 10.9801 20.5577 10.8788 20.5577ZM10.8788 11.5314C10.3613 12.1877 9.29257 13.7627 9.29257 15.5664C9.29257 17.3702 10.3613 18.9452 10.8788 19.6014C11.3963 18.9452 12.4651 17.3702 12.4651 15.5664C12.4651 13.7627 11.3963 12.1877 10.8788 11.5314Z" fill="white"/>
<path d="M10.8674 20.5577C10.8187 20.5577 10.7737 20.5502 10.7249 20.5277C10.6124 20.4789 7.94616 19.3389 6.87366 16.8977C6.69741 16.4964 6.56616 16.0689 6.48366 15.6227C6.10491 13.5789 6.77241 11.6814 6.80241 11.6027C6.83616 11.5052 6.91116 11.4264 7.00491 11.3852C7.09866 11.3439 7.20741 11.3439 7.30116 11.3814C7.34991 11.4039 8.55366 11.9139 9.67866 12.9752C9.82866 13.1177 9.83616 13.3539 9.69366 13.5039C9.55116 13.6539 9.31491 13.6614 9.16491 13.5189C8.50491 12.8964 7.80741 12.4764 7.38741 12.2552C7.22241 12.8852 6.97491 14.1639 7.21866 15.4802C7.29366 15.8702 7.40616 16.2452 7.55991 16.5939C8.44491 18.6077 10.6537 19.6727 10.9762 19.8189C11.1337 19.8639 11.2462 20.0064 11.2462 20.1752C11.2462 20.2989 11.1824 20.4227 11.0774 20.4902C11.0137 20.5352 10.9424 20.5577 10.8674 20.5577Z" fill="white"/>
<path d="M9.4275 20.6777C8.37 20.6777 6.95625 20.4977 5.7225 19.7327C3.4575 18.3265 2.7 15.5252 2.67 15.4052C2.64375 15.304 2.65875 15.199 2.715 15.1127C2.7675 15.0265 2.8575 14.9627 2.95875 14.944C3.04125 14.929 5.00625 14.5315 6.975 15.1952C7.17 15.2627 7.275 15.4727 7.21125 15.6715C7.1475 15.8702 6.93 15.9715 6.735 15.9077C5.47125 15.4802 4.17375 15.544 3.52875 15.619C3.81375 16.4027 4.59 18.1427 6.12 19.0952C7.94625 20.2277 10.2562 19.9127 10.7737 19.8227C11.0025 19.7552 11.2537 19.939 11.2537 20.1827C11.2537 20.3365 11.16 20.4715 11.0287 20.5277C11.0025 20.539 10.9725 20.5502 10.9425 20.554C10.7287 20.5915 10.1625 20.6777 9.4275 20.6777Z" fill="white"/>
<path d="M10.8787 20.5577C10.8074 20.5577 10.7324 20.5352 10.6724 20.494C10.5674 20.4227 10.5037 20.3065 10.5037 20.1827C10.5037 20.014 10.6162 19.8677 10.7699 19.8227C11.0812 19.6802 13.3012 18.6152 14.1899 16.5977C14.3437 16.249 14.4562 15.874 14.5274 15.484C14.7712 14.1715 14.5237 12.8927 14.3587 12.2627C13.9424 12.484 13.2412 12.904 12.5812 13.5265C12.4312 13.669 12.1912 13.6615 12.0524 13.5115C11.9099 13.3615 11.9174 13.1252 12.0674 12.9827C13.1924 11.9215 14.3962 11.4077 14.4449 11.389C14.5387 11.3477 14.6474 11.3515 14.7412 11.3927C14.8349 11.434 14.9099 11.5127 14.9437 11.6102C14.9737 11.689 15.6412 13.5865 15.2624 15.6302C15.1799 16.0765 15.0487 16.504 14.8724 16.9052C13.7999 19.339 11.1374 20.4827 11.0212 20.5277C10.9762 20.5502 10.9274 20.5577 10.8787 20.5577Z" fill="white"/>
<path d="M12.3188 20.6777C11.5838 20.6777 11.0251 20.5915 10.8188 20.554C10.7776 20.5465 10.7326 20.5315 10.6913 20.509C10.5751 20.4452 10.4963 20.3215 10.4963 20.179C10.4963 19.9727 10.6613 19.804 10.8713 19.804H10.8751C10.9126 19.804 10.9501 19.8077 10.9838 19.819C11.5313 19.9127 13.8226 20.2165 15.6338 19.0915C17.1713 18.139 17.9438 16.399 18.2251 15.6152C17.5801 15.544 16.2826 15.4765 15.0188 15.904C14.8238 15.9715 14.6101 15.8665 14.5426 15.6677C14.4751 15.469 14.5801 15.259 14.7788 15.1915C16.7476 14.5277 18.7126 14.9215 18.7951 14.9402C18.8963 14.9627 18.9826 15.0227 19.0388 15.109C19.0913 15.1952 19.1101 15.3002 19.0838 15.4015C19.0538 15.5215 18.2963 18.319 16.0313 19.7252C14.7938 20.4977 13.3763 20.6777 12.3188 20.6777Z" fill="white"/>
<path d="M1.8375 10.275C0.825 10.275 0 9.57 0 8.7C0 7.83 0.825 7.125 1.8375 7.125C2.85 7.125 3.675 7.83 3.675 8.7C3.675 9.57 2.85375 10.275 1.8375 10.275ZM1.8375 7.875C1.2375 7.875 0.75 8.24625 0.75 8.7C0.75 9.15375 1.2375 9.525 1.8375 9.525C2.4375 9.525 2.925 9.15375 2.925 8.7C2.925 8.24625 2.4375 7.875 1.8375 7.875Z" fill="white"/>
<path d="M3.30386 3.46125C3.16511 3.46125 3.03011 3.3825 2.96636 3.2475C2.87261 3.06375 2.95136 2.83875 3.13886 2.74875L8.75261 0.037502C8.94011 -0.052498 9.16136 0.0262519 9.25136 0.213752C9.34136 0.401252 9.26261 0.622502 9.07511 0.712502L3.46136 3.42375C3.41261 3.45 3.35636 3.46125 3.30386 3.46125Z" fill="white"/>
<path d="M3.30005 9.07499C3.0938 9.07499 2.92505 8.90624 2.92505 8.69999V3.08624C2.92505 2.87999 3.0938 2.71124 3.30005 2.71124C3.5063 2.71124 3.67505 2.87999 3.67505 3.08624V8.69999C3.67505 8.90999 3.51005 9.07499 3.30005 9.07499Z" fill="white"/>
<path d="M7.45493 10.275C6.44243 10.275 5.61743 9.57 5.61743 8.7C5.61743 7.83 6.44243 7.125 7.45493 7.125C8.46743 7.125 9.29243 7.83 9.29243 8.7C9.29243 9.57 8.46743 10.275 7.45493 10.275ZM7.45493 7.875C6.85493 7.875 6.36743 8.24625 6.36743 8.7C6.36743 9.15375 6.85493 9.525 7.45493 9.525C8.05493 9.525 8.54243 9.15375 8.54243 8.7C8.54243 8.24625 8.05493 7.875 7.45493 7.875Z" fill="white"/>
<path d="M8.91748 9.075C8.71123 9.075 8.54248 8.90625 8.54248 8.7V0.375C8.54248 0.16875 8.71123 0 8.91748 0C9.12373 0 9.29248 0.16875 9.29248 0.375V8.70375C9.29248 8.91 9.12373 9.075 8.91748 9.075Z" fill="white"/>
<path d="M17.0925 11.6888C16.8938 11.6888 16.6988 11.655 16.5188 11.5838C16.155 11.4413 15.8813 11.1638 15.7688 10.8188C15.5438 10.125 16.0125 9.34878 16.815 9.09003C17.6175 8.82753 18.4538 9.18378 18.6788 9.87378C18.9038 10.5675 18.435 11.3438 17.6325 11.6025C17.4525 11.6625 17.2725 11.6888 17.0925 11.6888ZM17.355 9.75378C17.2538 9.75378 17.1525 9.76878 17.0475 9.80253C16.6463 9.93378 16.3875 10.2938 16.4813 10.5863C16.5375 10.7625 16.6988 10.8488 16.7888 10.8863C16.9688 10.9575 17.19 10.9575 17.4 10.89C17.8013 10.7588 18.06 10.3988 17.9663 10.1063C17.895 9.88503 17.6438 9.75378 17.355 9.75378Z" fill="white"/>
<path d="M16.9576 6.15002C16.8601 6.15002 16.7589 6.11252 16.6876 6.03377C16.5451 5.88377 16.5489 5.64752 16.6989 5.50502L20.2539 2.10377C20.4039 1.96127 20.6401 1.96502 20.7826 2.11502C20.9251 2.26502 20.9214 2.50127 20.7714 2.64377L17.2164 6.04502C17.1414 6.11627 17.0514 6.15002 16.9576 6.15002Z" fill="white"/>
<path d="M18.3225 10.365C18.165 10.365 18.0188 10.2638 17.9663 10.1063L16.6013 5.89127C16.5375 5.69252 16.6463 5.48252 16.8413 5.41877C17.04 5.35502 17.25 5.46377 17.3138 5.65877L18.6788 9.87377C18.7425 10.0725 18.6338 10.2825 18.4388 10.3463C18.4013 10.3575 18.36 10.365 18.3225 10.365Z" fill="white"/>
<path d="M21.3114 10.3238C20.7039 10.3238 20.1601 9.99002 19.9839 9.45377C19.7589 8.76002 20.2276 7.98377 21.0301 7.72502C21.4051 7.60127 21.8026 7.60877 22.1439 7.74377C22.5076 7.88627 22.7814 8.16377 22.8939 8.50877C23.0064 8.85377 22.9501 9.24002 22.7364 9.57002C22.5376 9.88127 22.2189 10.1175 21.8439 10.2413C21.6676 10.2938 21.4876 10.3238 21.3114 10.3238ZM21.5701 8.38502C21.4689 8.38502 21.3639 8.40002 21.2626 8.43377C20.8614 8.56502 20.6026 8.92502 20.6964 9.21752C20.7939 9.51377 21.2139 9.65252 21.6151 9.52127C21.8251 9.45377 22.0014 9.32252 22.1064 9.16127C22.1589 9.07877 22.2376 8.91752 22.1814 8.73752C22.1251 8.56127 21.9639 8.47502 21.8739 8.43752C21.7801 8.40377 21.6789 8.38502 21.5701 8.38502Z" fill="white"/>
<path d="M22.5374 9.00002C22.3799 9.00002 22.2337 8.89877 22.1812 8.74127L20.1562 2.49002C20.0924 2.29127 20.2012 2.08127 20.3962 2.01752C20.5949 1.95377 20.8049 2.06252 20.8687 2.25752L22.8937 8.50877C22.9574 8.70752 22.8487 8.91752 22.6537 8.98127C22.6162 8.99252 22.5749 9.00002 22.5374 9.00002Z" fill="white"/>
<path d="M12.4012 8.6925C12.2925 8.6925 12.1875 8.67749 12.0862 8.64749C11.805 8.56499 11.5837 8.3775 11.4787 8.12625C11.265 7.62749 11.5537 7.0275 12.12 6.78375C12.3825 6.67125 12.6675 6.6525 12.9225 6.7275C13.2037 6.81 13.425 6.99749 13.53 7.24874C13.7437 7.74749 13.455 8.34749 12.8887 8.58749C12.7312 8.65874 12.5625 8.6925 12.4012 8.6925ZM12.6037 7.43249C12.54 7.43249 12.4725 7.4475 12.4087 7.47375C12.2175 7.55625 12.12 7.72874 12.165 7.82999C12.1912 7.88999 12.255 7.91624 12.2925 7.92749C12.3825 7.95374 12.4912 7.94249 12.5925 7.90124C12.7837 7.81874 12.8812 7.64624 12.8362 7.54499C12.81 7.48499 12.7462 7.45875 12.7087 7.4475C12.6787 7.44 12.6412 7.43249 12.6037 7.43249Z" fill="white"/>
<path d="M13.1813 7.77375C13.035 7.77375 12.8963 7.6875 12.8363 7.545L11.6475 4.7625C11.595 4.63875 11.6138 4.49625 11.6925 4.39125L12.5475 3.2475C12.6713 3.0825 12.9075 3.04875 13.0725 3.1725C13.2375 3.29625 13.2713 3.5325 13.1475 3.6975L12.4238 4.665L13.53 7.2525C13.6125 7.44375 13.5225 7.66125 13.3313 7.74375C13.2825 7.7625 13.2338 7.77375 13.1813 7.77375Z" fill="white"/>
</svg>
