<svg width="24" height="24" viewBox="0 0 24 24" fill="none" xmlns="http://www.w3.org/2000/svg">
<path d="M8.4668 3.28465C8.56429 3.28465 8.66869 3.32653 8.71582 3.41843H8.7168C8.77342 3.51764 8.7743 3.62107 8.71582 3.71043L8.39844 4.26414H15.9844L15.667 3.7114L15.666 3.70945C15.6221 3.62168 15.623 3.52051 15.665 3.42234L15.668 3.41648L15.7197 3.35789C15.7781 3.30855 15.8543 3.28473 15.9287 3.28465H17.4756C18.5515 3.28465 19.4304 4.15072 19.4307 5.23972V21.0669C19.4306 22.1557 18.5518 23.0346 17.4756 23.0346H6.91992C5.84385 23.0344 4.96492 22.1556 4.96484 21.0669V5.23972C4.96506 4.15086 5.84424 3.28486 6.91992 3.28465H8.4668ZM6.88574 3.85886C6.14817 3.87774 5.551 4.49711 5.55078 5.23972V21.0669C5.55086 21.8337 6.1664 22.4495 6.91992 22.4497H17.4756C18.2293 22.4497 18.8456 21.8339 18.8457 21.0669V5.23972C18.8455 4.48595 18.2294 3.87058 17.4756 3.87058H16.4277L16.7461 4.42332H16.7451C16.803 4.51134 16.8027 4.6145 16.7451 4.70261C16.687 4.80426 16.5983 4.85007 16.4961 4.85007H7.89941C7.80205 4.84996 7.6984 4.80792 7.65137 4.70457C7.59241 4.61562 7.59212 4.51023 7.65137 4.42136L7.95703 3.87058H6.88574V3.85886Z" fill="white" stroke="white" stroke-width="0.07"/>
<path d="M12.604 7.02237C12.7651 7.02237 12.897 7.15424 12.897 7.31534V8.06631H13.6479C13.809 8.06631 13.9409 8.19818 13.9409 8.35928V9.35147C13.9409 9.51257 13.809 9.64444 13.6479 9.64444H12.897V10.3954C12.897 10.5565 12.7651 10.6884 12.604 10.6884H11.6118C11.4507 10.6884 11.3188 10.5565 11.3188 10.3954V9.64444H10.5679C10.4068 9.64444 10.2749 9.51257 10.2749 9.35147V8.35928C10.2749 8.19818 10.4068 8.06631 10.5679 8.06631H11.3188V7.31534C11.3188 7.15424 11.4507 7.02237 11.6118 7.02237H12.604ZM11.9048 8.35928C11.9048 8.52034 11.7729 8.65222 11.6118 8.65225H10.8608V9.0585H11.6118C11.7728 9.05853 11.9047 9.19045 11.9048 9.35147V10.1024H12.311V9.35147C12.3111 9.19048 12.443 9.05858 12.604 9.0585H13.355V8.65225H12.604C12.443 8.65218 12.3111 8.52031 12.311 8.35928V7.60831H11.9048V8.35928Z" fill="white" stroke="white" stroke-width="0.07"/>
<path d="M12.1008 5.92671C13.7309 5.92671 15.0488 7.24391 15.0491 8.86128C15.0491 10.4788 13.7311 11.7968 12.1008 11.7968C10.4836 11.7966 9.16626 10.4786 9.16626 8.86128C9.16648 7.24415 10.4837 5.92693 12.1008 5.92671ZM12.1008 6.51265C10.8059 6.51287 9.75242 7.56635 9.7522 8.86128C9.7522 10.1564 10.8058 11.2107 12.1008 11.2109C13.4091 11.2109 14.4631 10.1564 14.4631 8.86128C14.4629 7.56634 13.409 6.51265 12.1008 6.51265Z" fill="white" stroke="white" stroke-width="0.07"/>
<path d="M15.8257 19.8457C15.9868 19.8457 16.1187 19.9776 16.1187 20.1387C16.1186 20.2997 15.9868 20.4316 15.8257 20.4316H8.55713C8.39605 20.4316 8.26419 20.2997 8.26416 20.1387C8.26416 19.9776 8.39603 19.8457 8.55713 19.8457H15.8257Z" fill="white" stroke="white" stroke-width="0.07"/>
<path d="M15.8257 16.83C15.9868 16.83 16.1187 16.9619 16.1187 17.123C16.1186 17.2841 15.9868 17.4159 15.8257 17.4159H8.55713C8.39605 17.4159 8.26419 17.2841 8.26416 17.123C8.26416 16.9619 8.39603 16.83 8.55713 16.83H15.8257Z" fill="white" stroke="white" stroke-width="0.07"/>
<path d="M15.8257 13.8012C15.9868 13.8012 16.1187 13.9331 16.1187 14.0942C16.1186 14.2553 15.9868 14.3872 15.8257 14.3872H8.55713C8.39605 14.3872 8.26419 14.2553 8.26416 14.0942C8.26416 13.9331 8.39603 13.8012 8.55713 13.8012H15.8257Z" fill="white" stroke="white" stroke-width="0.07"/>
<path d="M12.1919 0.964844C12.8042 0.964983 13.3139 1.38819 13.4438 1.95703H15.1685C15.2698 1.95703 15.3728 2.01422 15.4185 2.10352L16.7319 4.38281L16.771 4.46289C16.7818 4.49347 16.7885 4.52641 16.7886 4.55664C16.7886 4.71762 16.6575 4.84941 16.4966 4.84961H7.8999C7.80098 4.84961 7.69499 4.80709 7.64893 4.7002V4.69922C7.59281 4.61072 7.59414 4.50898 7.6499 4.41113L8.96533 2.10352L8.96631 2.10156C9.0232 2.01636 9.11062 1.95712 9.22705 1.95703H10.9409C11.0832 1.3888 11.5917 0.964844 12.1919 0.964844ZM12.1919 1.55078C11.8117 1.55078 11.4918 1.86986 11.4917 2.25C11.4917 2.4111 11.3598 2.54297 11.1987 2.54297H9.39014L8.39893 4.26465H15.9858L15.0063 2.54297H13.1841C13.023 2.54297 12.8911 2.4111 12.8911 2.25C12.891 1.86956 12.5844 1.55095 12.1919 1.55078Z" fill="white" stroke="white" stroke-width="0.07"/>
</svg>
