<svg width="24" height="24" viewBox="0 0 24 24" fill="none" xmlns="http://www.w3.org/2000/svg">
<path d="M11.5437 1.99072C12.4829 1.99072 13.3404 2.3639 13.9578 3.04053C14.5536 3.6935 14.8816 4.57677 14.8816 5.52686C14.8816 5.9831 14.716 6.56121 14.3894 7.25439C14.0626 7.94798 13.5734 8.75924 12.9255 9.68311C12.7673 9.90884 12.6029 10.1363 12.4373 10.3589H12.4363L12.4304 10.3647L12.4314 10.3657C12.1003 10.81 11.8714 11.0914 11.8611 11.104C11.8228 11.1511 11.7743 11.1892 11.7195 11.2153C11.6647 11.2414 11.6044 11.2544 11.5437 11.2544C11.4832 11.2543 11.4235 11.2412 11.3689 11.2153C11.3142 11.1893 11.2656 11.151 11.2273 11.104C11.2175 11.092 10.9886 10.8104 10.657 10.3657V10.3667C10.6545 10.3637 10.6523 10.3602 10.6501 10.3569V10.356C10.4847 10.1342 10.3206 9.90794 10.1628 9.68311C9.51438 8.75905 9.02474 7.94801 8.698 7.25439C8.37147 6.5612 8.20582 5.98322 8.20581 5.52686C8.20581 4.57693 8.53373 3.6937 9.12964 3.04053C9.74695 2.36396 10.6046 1.99078 11.5437 1.99072ZM11.5437 2.80908C10.1086 2.8092 9.02515 3.97533 9.02515 5.52686C9.02515 5.88083 9.18337 6.38513 9.48999 7.01123C9.79625 7.63657 10.2488 8.38076 10.8328 9.21338C10.9838 9.43007 11.1423 9.64792 11.3015 9.86182H11.3005L11.3064 9.86963H11.3074C11.3934 9.98527 11.4734 10.0896 11.5437 10.1812C11.6141 10.0895 11.6948 9.98545 11.781 9.86963L11.7869 9.86182L12.2556 9.21338C12.8394 8.3803 13.2923 7.63643 13.5984 7.01123C13.9049 6.38518 14.0632 5.88087 14.0632 5.52686C14.0632 3.97526 12.979 2.80908 11.5437 2.80908Z" fill="white" stroke="white" stroke-width="0.05"/>
<path d="M11.2058 3.59717C11.5422 3.5303 11.8909 3.56549 12.2078 3.69678C12.5246 3.82808 12.7956 4.05023 12.9861 4.33545C13.1766 4.62066 13.2781 4.95633 13.2781 5.29932C13.2775 5.75894 13.0943 6.19991 12.7693 6.5249C12.4442 6.84974 12.0033 7.03226 11.5437 7.03271C11.2009 7.03266 10.8659 6.93112 10.5808 6.74072C10.2957 6.5502 10.0734 6.2792 9.94214 5.9624C9.8109 5.64554 9.77661 5.29683 9.84351 4.96045C9.91044 4.62403 10.0755 4.31431 10.3181 4.07178C10.5606 3.82946 10.8696 3.66402 11.2058 3.59717ZM11.5437 4.38232C11.3626 4.38238 11.1855 4.43606 11.0349 4.53662C10.8843 4.63725 10.7664 4.78043 10.697 4.94775C10.6277 5.11518 10.6099 5.30029 10.6453 5.47803C10.6807 5.65563 10.7682 5.81872 10.8962 5.94678C11.0243 6.07483 11.1874 6.16238 11.365 6.19775C11.5427 6.2331 11.7269 6.21431 11.8943 6.14502C12.0616 6.07572 12.2047 5.95863 12.3054 5.80811C12.406 5.65755 12.4606 5.48039 12.4607 5.29932C12.4604 5.05635 12.3629 4.8227 12.1912 4.65088C12.0194 4.47929 11.7865 4.38263 11.5437 4.38232Z" fill="white" stroke="white" stroke-width="0.05"/>
<path d="M3.13013 7.90869L9.08911 8.92236C9.18437 8.93855 9.27093 8.98818 9.33325 9.06201C9.39547 9.13582 9.42997 9.22915 9.42993 9.32568V21.6001C9.4299 21.7085 9.38649 21.8125 9.30981 21.8892C9.25227 21.9467 9.17947 21.9858 9.10083 22.0015L9.02075 22.0093C8.99786 22.0093 8.97495 22.0074 8.95239 22.0034L2.99341 20.9897C2.89822 20.9736 2.81157 20.9239 2.74927 20.8501C2.68714 20.7764 2.65261 20.6828 2.65259 20.5864V8.31201C2.65262 8.25268 2.66573 8.19397 2.69067 8.14014C2.71573 8.08615 2.75263 8.03792 2.7981 7.99951C2.84353 7.96117 2.897 7.93314 2.95435 7.91748C3.01159 7.90187 3.07162 7.89881 3.13013 7.90869ZM3.47095 20.2407L8.61157 21.1147V9.66943L3.47095 8.79639V20.2407Z" fill="white" stroke="white" stroke-width="0.05"/>
<path d="M15.0476 7.90869L21.0066 8.92236C21.1018 8.93855 21.1884 8.98818 21.2507 9.06201C21.313 9.13582 21.3474 9.22915 21.3474 9.32568V21.6001C21.3474 21.7085 21.304 21.8125 21.2273 21.8892C21.1697 21.9467 21.097 21.9858 21.0183 22.0015L20.9382 22.0093C20.9153 22.0093 20.8924 22.0074 20.8699 22.0034L14.9109 20.9897C14.8157 20.9736 14.7291 20.9239 14.6667 20.8501C14.6046 20.7764 14.5701 20.6828 14.5701 20.5864V8.31201C14.5701 8.25268 14.5832 8.19397 14.6082 8.14014C14.6332 8.08615 14.6701 8.03792 14.7156 7.99951C14.761 7.96117 14.8145 7.93314 14.8718 7.91748C14.9291 7.90187 14.9891 7.89881 15.0476 7.90869ZM15.3884 20.2407L20.5291 21.1147V9.66943L15.3884 8.79639V20.2407Z" fill="white" stroke="white" stroke-width="0.05"/>
<path d="M15.0869 7.91772C15.1442 7.93335 15.1977 7.96148 15.2432 7.99976C15.2887 8.03817 15.3255 8.08637 15.3506 8.14038C15.3756 8.19425 15.3886 8.25287 15.3887 8.31226V20.5867C15.3886 20.6832 15.3543 20.7766 15.292 20.8503C15.2297 20.9241 15.1431 20.9738 15.0479 20.99L9.08984 22.0027C9.06715 22.0065 9.04353 22.0085 9.02051 22.0085C8.91214 22.0085 8.80809 21.966 8.73145 21.8894C8.65482 21.8128 8.61141 21.7087 8.61133 21.6003V9.32593C8.61129 9.22931 8.64568 9.13511 8.70801 9.06128C8.7703 8.98757 8.85701 8.9388 8.95215 8.92261L10.1982 8.71167L10.2783 8.70386C10.3055 8.70412 10.3327 8.70795 10.3594 8.71362C10.4125 8.72494 10.4632 8.7461 10.5078 8.7771C10.5525 8.80811 10.59 8.84841 10.6191 8.89429C10.6483 8.94014 10.6686 8.99113 10.6777 9.04468C10.6868 9.09816 10.6851 9.15297 10.6729 9.20581C10.6605 9.25877 10.6374 9.30922 10.6055 9.35327C10.5737 9.39715 10.5336 9.43444 10.4873 9.46265C10.4409 9.4909 10.3887 9.50827 10.335 9.51636L10.3359 9.51733L9.42969 9.67163V21.113L14.5703 20.24V8.79468L13.2129 9.02612L13.2119 9.02515C13.1582 9.03783 13.1023 9.04046 13.0479 9.03101C12.9927 9.02138 12.9403 9.00024 12.8936 8.96948C12.8467 8.93864 12.8061 8.89828 12.7754 8.85132C12.7449 8.80456 12.7243 8.75203 12.7148 8.69702C12.7054 8.64172 12.7073 8.5845 12.7207 8.53003C12.7341 8.47562 12.759 8.4242 12.793 8.37964C12.8269 8.33516 12.8701 8.29854 12.9189 8.27124C12.9675 8.24414 13.0209 8.22715 13.0762 8.22144L14.9111 7.90894C14.9696 7.899 15.0297 7.90217 15.0869 7.91772Z" fill="white" stroke="white" stroke-width="0.05"/>
</svg>
