<svg width="23" height="22" viewBox="0 0 23 22" fill="none" xmlns="http://www.w3.org/2000/svg">
<path d="M21.8643 9.97968C22.4653 9.97974 22.9539 10.4685 22.9541 11.0695C22.9541 11.6744 22.4653 12.1603 21.8643 12.1603H6.57129C5.97019 12.1601 5.48145 11.6707 5.48145 11.0695C5.48164 10.4685 5.97032 9.97987 6.57129 9.97968H21.8643ZM6.57129 10.7746C6.40667 10.7748 6.27247 10.9088 6.27246 11.0734C6.27246 11.2381 6.40667 11.3721 6.57129 11.3723H21.8643C22.029 11.3722 22.1631 11.2382 22.1631 11.0734C22.1631 10.9087 22.029 10.7747 21.8643 10.7746H6.57129Z" fill="white" stroke="white" stroke-width="0.1"/>
<path d="M14.2178 2.73602C18.4319 2.73602 21.8603 6.16445 21.8604 10.3786C21.8604 10.5947 21.6852 10.7741 21.4648 10.7741C21.2449 10.774 21.0693 10.5986 21.0693 10.3786C21.0693 6.60092 17.9955 3.52704 14.2178 3.52704C10.4401 3.52705 7.36622 6.60093 7.36621 10.3786C7.36621 10.5986 7.19068 10.7741 6.9707 10.7741C6.75069 10.7741 6.5752 10.5986 6.5752 10.3786C6.57521 6.16446 10.0036 2.73603 14.2178 2.73602Z" fill="white" stroke="white" stroke-width="0.1"/>
<path d="M14.218 1.62793C14.438 1.62798 14.6135 1.80345 14.6135 2.02344V3.13184C14.6133 3.34775 14.4382 3.52729 14.218 3.52734C13.9981 3.52734 13.8227 3.35167 13.8225 3.13184V2.02344C13.8225 1.80342 13.998 1.62793 14.218 1.62793Z" fill="white" stroke="white" stroke-width="0.1"/>
<path d="M15.2942 1.62445C15.514 1.62465 15.6897 1.80006 15.6897 2.01996C15.6896 2.23981 15.514 2.41527 15.2942 2.41547H13.1418C12.9219 2.41547 12.7464 2.23993 12.7463 2.01996C12.7463 1.79994 12.9218 1.62445 13.1418 1.62445H15.2942Z" fill="white" stroke="white" stroke-width="0.1"/>
<path d="M19.8655 1.04129C20.0446 0.919256 20.2936 0.963878 20.4163 1.14383C20.7598 1.64813 20.5775 2.10984 20.4495 2.42996C20.3849 2.59325 20.3484 2.70076 20.3411 2.78836C20.3342 2.87091 20.3538 2.93781 20.4124 3.02078C20.5389 3.2005 20.4933 3.44552 20.3147 3.57156L20.3137 3.57059C20.2476 3.61976 20.1663 3.64481 20.0891 3.64481C19.968 3.64466 19.8413 3.58822 19.7668 3.47684C19.3945 2.94753 19.5873 2.47112 19.7151 2.1409L19.7883 1.94266C19.8061 1.88766 19.8171 1.84182 19.8215 1.80106C19.8298 1.72491 19.8148 1.66522 19.7639 1.59207H19.7629C19.6409 1.41291 19.6855 1.16399 19.8655 1.04129Z" fill="white" stroke="white" stroke-width="0.1"/>
<path d="M18.4678 0.0804443C18.637 0.00978045 18.8409 0.0636754 18.9482 0.221069C19.2918 0.725374 19.1095 1.18708 18.9814 1.5072C18.9168 1.67049 18.8804 1.778 18.873 1.8656C18.8662 1.94815 18.8858 2.01505 18.9443 2.09802C19.0708 2.27774 19.0253 2.52276 18.8467 2.6488C18.778 2.69726 18.6996 2.72205 18.6211 2.72205C18.4999 2.7219 18.3733 2.66546 18.2988 2.55408C17.9265 2.02477 18.1192 1.54836 18.2471 1.21814L18.3193 1.0199C18.3368 0.964956 18.3483 0.919018 18.3525 0.878296C18.3604 0.802052 18.3443 0.74257 18.2949 0.669312V0.668335C18.1697 0.488998 18.2142 0.240918 18.3975 0.11853L18.4678 0.0804443Z" fill="white" stroke="white" stroke-width="0.1"/>
<path d="M3.6499 12.784C3.86985 12.7841 4.04541 12.9596 4.04541 13.1795V20.4373C4.04539 20.6573 3.86984 20.8328 3.6499 20.8329H0.446777C0.337221 20.8329 0.23085 20.7882 0.156738 20.7059C0.0845163 20.6257 0.0431428 20.5201 0.0512695 20.409L0.574707 13.1512V13.1502C0.591141 12.9429 0.76242 12.7841 0.970215 12.784H3.6499ZM0.870605 20.0418H3.25439V13.575H1.34131L0.870605 20.0418Z" fill="white" stroke="white" stroke-width="0.1"/>
<path d="M6.36084 13.5785C6.5796 13.5785 6.79267 13.6111 6.99756 13.6752L7.20068 13.7494L9.39502 14.6937C9.56362 14.766 9.73881 14.804 9.92041 14.8041H11.6489C12.5315 14.8042 13.2484 15.5211 13.2485 16.4037C13.2485 17.2864 12.5316 18.0042 11.6489 18.0043H9.0874C8.86739 18.0043 8.69092 17.8278 8.69092 17.6078C8.69113 17.388 8.86752 17.2123 9.0874 17.2123H11.6489C12.0951 17.2122 12.4575 16.8499 12.4575 16.4037C12.4574 15.9576 12.0951 15.5952 11.6489 15.5951H9.92041C9.63227 15.5951 9.34766 15.5372 9.08154 15.4242V15.4232L6.88623 14.4799C6.71762 14.4076 6.54245 14.3695 6.36084 14.3695H3.6499C3.42992 14.3695 3.25444 14.194 3.25439 13.974C3.25439 13.754 3.42988 13.5785 3.6499 13.5785H6.36084Z" fill="white" stroke="white" stroke-width="0.1"/>
<path d="M18.697 15.0476C19.3627 14.9072 20.0425 15.2841 20.2791 15.9236C20.3342 16.0744 20.3679 16.2407 20.3679 16.4041C20.3679 16.9659 20.0306 17.469 19.5095 17.6833L11.447 20.9998C11.2059 21.0984 10.9463 21.1501 10.6833 21.1501C10.5264 21.1501 10.3693 21.1319 10.2126 21.0955H10.2117L5.28394 19.905C5.21753 19.8884 5.14994 19.8816 5.07104 19.8816L3.65405 19.907H3.65308C3.43866 19.9068 3.25501 19.7366 3.25073 19.5193C3.24666 19.2992 3.42207 19.1191 3.63843 19.115L5.0603 19.0906L5.26929 19.1023C5.33683 19.1101 5.40255 19.1217 5.46558 19.1384H5.4646L10.3875 20.324C10.6411 20.3822 10.9054 20.3622 11.1453 20.2664L19.2078 16.949C19.4281 16.8569 19.5759 16.6362 19.5759 16.4001C19.5759 16.3347 19.5633 16.2596 19.5378 16.199L19.5369 16.197C19.4476 15.9551 19.2145 15.8019 18.9666 15.8093L18.8601 15.822L12.8884 17.073C12.6761 17.1179 12.4647 16.9793 12.4197 16.7673C12.3747 16.5549 12.5132 16.3425 12.7253 16.2976L18.697 15.0476Z" fill="white" stroke="white" stroke-width="0.1"/>
</svg>
