<svg width="22" height="21" viewBox="0 0 22 21" fill="none" xmlns="http://www.w3.org/2000/svg">
<path d="M19.7114 15.505C19.9121 15.41 20.0633 15.2425 20.1382 15.0333C20.2128 14.8243 20.2018 14.5992 20.1069 14.3986C19.9111 13.9847 19.4146 13.8074 18.9995 14.0031L13.3354 16.6827C13.3211 16.7671 13.3021 16.8523 13.272 16.9366C13.0476 17.5637 12.4552 17.9551 11.8247 17.9552C11.6535 17.9552 11.4792 17.9261 11.3091 17.8654L8.2915 16.7872C8.0848 16.7135 7.97755 16.4859 8.05127 16.2794C8.12514 16.0727 8.35327 15.965 8.55908 16.0392L11.5767 17.1173C11.9625 17.2547 12.3862 17.0537 12.5239 16.6691L12.5454 16.5968C12.6351 16.2326 12.4362 15.8507 12.0757 15.7218L8.77686 14.5431C8.72658 14.5254 8.67585 14.5036 8.62744 14.4806L6.21826 13.3195C5.61538 13.0292 4.92338 13.0274 4.31885 13.3136H4.31787L0.617676 15.0656C0.419692 15.1599 0.182389 15.0748 0.0883789 14.8761C-0.00547816 14.6779 0.0794409 14.4407 0.277832 14.3468L3.979 12.5958C4.80126 12.2065 5.74319 12.2097 6.56299 12.6046L8.97119 13.7648C8.99364 13.7755 9.01785 13.7852 9.04248 13.7941L12.3433 14.9747C12.7728 15.1285 13.084 15.4575 13.2417 15.8497L18.6597 13.2843C19.0519 13.0984 19.4941 13.0767 19.9028 13.2228C20.3117 13.3688 20.639 13.6663 20.8247 14.0587C21.0104 14.4511 21.0324 14.8923 20.8862 15.3009C20.7401 15.7096 20.4435 16.037 20.0513 16.2228L12.0845 19.9943C11.8665 20.0975 11.627 20.1495 11.3872 20.1495C11.2707 20.1495 11.154 20.1376 11.0396 20.1124L3.94385 18.5509L2.57471 19.2003C2.37668 19.2942 2.13946 19.2096 2.04541 19.0109C1.95158 18.8127 2.03648 18.5754 2.23486 18.4816L3.72705 17.7755L3.78857 17.7521C3.85156 17.7341 3.91848 17.7321 3.98291 17.7462L11.2104 19.337C11.3891 19.376 11.5788 19.3538 11.7446 19.2755L19.7114 15.505Z" fill="white" stroke="white" stroke-width="0.1"/>
<path d="M13.6228 0.0501709C14.0476 0.0501709 14.3933 0.395866 14.3933 0.820679V3.8822H17.4548C17.8797 3.8822 18.2252 4.22799 18.2253 4.65271V8.19275C18.2253 8.61757 17.8798 8.96326 17.4548 8.96326H14.3933V12.0248C14.3933 12.4496 14.0476 12.7953 13.6228 12.7953H10.0828C9.65805 12.7952 9.31226 12.4495 9.31226 12.0248V8.96326H6.25073C5.82576 8.96326 5.48022 8.61757 5.48022 8.19275V4.65271C5.48034 4.22799 5.82583 3.8822 6.25073 3.8822H9.31226V0.820679C9.31226 0.395938 9.65805 0.0502894 10.0828 0.0501709H13.6228ZM10.1072 3.90662C10.1069 4.33129 9.76121 4.67697 9.33667 4.67712H6.27417V8.16931H9.33667C9.76136 8.16946 10.1072 8.5151 10.1072 8.93982V12.0013H13.5994V8.93982C13.5994 8.515 13.9449 8.16931 14.3699 8.16931H17.4314V4.67712H14.3699C13.945 4.67712 13.5996 4.33139 13.5994 3.90662V0.844116H10.1072V3.90662Z" fill="white" stroke="white" stroke-width="0.1"/>
</svg>
