<svg width="24" height="24" viewBox="0 0 24 24" fill="none" xmlns="http://www.w3.org/2000/svg">
<mask id="path-1-outside-1_38_1511" maskUnits="userSpaceOnUse" x="1" y="1" width="23" height="23" fill="black">
<rect fill="white" x="1" y="1" width="23" height="23"/>
<path d="M22.3722 10.3694L20.1978 10.1445C20.0478 9.65406 19.8502 9.17758 19.6082 8.72317L20.9872 7.02598C21.2142 6.74654 21.1933 6.3441 20.9389 6.08963L18.9105 4.06124C18.6649 3.81548 18.2437 3.79394 17.9741 4.01289L16.277 5.39188C15.8225 5.14988 15.3461 4.95231 14.8556 4.80228L14.6307 2.62791C14.5935 2.27001 14.2943 2 13.9344 2H11.0657C10.7057 2 10.4065 2.27001 10.3694 2.62787L10.1445 4.80223C9.65406 4.95227 9.17758 5.14984 8.72317 5.39183L7.02598 4.01285C6.75663 3.79411 6.3354 3.81564 6.08963 4.0612L4.0612 6.08959C3.80691 6.34389 3.78591 6.74638 4.01285 7.02611L5.39183 8.72313C5.14984 9.17754 4.95227 9.65402 4.80223 10.1445L2.62787 10.3694C2.27001 10.4065 2 10.7057 2 11.0657V13.9344C2 14.2943 2.27001 14.5935 2.62787 14.6306L4.80223 14.8555C4.95227 15.346 5.14984 15.8225 5.39183 16.2769L4.01252 17.9742C3.78591 18.2537 3.80695 18.6561 4.06124 18.9104L6.08963 20.9388C6.33524 21.1842 6.75544 21.2066 7.02615 20.9872L8.72317 19.6082C9.17758 19.8502 9.65406 20.0477 10.1445 20.1978L10.3694 22.3721C10.4065 22.73 10.7057 23 11.0657 23H13.9344C14.2943 23 14.5935 22.73 14.6306 22.3721L14.8555 20.1978C15.346 20.0478 15.8225 19.8502 16.2769 19.6082L17.9742 20.9875C18.0986 21.0883 18.2552 21.1439 18.4153 21.1439C18.6025 21.1439 18.7781 21.0711 18.9104 20.9388L20.9388 18.9104C21.1933 18.656 21.2141 18.2535 20.9872 17.9741L19.6082 16.2769C19.8502 15.8225 20.0477 15.346 20.1978 14.8556L22.3721 14.6307C22.73 14.5936 23 14.2943 23 13.9344V11.0657C23 10.7057 22.73 10.4065 22.3722 10.3694ZM22.3 13.9344L19.8911 14.1836C19.7473 14.1984 19.6275 14.3001 19.5894 14.4396C19.4277 15.0322 19.1904 15.6046 18.884 16.1409C18.8122 16.2663 18.825 16.423 18.9163 16.5351L20.4439 18.4155L18.4156 20.4441L16.5353 18.9162C16.4231 18.8246 16.2662 18.8123 16.1409 18.8839C15.6046 19.1903 15.0322 19.4277 14.4396 19.5894C14.3001 19.6275 14.1984 19.7473 14.1836 19.891L13.9347 22.3H11.0657L10.8165 19.891C10.8016 19.7473 10.6999 19.6275 10.5605 19.5894C9.96779 19.4277 9.39546 19.1903 8.85918 18.8839C8.80516 18.853 8.7452 18.8378 8.68556 18.8378C8.60693 18.8378 8.52868 18.8643 8.46477 18.9162L6.58453 20.4439L4.55598 18.4155L6.08381 16.5352C6.17507 16.423 6.18787 16.2662 6.11613 16.1408C5.8097 15.6045 5.57234 15.0322 5.41066 14.4395C5.37256 14.3 5.25275 14.1984 5.10903 14.1835L2.70006 13.9343V11.0656L5.10903 10.8164C5.25275 10.8016 5.37256 10.6998 5.41066 10.5604C5.57234 9.96771 5.8097 9.39538 6.11613 8.8591C6.18791 8.73367 6.17511 8.57695 6.08381 8.46465L4.55614 6.58441L6.58469 4.55602L8.46494 6.08369C8.5772 6.17528 8.73408 6.18758 8.85918 6.11601C9.39546 5.80958 9.96779 5.57222 10.5605 5.41054C10.6999 5.37243 10.8016 5.25263 10.8165 5.10891L11.0657 2.69993H13.9344L14.1836 5.10891C14.1984 5.25263 14.3001 5.37243 14.4396 5.41054C15.0322 5.57222 15.6046 5.80958 16.1409 6.11601C16.266 6.18746 16.423 6.17499 16.5351 6.08369L18.4155 4.55602L20.4439 6.58457L18.9162 8.46481C18.825 8.57691 18.8122 8.73363 18.8839 8.85906C19.1903 9.39534 19.4277 9.96767 19.5894 10.5603C19.6275 10.6998 19.7473 10.8015 19.891 10.8164L22.3 11.0655L22.3 13.9344Z"/>
<path d="M12.5 8.29997C10.1841 8.29997 8.29997 10.1841 8.29997 12.5C8.29997 14.8158 10.1841 16.7 12.5 16.7C14.8158 16.7 16.7 14.8158 16.7 12.5C16.7 10.1841 14.8158 8.29997 12.5 8.29997ZM12.5 16C10.57 16 8.99998 14.4299 8.99998 12.5C8.99998 10.57 10.57 8.99998 12.5 8.99998C14.4299 8.99998 16 10.57 16 12.5C16 14.4299 14.4299 16 12.5 16Z"/>
</mask>
<path d="M22.3722 10.3694L20.1978 10.1445C20.0478 9.65406 19.8502 9.17758 19.6082 8.72317L20.9872 7.02598C21.2142 6.74654 21.1933 6.3441 20.9389 6.08963L18.9105 4.06124C18.6649 3.81548 18.2437 3.79394 17.9741 4.01289L16.277 5.39188C15.8225 5.14988 15.3461 4.95231 14.8556 4.80228L14.6307 2.62791C14.5935 2.27001 14.2943 2 13.9344 2H11.0657C10.7057 2 10.4065 2.27001 10.3694 2.62787L10.1445 4.80223C9.65406 4.95227 9.17758 5.14984 8.72317 5.39183L7.02598 4.01285C6.75663 3.79411 6.3354 3.81564 6.08963 4.0612L4.0612 6.08959C3.80691 6.34389 3.78591 6.74638 4.01285 7.02611L5.39183 8.72313C5.14984 9.17754 4.95227 9.65402 4.80223 10.1445L2.62787 10.3694C2.27001 10.4065 2 10.7057 2 11.0657V13.9344C2 14.2943 2.27001 14.5935 2.62787 14.6306L4.80223 14.8555C4.95227 15.346 5.14984 15.8225 5.39183 16.2769L4.01252 17.9742C3.78591 18.2537 3.80695 18.6561 4.06124 18.9104L6.08963 20.9388C6.33524 21.1842 6.75544 21.2066 7.02615 20.9872L8.72317 19.6082C9.17758 19.8502 9.65406 20.0477 10.1445 20.1978L10.3694 22.3721C10.4065 22.73 10.7057 23 11.0657 23H13.9344C14.2943 23 14.5935 22.73 14.6306 22.3721L14.8555 20.1978C15.346 20.0478 15.8225 19.8502 16.2769 19.6082L17.9742 20.9875C18.0986 21.0883 18.2552 21.1439 18.4153 21.1439C18.6025 21.1439 18.7781 21.0711 18.9104 20.9388L20.9388 18.9104C21.1933 18.656 21.2141 18.2535 20.9872 17.9741L19.6082 16.2769C19.8502 15.8225 20.0477 15.346 20.1978 14.8556L22.3721 14.6307C22.73 14.5936 23 14.2943 23 13.9344V11.0657C23 10.7057 22.73 10.4065 22.3722 10.3694ZM22.3 13.9344L19.8911 14.1836C19.7473 14.1984 19.6275 14.3001 19.5894 14.4396C19.4277 15.0322 19.1904 15.6046 18.884 16.1409C18.8122 16.2663 18.825 16.423 18.9163 16.5351L20.4439 18.4155L18.4156 20.4441L16.5353 18.9162C16.4231 18.8246 16.2662 18.8123 16.1409 18.8839C15.6046 19.1903 15.0322 19.4277 14.4396 19.5894C14.3001 19.6275 14.1984 19.7473 14.1836 19.891L13.9347 22.3H11.0657L10.8165 19.891C10.8016 19.7473 10.6999 19.6275 10.5605 19.5894C9.96779 19.4277 9.39546 19.1903 8.85918 18.8839C8.80516 18.853 8.7452 18.8378 8.68556 18.8378C8.60693 18.8378 8.52868 18.8643 8.46477 18.9162L6.58453 20.4439L4.55598 18.4155L6.08381 16.5352C6.17507 16.423 6.18787 16.2662 6.11613 16.1408C5.8097 15.6045 5.57234 15.0322 5.41066 14.4395C5.37256 14.3 5.25275 14.1984 5.10903 14.1835L2.70006 13.9343V11.0656L5.10903 10.8164C5.25275 10.8016 5.37256 10.6998 5.41066 10.5604C5.57234 9.96771 5.8097 9.39538 6.11613 8.8591C6.18791 8.73367 6.17511 8.57695 6.08381 8.46465L4.55614 6.58441L6.58469 4.55602L8.46494 6.08369C8.5772 6.17528 8.73408 6.18758 8.85918 6.11601C9.39546 5.80958 9.96779 5.57222 10.5605 5.41054C10.6999 5.37243 10.8016 5.25263 10.8165 5.10891L11.0657 2.69993H13.9344L14.1836 5.10891C14.1984 5.25263 14.3001 5.37243 14.4396 5.41054C15.0322 5.57222 15.6046 5.80958 16.1409 6.11601C16.266 6.18746 16.423 6.17499 16.5351 6.08369L18.4155 4.55602L20.4439 6.58457L18.9162 8.46481C18.825 8.57691 18.8122 8.73363 18.8839 8.85906C19.1903 9.39534 19.4277 9.96767 19.5894 10.5603C19.6275 10.6998 19.7473 10.8015 19.891 10.8164L22.3 11.0655L22.3 13.9344Z" fill="white"/>
<path d="M12.5 8.29997C10.1841 8.29997 8.29997 10.1841 8.29997 12.5C8.29997 14.8158 10.1841 16.7 12.5 16.7C14.8158 16.7 16.7 14.8158 16.7 12.5C16.7 10.1841 14.8158 8.29997 12.5 8.29997ZM12.5 16C10.57 16 8.99998 14.4299 8.99998 12.5C8.99998 10.57 10.57 8.99998 12.5 8.99998C14.4299 8.99998 16 10.57 16 12.5C16 14.4299 14.4299 16 12.5 16Z" fill="white"/>
<path d="M22.3722 10.3694L20.1978 10.1445C20.0478 9.65406 19.8502 9.17758 19.6082 8.72317L20.9872 7.02598C21.2142 6.74654 21.1933 6.3441 20.9389 6.08963L18.9105 4.06124C18.6649 3.81548 18.2437 3.79394 17.9741 4.01289L16.277 5.39188C15.8225 5.14988 15.3461 4.95231 14.8556 4.80228L14.6307 2.62791C14.5935 2.27001 14.2943 2 13.9344 2H11.0657C10.7057 2 10.4065 2.27001 10.3694 2.62787L10.1445 4.80223C9.65406 4.95227 9.17758 5.14984 8.72317 5.39183L7.02598 4.01285C6.75663 3.79411 6.3354 3.81564 6.08963 4.0612L4.0612 6.08959C3.80691 6.34389 3.78591 6.74638 4.01285 7.02611L5.39183 8.72313C5.14984 9.17754 4.95227 9.65402 4.80223 10.1445L2.62787 10.3694C2.27001 10.4065 2 10.7057 2 11.0657V13.9344C2 14.2943 2.27001 14.5935 2.62787 14.6306L4.80223 14.8555C4.95227 15.346 5.14984 15.8225 5.39183 16.2769L4.01252 17.9742C3.78591 18.2537 3.80695 18.6561 4.06124 18.9104L6.08963 20.9388C6.33524 21.1842 6.75544 21.2066 7.02615 20.9872L8.72317 19.6082C9.17758 19.8502 9.65406 20.0477 10.1445 20.1978L10.3694 22.3721C10.4065 22.73 10.7057 23 11.0657 23H13.9344C14.2943 23 14.5935 22.73 14.6306 22.3721L14.8555 20.1978C15.346 20.0478 15.8225 19.8502 16.2769 19.6082L17.9742 20.9875C18.0986 21.0883 18.2552 21.1439 18.4153 21.1439C18.6025 21.1439 18.7781 21.0711 18.9104 20.9388L20.9388 18.9104C21.1933 18.656 21.2141 18.2535 20.9872 17.9741L19.6082 16.2769C19.8502 15.8225 20.0477 15.346 20.1978 14.8556L22.3721 14.6307C22.73 14.5936 23 14.2943 23 13.9344V11.0657C23 10.7057 22.73 10.4065 22.3722 10.3694ZM22.3 13.9344L19.8911 14.1836C19.7473 14.1984 19.6275 14.3001 19.5894 14.4396C19.4277 15.0322 19.1904 15.6046 18.884 16.1409C18.8122 16.2663 18.825 16.423 18.9163 16.5351L20.4439 18.4155L18.4156 20.4441L16.5353 18.9162C16.4231 18.8246 16.2662 18.8123 16.1409 18.8839C15.6046 19.1903 15.0322 19.4277 14.4396 19.5894C14.3001 19.6275 14.1984 19.7473 14.1836 19.891L13.9347 22.3H11.0657L10.8165 19.891C10.8016 19.7473 10.6999 19.6275 10.5605 19.5894C9.96779 19.4277 9.39546 19.1903 8.85918 18.8839C8.80516 18.853 8.7452 18.8378 8.68556 18.8378C8.60693 18.8378 8.52868 18.8643 8.46477 18.9162L6.58453 20.4439L4.55598 18.4155L6.08381 16.5352C6.17507 16.423 6.18787 16.2662 6.11613 16.1408C5.8097 15.6045 5.57234 15.0322 5.41066 14.4395C5.37256 14.3 5.25275 14.1984 5.10903 14.1835L2.70006 13.9343V11.0656L5.10903 10.8164C5.25275 10.8016 5.37256 10.6998 5.41066 10.5604C5.57234 9.96771 5.8097 9.39538 6.11613 8.8591C6.18791 8.73367 6.17511 8.57695 6.08381 8.46465L4.55614 6.58441L6.58469 4.55602L8.46494 6.08369C8.5772 6.17528 8.73408 6.18758 8.85918 6.11601C9.39546 5.80958 9.96779 5.57222 10.5605 5.41054C10.6999 5.37243 10.8016 5.25263 10.8165 5.10891L11.0657 2.69993H13.9344L14.1836 5.10891C14.1984 5.25263 14.3001 5.37243 14.4396 5.41054C15.0322 5.57222 15.6046 5.80958 16.1409 6.11601C16.266 6.18746 16.423 6.17499 16.5351 6.08369L18.4155 4.55602L20.4439 6.58457L18.9162 8.46481C18.825 8.57691 18.8122 8.73363 18.8839 8.85906C19.1903 9.39534 19.4277 9.96767 19.5894 10.5603C19.6275 10.6998 19.7473 10.8015 19.891 10.8164L22.3 11.0655L22.3 13.9344Z" stroke="white" stroke-width="0.2" mask="url(#path-1-outside-1_38_1511)"/>
<path d="M12.5 8.29997C10.1841 8.29997 8.29997 10.1841 8.29997 12.5C8.29997 14.8158 10.1841 16.7 12.5 16.7C14.8158 16.7 16.7 14.8158 16.7 12.5C16.7 10.1841 14.8158 8.29997 12.5 8.29997ZM12.5 16C10.57 16 8.99998 14.4299 8.99998 12.5C8.99998 10.57 10.57 8.99998 12.5 8.99998C14.4299 8.99998 16 10.57 16 12.5C16 14.4299 14.4299 16 12.5 16Z" stroke="white" stroke-width="0.2" mask="url(#path-1-outside-1_38_1511)"/>
</svg>
