<svg width="24" height="24" viewBox="0 0 24 24" fill="none" xmlns="http://www.w3.org/2000/svg">
<path d="M6.4502 5.26514C6.5155 5.28056 6.57358 5.31799 6.61523 5.37061C6.65681 5.42322 6.67968 5.48812 6.67969 5.55518V8.20068C6.67969 8.27966 6.64858 8.35574 6.59277 8.41162C6.53692 8.46748 6.46083 8.4985 6.38184 8.49854C6.3028 8.49854 6.22679 8.46751 6.1709 8.41162C6.11501 8.35573 6.08398 8.27973 6.08398 8.20068V6.81689L5.65625 7.67236C5.63151 7.72191 5.593 7.76336 5.5459 7.79248C5.49886 7.82154 5.44494 7.83739 5.38965 7.8374C5.33427 7.8374 5.27952 7.82161 5.23242 7.79248C5.18553 7.76337 5.14771 7.72175 5.12305 7.67236L4.69531 6.81689V8.20068C4.69531 8.27969 4.66425 8.35574 4.6084 8.41162C4.55251 8.46751 4.4765 8.49853 4.39746 8.49854C4.31842 8.49854 4.24242 8.46751 4.18652 8.41162C4.13067 8.35573 4.09961 8.2797 4.09961 8.20068V5.55518C4.09961 5.48808 4.12245 5.42323 4.16406 5.37061C4.20574 5.31796 4.26374 5.28054 4.3291 5.26514C4.39437 5.24976 4.46269 5.25725 4.52344 5.28564C4.58425 5.31413 4.63406 5.36229 4.66406 5.42236L5.38965 6.87256L6.11523 5.42236C6.14516 5.36244 6.19428 5.31416 6.25488 5.28564C6.31569 5.25716 6.38484 5.24973 6.4502 5.26514Z" fill="white" stroke="white" stroke-width="0.1"/>
<path d="M11.0122 5.25732C11.091 5.25744 11.1664 5.28861 11.2222 5.34424C11.2781 5.40013 11.3101 5.47613 11.3101 5.55518V8.20068C11.3101 8.26783 11.2873 8.33358 11.2456 8.38623C11.204 8.43867 11.1457 8.47527 11.0806 8.49072C11.0152 8.50613 10.9461 8.4987 10.8853 8.47021C10.8246 8.44171 10.7756 8.39348 10.7456 8.3335L9.98682 6.81689V8.20068C9.98682 8.27969 9.95575 8.35574 9.8999 8.41162C9.84401 8.46751 9.768 8.49853 9.68896 8.49854C9.60992 8.49854 9.53392 8.46751 9.47803 8.41162C9.42217 8.35574 9.39111 8.2797 9.39111 8.20068V5.55518C9.39112 5.48808 9.41395 5.42323 9.45557 5.37061C9.49725 5.31796 9.55525 5.28054 9.62061 5.26514C9.68588 5.24976 9.7542 5.25725 9.81494 5.28564C9.87575 5.31413 9.92557 5.36229 9.95557 5.42236L10.7134 6.93799V5.55518C10.7134 5.47613 10.7454 5.40013 10.8013 5.34424C10.8571 5.28848 10.9333 5.25732 11.0122 5.25732Z" fill="white" stroke="white" stroke-width="0.1"/>
<path d="M8.69727 5.25732C8.77603 5.25744 8.85146 5.28861 8.90723 5.34424C8.96312 5.40013 8.99512 5.47613 8.99512 5.55518C8.99511 5.63421 8.96311 5.71023 8.90723 5.76611C8.85146 5.82173 8.77602 5.85291 8.69727 5.85303H7.67188V6.57959H8.36621C8.44522 6.57961 8.52128 6.61161 8.57715 6.66748C8.63288 6.72335 8.66406 6.79949 8.66406 6.87842C8.66395 6.95716 8.63274 7.03262 8.57715 7.08838C8.52128 7.14425 8.44522 7.17625 8.36621 7.17627H7.67188V7.90283H8.69727C8.77599 7.90294 8.85147 7.93417 8.90723 7.98975C8.96309 8.04561 8.99508 8.12169 8.99512 8.20068C8.99512 8.27973 8.96312 8.35573 8.90723 8.41162C8.85146 8.46728 8.77606 8.49842 8.69727 8.49854H7.37402C7.29498 8.49854 7.21898 8.46751 7.16309 8.41162C7.10723 8.35574 7.07617 8.2797 7.07617 8.20068V5.55518C7.07617 5.47613 7.10719 5.40013 7.16309 5.34424C7.21898 5.28835 7.29498 5.25732 7.37402 5.25732H8.69727Z" fill="white" stroke="white" stroke-width="0.1"/>
<path d="M13.3271 5.25732C13.4059 5.25744 13.4813 5.28861 13.5371 5.34424C13.593 5.40013 13.625 5.47613 13.625 5.55518V7.53955C13.625 7.79396 13.5236 8.03836 13.3438 8.21826C13.1638 8.39806 12.9194 8.49854 12.665 8.49854C12.4109 8.49846 12.1671 8.39786 11.9873 8.21826C11.8074 8.03836 11.7061 7.79396 11.7061 7.53955V5.55518C11.7061 5.47613 11.7371 5.40013 11.793 5.34424C11.8489 5.28835 11.9249 5.25732 12.0039 5.25732C12.0829 5.25733 12.159 5.28835 12.2148 5.34424C12.2707 5.40013 12.3018 5.47614 12.3018 5.55518V7.53955C12.3018 7.63585 12.3401 7.72828 12.4082 7.79639C12.4763 7.86447 12.5688 7.90276 12.665 7.90283C12.7613 7.90283 12.8537 7.86441 12.9219 7.79639C12.99 7.72827 13.0283 7.63587 13.0283 7.53955V5.55518C13.0283 5.47613 13.0603 5.40013 13.1162 5.34424C13.1721 5.28848 13.2482 5.25732 13.3271 5.25732Z" fill="white" stroke="white" stroke-width="0.1"/>
<path d="M4.56299 11.8713C4.642 11.8714 4.71805 11.9024 4.77393 11.9583C4.82979 12.0141 4.86084 12.0902 4.86084 12.1692C4.86084 12.2482 4.82979 12.3242 4.77393 12.3801C4.71805 12.436 4.642 12.467 4.56299 12.467H3.5708C3.49177 12.467 3.41575 12.436 3.35986 12.3801C3.30398 12.3242 3.27295 12.2482 3.27295 12.1692C3.27295 12.0901 3.30397 12.0141 3.35986 11.9583C3.41575 11.9024 3.49176 11.8713 3.5708 11.8713H4.56299Z" fill="white" stroke="white" stroke-width="0.1"/>
<path d="M14.1536 11.8713C14.2326 11.8713 14.3086 11.9024 14.3645 11.9583C14.4204 12.0141 14.4514 12.0901 14.4514 12.1692C14.4514 12.2482 14.4204 12.3242 14.3645 12.3801C14.3086 12.436 14.2326 12.467 14.1536 12.467H5.88599C5.80695 12.467 5.73094 12.436 5.67505 12.3801C5.61916 12.3242 5.58814 12.2482 5.58813 12.1692C5.58813 12.0901 5.61916 12.0141 5.67505 11.9583C5.73094 11.9024 5.80694 11.8713 5.88599 11.8713H14.1536Z" fill="white" stroke="white" stroke-width="0.1"/>
<path d="M4.56299 13.5251C4.642 13.5251 4.71805 13.5561 4.77393 13.612C4.82979 13.6679 4.86084 13.7439 4.86084 13.8229C4.86084 13.902 4.82979 13.978 4.77393 14.0339C4.71805 14.0897 4.642 14.1208 4.56299 14.1208H3.5708C3.49177 14.1208 3.41575 14.0898 3.35986 14.0339C3.30398 13.978 3.27295 13.902 3.27295 13.8229C3.27295 13.7439 3.30397 13.6679 3.35986 13.612C3.41575 13.5561 3.49176 13.5251 3.5708 13.5251H4.56299Z" fill="white" stroke="white" stroke-width="0.1"/>
<path d="M14.1536 13.5251C14.2326 13.5251 14.3086 13.5561 14.3645 13.612C14.4204 13.6679 14.4514 13.7439 14.4514 13.8229C14.4514 13.902 14.4204 13.978 14.3645 14.0339C14.3086 14.0897 14.2326 14.1208 14.1536 14.1208H5.88599C5.80695 14.1208 5.73094 14.0898 5.67505 14.0339C5.61916 13.978 5.58814 13.902 5.58813 13.8229C5.58813 13.7439 5.61916 13.6679 5.67505 13.612C5.73094 13.5561 5.80694 13.5251 5.88599 13.5251H14.1536Z" fill="white" stroke="white" stroke-width="0.1"/>
<path d="M4.56299 15.1785C4.642 15.1785 4.71805 15.2096 4.77393 15.2654C4.82979 15.3213 4.86084 15.3974 4.86084 15.4764C4.86084 15.5554 4.82979 15.6314 4.77393 15.6873C4.71805 15.7432 4.642 15.7742 4.56299 15.7742H3.5708C3.49177 15.7742 3.41575 15.7432 3.35986 15.6873C3.30398 15.6314 3.27295 15.5554 3.27295 15.4764C3.27295 15.3973 3.30397 15.3213 3.35986 15.2654C3.41575 15.2096 3.49176 15.1785 3.5708 15.1785H4.56299Z" fill="white" stroke="white" stroke-width="0.1"/>
<path d="M14.1536 15.1785C14.2326 15.1785 14.3086 15.2096 14.3645 15.2654C14.4204 15.3213 14.4514 15.3973 14.4514 15.4764C14.4514 15.5554 14.4204 15.6314 14.3645 15.6873C14.3086 15.7432 14.2326 15.7742 14.1536 15.7742H5.88599C5.80695 15.7742 5.73094 15.7432 5.67505 15.6873C5.61916 15.6314 5.58814 15.5554 5.58813 15.4764C5.58813 15.3973 5.61916 15.3213 5.67505 15.2654C5.73094 15.2096 5.80694 15.1785 5.88599 15.1785H14.1536Z" fill="white" stroke="white" stroke-width="0.1"/>
<path d="M4.56299 16.832C4.642 16.832 4.71805 16.863 4.77393 16.9189C4.82979 16.9748 4.86084 17.0508 4.86084 17.1298C4.86084 17.2088 4.82979 17.2849 4.77393 17.3408C4.71805 17.3966 4.642 17.4277 4.56299 17.4277H3.5708C3.49177 17.4277 3.41575 17.3966 3.35986 17.3408C3.30398 17.2849 3.27295 17.2089 3.27295 17.1298C3.27295 17.0508 3.30397 16.9748 3.35986 16.9189C3.41575 16.863 3.49176 16.832 3.5708 16.832H4.56299Z" fill="white" stroke="white" stroke-width="0.1"/>
<path d="M14.1536 16.832C14.2326 16.832 14.3086 16.863 14.3645 16.9189C14.4204 16.9748 14.4514 17.0508 14.4514 17.1298C14.4514 17.2089 14.4204 17.2849 14.3645 17.3408C14.3086 17.3966 14.2326 17.4277 14.1536 17.4277H5.88599C5.80695 17.4277 5.73094 17.3966 5.67505 17.3408C5.61916 17.2849 5.58814 17.2089 5.58813 17.1298C5.58813 17.0508 5.61916 16.9748 5.67505 16.9189C5.73094 16.863 5.80694 16.832 5.88599 16.832H14.1536Z" fill="white" stroke="white" stroke-width="0.1"/>
<path d="M4.56299 18.4857C4.642 18.4857 4.71805 18.5167 4.77393 18.5726C4.82979 18.6285 4.86084 18.7045 4.86084 18.7835C4.86084 18.8625 4.82979 18.9386 4.77393 18.9944C4.71805 19.0503 4.642 19.0813 4.56299 19.0814H3.5708C3.49177 19.0814 3.41575 19.0503 3.35986 18.9944C3.30398 18.9386 3.27295 18.8625 3.27295 18.7835C3.27295 18.7045 3.30397 18.6285 3.35986 18.5726C3.41575 18.5167 3.49176 18.4857 3.5708 18.4857H4.56299Z" fill="white" stroke="white" stroke-width="0.1"/>
<path d="M12.5002 18.4857C12.5792 18.4857 12.6553 18.5167 12.7112 18.5726C12.767 18.6285 12.7981 18.7045 12.7981 18.7835C12.7981 18.8625 12.767 18.9386 12.7112 18.9944C12.6553 19.0503 12.5792 19.0813 12.5002 19.0814H5.88599C5.80695 19.0814 5.73094 19.0503 5.67505 18.9944C5.61916 18.9386 5.58814 18.8625 5.58813 18.7835C5.58813 18.7045 5.61916 18.6285 5.67505 18.5726C5.73094 18.5167 5.80694 18.4857 5.88599 18.4857H12.5002Z" fill="white" stroke="white" stroke-width="0.1"/>
<path d="M4.56299 20.1391C4.642 20.1391 4.71805 20.1701 4.77393 20.226C4.82979 20.2819 4.86084 20.3579 4.86084 20.437C4.86084 20.516 4.82979 20.592 4.77393 20.6479C4.71805 20.7038 4.642 20.7348 4.56299 20.7348H3.5708C3.49177 20.7348 3.41575 20.7038 3.35986 20.6479C3.30398 20.592 3.27295 20.516 3.27295 20.437C3.27295 20.3579 3.30397 20.2819 3.35986 20.226C3.41575 20.1701 3.49176 20.1391 3.5708 20.1391H4.56299Z" fill="white" stroke="white" stroke-width="0.1"/>
<path d="M12.5002 20.1391C12.5792 20.1391 12.6553 20.1701 12.7112 20.226C12.767 20.2819 12.7981 20.3579 12.7981 20.437C12.7981 20.516 12.767 20.592 12.7112 20.6479C12.6553 20.7038 12.5792 20.7348 12.5002 20.7348H5.88599C5.80695 20.7348 5.73094 20.7038 5.67505 20.6479C5.61916 20.592 5.58814 20.516 5.58813 20.437C5.58813 20.3579 5.61916 20.2819 5.67505 20.226C5.73094 20.1701 5.80694 20.1391 5.88599 20.1391H12.5002Z" fill="white" stroke="white" stroke-width="0.1"/>
<path d="M14.2324 1.96094C14.2741 1.97245 14.3137 1.99252 14.3467 2.02051C14.3796 2.04847 14.4057 2.08385 14.4238 2.12305C14.442 2.16226 14.4512 2.20485 14.4512 2.24805V3.93457H15.4766C15.5555 3.93463 15.6317 3.96564 15.6875 4.02148C15.7433 4.07736 15.7744 4.15345 15.7744 4.23242V17.2363C16.0572 17.0929 16.3561 16.9845 16.666 16.917V16.6338C16.666 16.4232 16.7505 16.2212 16.8994 16.0723C17.0483 15.9235 17.2504 15.8398 17.4609 15.8398C17.6714 15.8399 17.8736 15.9234 18.0225 16.0723C18.1713 16.2212 18.2549 16.4233 18.2549 16.6338V16.918C19.0896 17.099 19.8391 17.5565 20.3799 18.2188C20.9293 18.8917 21.2303 19.7338 21.2314 20.6025V21.1309H21.4287C21.5078 21.1309 21.5838 21.1629 21.6396 21.2188C21.6954 21.2745 21.7274 21.3499 21.7275 21.4287V22.0908C21.7273 22.345 21.6259 22.5888 21.4463 22.7686C21.2664 22.9484 21.022 23.0496 20.7676 23.0498H2.24805C2.16901 23.0498 2.093 23.0188 2.03711 22.9629C1.98122 22.907 1.9502 22.831 1.9502 22.752V4.23242C1.95018 4.16198 1.97505 4.09384 2.02051 4.04004C2.06613 3.98619 2.12959 3.95005 2.19922 3.93848L14.1045 1.9541C14.1471 1.94702 14.1908 1.94949 14.2324 1.96094ZM13.79 22.0908C13.7903 22.187 13.8284 22.2796 13.8965 22.3477C13.9645 22.4157 14.0571 22.4539 14.1533 22.4541H20.7676C20.8638 22.4539 20.9563 22.4157 21.0244 22.3477C21.0925 22.2796 21.1306 22.187 21.1309 22.0908V21.7275H13.79V22.0908ZM2.5459 22.4541H13.2705C13.2217 22.3393 13.1952 22.2161 13.1943 22.0908V21.4287C13.1944 21.3499 13.2256 21.2745 13.2812 21.2188C13.3371 21.1629 13.4131 21.1309 13.4922 21.1309H13.6904V20.6025C13.6906 20.0179 13.8271 19.4407 14.0889 18.918C14.347 18.4027 14.7198 17.9537 15.1787 17.6055V9.82129H2.5459V22.4541ZM17.4609 17.4277C16.6194 17.4287 15.8119 17.7633 15.2168 18.3584C14.6217 18.9535 14.2871 19.7609 14.2861 20.6025V21.1309H20.6348V20.6025C20.6338 19.7609 20.2992 18.9535 19.7041 18.3584C19.1091 17.7635 18.3023 17.4288 17.4609 17.4277ZM17.4609 16.4355C17.4084 16.4355 17.3575 16.457 17.3203 16.4941C17.2834 16.5312 17.2627 16.5814 17.2627 16.6338V16.8418C17.3276 16.8372 17.3945 16.832 17.4609 16.832C17.5272 16.832 17.5936 16.8373 17.6582 16.8418V16.6338C17.6582 16.5814 17.6376 16.5312 17.6006 16.4941C17.5635 16.4571 17.5133 16.4356 17.4609 16.4355ZM2.5459 9.22559H15.1787V4.53027H2.5459V9.22559ZM5.8457 3.93457H13.8555V2.59961L5.8457 3.93457Z" fill="white" stroke="white" stroke-width="0.1"/>
</svg>
