<svg width="24" height="24" viewBox="0 0 24 24" fill="none" xmlns="http://www.w3.org/2000/svg">
<path d="M17.5852 12.1577C17.5845 12.4664 17.6754 12.7683 17.8464 13.0253C18.0175 13.2823 18.2609 13.4828 18.5458 13.6014C18.8308 13.72 19.1446 13.7514 19.4474 13.6916C19.7503 13.6318 20.0286 13.4835 20.2471 13.2654C20.4656 13.0474 20.6145 12.7694 20.675 12.4667C20.7354 12.164 20.7048 11.8502 20.5868 11.5649C20.4688 11.2797 20.2689 11.0358 20.0123 10.8643C19.7556 10.6927 19.4539 10.6011 19.1452 10.6011C18.7321 10.6011 18.3358 10.765 18.0433 11.0568C17.7509 11.3487 17.5861 11.7446 17.5852 12.1577ZM20.0161 12.1577C20.0167 12.3309 19.966 12.5004 19.8702 12.6447C19.7743 12.789 19.6378 12.9016 19.4779 12.9682C19.318 13.0348 19.142 13.0524 18.9721 13.0188C18.8021 12.9852 18.6461 12.9018 18.5236 12.7793C18.4011 12.6569 18.3178 12.5008 18.2841 12.3309C18.2505 12.1609 18.2681 11.9849 18.3347 11.825C18.4013 11.6651 18.5139 11.5286 18.6582 11.4328C18.8025 11.337 18.972 11.2862 19.1452 11.2868C19.3762 11.2868 19.5977 11.3786 19.761 11.5419C19.9243 11.7052 20.0161 11.9267 20.0161 12.1577Z" fill="white"/>
<path d="M4.84123 10.6011C4.53352 10.6018 4.23291 10.6937 3.97738 10.8651C3.72186 11.0366 3.52288 11.2799 3.40559 11.5644C3.2883 11.8489 3.25797 12.1618 3.31841 12.4635C3.37886 12.7652 3.52738 13.0422 3.74521 13.2596C3.96303 13.4769 4.24039 13.6248 4.54224 13.6846C4.8441 13.7444 5.15689 13.7134 5.44112 13.5955C5.72535 13.4775 5.96825 13.278 6.13914 13.0221C6.31002 12.7662 6.40123 12.4654 6.40123 12.1577C6.40032 11.7446 6.23556 11.3487 5.94311 11.0568C5.65065 10.765 5.25437 10.6011 4.84123 10.6011ZM4.84123 13.0286C4.66914 13.0279 4.5011 12.9762 4.35835 12.8801C4.21559 12.784 4.1045 12.6478 4.03911 12.4886C3.97372 12.3294 3.95697 12.1544 3.99095 11.9857C4.02494 11.817 4.10815 11.6622 4.23008 11.5407C4.35201 11.4193 4.50718 11.3367 4.67602 11.3033C4.84485 11.27 5.01978 11.2875 5.17871 11.3535C5.33764 11.4195 5.47344 11.5311 5.56898 11.6742C5.66452 11.8174 5.71551 11.9856 5.71552 12.1577C5.71552 12.2724 5.69288 12.3859 5.6489 12.4918C5.60492 12.5976 5.54047 12.6938 5.45924 12.7747C5.37801 12.8556 5.2816 12.9197 5.17555 12.9633C5.06949 13.0068 4.95588 13.029 4.84123 13.0286Z" fill="white"/>
<path d="M22.7691 7.19999H21.4833C21.2481 7.2009 21.0228 7.29474 20.8564 7.46108C20.6901 7.62742 20.5962 7.85276 20.5953 8.08799V8.91428L20.2971 8.96228L19.1176 5.97599V5.94514C18.8824 5.48966 18.5264 5.10767 18.0885 4.84099C17.6507 4.57431 17.148 4.43321 16.6353 4.43314H7.3782C6.86615 4.43403 6.36412 4.57509 5.92654 4.84102C5.48896 5.10695 5.13253 5.48761 4.89592 5.94171V5.97599L3.71649 8.95885L3.40449 8.91428V8.08114C3.40179 7.84709 3.30715 7.6235 3.14101 7.45864C2.97486 7.29378 2.75054 7.20088 2.51649 7.19999H1.23077C0.996717 7.20088 0.772399 7.29378 0.606255 7.45864C0.440111 7.6235 0.345472 7.84709 0.342773 8.08114V8.65714C0.34368 8.89205 0.437638 9.11704 0.604072 9.28283C0.770506 9.44862 0.995854 9.54171 1.23077 9.54171H2.9622C2.4654 9.8722 2.05779 10.3201 1.77551 10.8458C1.49323 11.3715 1.34498 11.9587 1.34392 12.5554V15.8846C1.34125 16.0911 1.39271 16.2947 1.49316 16.4751C1.59361 16.6556 1.73956 16.8066 1.91649 16.9131V18.7063C1.91739 18.9412 2.01135 19.1662 2.17779 19.332C2.34422 19.4978 2.56957 19.5909 2.80449 19.5909H4.79992C5.03484 19.5909 5.26018 19.4978 5.42662 19.332C5.59305 19.1662 5.68701 18.9412 5.68792 18.7063V17.0674H18.2948V18.6891C18.2952 18.8069 18.3191 18.9234 18.365 19.0319C18.4109 19.1404 18.4779 19.2386 18.5621 19.321C18.6464 19.4033 18.7461 19.468 18.8556 19.5114C18.9651 19.5548 19.0822 19.576 19.1999 19.5737H21.1953C21.4303 19.5737 21.6556 19.4806 21.822 19.3148C21.9885 19.149 22.0824 18.9241 22.0833 18.6891V16.896C22.2611 16.7901 22.408 16.6394 22.5091 16.4588C22.6102 16.2783 22.662 16.0743 22.6593 15.8674V12.5554C22.6582 11.9584 22.5096 11.3708 22.2266 10.8451C21.9437 10.3193 21.5353 9.87158 21.0376 9.54171H22.7862C23.0181 9.53723 23.2391 9.44217 23.4019 9.27686C23.5646 9.11155 23.6562 8.88911 23.6571 8.65714V8.08114C23.6544 7.84709 23.5597 7.6235 23.3936 7.45864C23.2274 7.29378 23.0031 7.20088 22.7691 7.19999ZM5.48563 6.23999C5.66487 5.9004 5.93316 5.61599 6.26173 5.41728C6.59031 5.21856 6.96678 5.11303 7.35077 5.11199H16.6079C16.992 5.11265 17.3686 5.21803 17.6973 5.41679C18.0259 5.61554 18.2941 5.90015 18.4731 6.23999L19.5565 8.98285L19.3988 8.96571C19.3691 8.96403 19.3393 8.96403 19.3096 8.96571C19.2103 8.96058 19.1107 8.96058 19.0113 8.96571H4.9542C4.85598 8.96058 4.75756 8.96058 4.65934 8.96571C4.62622 8.96402 4.59304 8.96402 4.55992 8.96571L4.41249 8.98285L5.48563 6.23999ZM2.71877 8.85599H1.23077C1.20437 8.85645 1.17814 8.85164 1.15362 8.84185C1.1291 8.83206 1.10677 8.81749 1.08794 8.79898C1.06911 8.78046 1.05415 8.75839 1.04395 8.73404C1.03374 8.70968 1.02848 8.68354 1.02849 8.65714V8.08114C1.03027 8.02868 1.05236 7.97898 1.09011 7.94251C1.12785 7.90605 1.17829 7.88568 1.23077 7.88571H2.51649C2.57014 7.88571 2.62159 7.90702 2.65953 7.94496C2.69746 7.98289 2.71877 8.03434 2.71877 8.08799V8.85599ZM5.0022 18.6891C5.00221 18.7155 4.99695 18.7417 4.98674 18.766C4.97654 18.7904 4.96158 18.8125 4.94275 18.831C4.92392 18.8495 4.90159 18.8641 4.87707 18.8739C4.85255 18.8836 4.82632 18.8884 4.79992 18.888H2.80449C2.75143 18.888 2.70049 18.8672 2.66265 18.83C2.62481 18.7928 2.6031 18.7422 2.6022 18.6891V17.0674H5.0022V18.6891ZM21.3805 18.6891C21.381 18.7157 21.376 18.742 21.366 18.7666C21.356 18.7912 21.341 18.8134 21.3221 18.8321C21.3032 18.8507 21.2806 18.8652 21.2559 18.8748C21.2312 18.8845 21.2047 18.8889 21.1782 18.888H19.1999C19.1469 18.888 19.0959 18.8672 19.0581 18.83C19.0202 18.7928 18.9985 18.7422 18.9976 18.6891V17.0674H21.3976L21.3805 18.6891ZM21.9428 12.5554V15.8846C21.9437 15.9504 21.9314 16.0157 21.9065 16.0767C21.8816 16.1377 21.8447 16.193 21.798 16.2394C21.7513 16.2858 21.6957 16.3223 21.6346 16.3468C21.5735 16.3712 21.508 16.3831 21.4422 16.3817H2.52677C2.47324 16.3824 2.41997 16.3743 2.36906 16.3577C2.26928 16.3251 2.18237 16.2618 2.12078 16.1768C2.05919 16.0918 2.02609 15.9895 2.0262 15.8846V12.5554C2.02924 11.9549 2.21666 11.3697 2.56312 10.8791C2.90959 10.3886 3.39837 10.0163 3.96334 9.81256C4.27602 9.70168 4.6053 9.64487 4.93706 9.64456H18.9942C19.0811 9.64456 19.1668 9.64456 19.2513 9.64456C19.4961 9.66569 19.737 9.71871 19.9679 9.80228H19.9885C20.5583 10.0037 21.0519 10.3764 21.4018 10.8693C21.7516 11.3621 21.9406 11.951 21.9428 12.5554ZM22.9713 8.65714C22.9713 8.68354 22.9661 8.70968 22.9559 8.73404C22.9457 8.75839 22.9307 8.78046 22.9119 8.79898C22.8931 8.81749 22.8707 8.83206 22.8462 8.84185C22.8217 8.85164 22.7955 8.85645 22.7691 8.85599H21.2811V8.08114C21.2811 8.02749 21.3024 7.97603 21.3403 7.9381C21.3782 7.90016 21.4297 7.87885 21.4833 7.87885H22.7691C22.8227 7.87885 22.8742 7.90016 22.9121 7.9381C22.95 7.97603 22.9713 8.02749 22.9713 8.08114V8.65714Z" fill="white"/>
<path d="M7.65934 13.6011H16.3405C16.5005 13.6011 16.654 13.5376 16.7672 13.4244C16.8803 13.3112 16.9439 13.1578 16.9439 12.9977C16.9439 12.5049 16.7481 12.0322 16.3996 11.6837C16.0511 11.3352 15.5785 11.1394 15.0856 11.1394H8.91419C8.42194 11.1403 7.95016 11.3365 7.6024 11.6849C7.25465 12.0333 7.05934 12.5055 7.05934 12.9977C7.05888 13.0768 7.07407 13.1552 7.10402 13.2284C7.13397 13.3016 7.17809 13.3681 7.23386 13.4242C7.28962 13.4803 7.35591 13.5248 7.42893 13.5552C7.50195 13.5855 7.58025 13.6011 7.65934 13.6011ZM8.91419 11.8251H15.0856C15.382 11.8261 15.6672 11.9389 15.8839 12.1411C16.1007 12.3432 16.2332 12.6198 16.2548 12.9154H7.74505C7.76665 12.6198 7.8991 12.3432 8.11588 12.1411C8.33266 11.9389 8.61778 11.8261 8.91419 11.8251Z" fill="white"/>
<path d="M16.9543 14.7429H7.04574C6.95481 14.7429 6.8676 14.779 6.8033 14.8433C6.739 14.9076 6.70288 14.9948 6.70288 15.0857C6.70288 15.1766 6.739 15.2639 6.8033 15.3282C6.8676 15.3925 6.95481 15.4286 7.04574 15.4286H16.9543C17.0452 15.4286 17.1324 15.3925 17.1967 15.3282C17.261 15.2639 17.2972 15.1766 17.2972 15.0857C17.2972 14.9948 17.261 14.9076 17.1967 14.8433C17.1324 14.779 17.0452 14.7429 16.9543 14.7429Z" fill="white"/>
</svg>
