<svg width="22" height="22" viewBox="0 0 22 22" fill="none" xmlns="http://www.w3.org/2000/svg">
<g clip-path="url(#clip0_38_787)">
<path d="M10.9934 18.7326C11.1434 18.7326 11.2971 18.7824 11.4143 18.8859C11.5333 18.9911 11.6086 19.1469 11.6086 19.3449V21.4719C11.6085 21.825 11.3304 22.0871 10.9934 22.0871C10.6581 22.087 10.3782 21.8265 10.3782 21.4846V19.3449C10.3782 19.147 10.4536 18.9911 10.5725 18.8859C10.6897 18.7824 10.8434 18.7326 10.9934 18.7326ZM6.68774 17.6223C6.83985 17.5929 6.99716 17.6275 7.12622 17.7023C7.25512 17.7772 7.36304 17.8957 7.41333 18.0422C7.46451 18.1912 7.45336 18.3623 7.35571 18.5314L6.2854 20.3869V20.3879C6.1785 20.571 5.97935 20.6955 5.76099 20.6955C5.28388 20.6955 4.99143 20.1729 5.2229 19.7717L6.29321 17.9162C6.39089 17.7472 6.53317 17.6522 6.68774 17.6223ZM15.304 17.6223C15.4207 17.6445 15.5316 17.703 15.6223 17.8019L15.7063 17.9142L15.7073 17.9162L16.7766 19.7717C17.0091 20.1746 16.7013 20.6951 16.2395 20.6955C16.0203 20.6955 15.8228 20.5705 15.7043 20.3928L15.7004 20.3869V20.3859L14.6438 18.5314V18.5305C14.544 18.3626 14.5302 18.1922 14.5793 18.0432C14.628 17.896 14.7354 17.7772 14.8645 17.7023C14.9937 17.6274 15.1508 17.5932 15.304 17.6223ZM10.9934 4.21796C14.7347 4.21796 17.7697 7.26522 17.7698 10.9933C17.7698 14.7346 14.7346 17.7697 10.9934 17.7697C7.26527 17.7696 4.21704 14.7346 4.21704 10.9933C4.21715 7.26515 7.26521 4.21804 10.9934 4.21796ZM3.95044 14.5793C4.09911 14.6277 4.21901 14.7349 4.29419 14.8644C4.36936 14.9941 4.40354 15.1522 4.37231 15.3058C4.34058 15.4618 4.24296 15.6056 4.07153 15.7062V15.7072L2.22876 16.7766L2.2229 16.7795C2.13449 16.8237 2.02876 16.8547 1.92017 16.8547C1.30072 16.8545 1.07583 16.0238 1.61157 15.7023L1.61255 15.7014L3.45532 14.6447L3.58325 14.5851C3.71138 14.5409 3.83707 14.5424 3.95044 14.5793ZM18.0432 14.5793C18.1923 14.5301 18.3627 14.5439 18.5305 14.6437H18.5315L20.387 15.7014L20.3889 15.7023C20.9246 16.0238 20.6989 16.8547 20.0793 16.8547C19.971 16.8546 19.8658 16.8236 19.7776 16.7795L19.7717 16.7766L17.9163 15.7072L17.9143 15.7062C17.746 15.6052 17.6521 15.4604 17.6223 15.3049C17.5931 15.1515 17.6274 14.9937 17.7024 14.8644C17.7773 14.7353 17.8961 14.6279 18.0432 14.5793ZM10.9934 5.44843C7.94274 5.44851 5.44859 7.94269 5.44849 10.9933C5.44849 14.0568 7.94253 16.5382 10.9934 16.5383C14.0571 16.5383 16.5383 14.057 16.5383 10.9933C16.5382 7.94248 14.0569 5.44843 10.9934 5.44843ZM6.84399 10.3908C6.99338 10.3909 7.14675 10.4397 7.26392 10.5412C7.38299 10.6446 7.45918 10.798 7.45923 10.9933C7.45923 12.2717 8.14859 13.4503 9.2522 14.09H9.25122C9.8074 14.3997 9.5725 15.2306 8.95728 15.2307C8.86106 15.2307 8.75048 15.2167 8.65063 15.1525V15.1535C7.14944 14.3107 6.22778 12.7174 6.22778 10.9933C6.22784 10.7979 6.30481 10.6446 6.42407 10.5412C6.54133 10.4396 6.69453 10.3908 6.84399 10.3908ZM2.65454 10.3781C2.8501 10.3781 3.00427 10.4541 3.10767 10.5734C3.20926 10.6906 3.25801 10.8439 3.25806 10.9933C3.25806 11.1428 3.20919 11.296 3.10767 11.4133C3.00427 11.5326 2.85012 11.6096 2.65454 11.6096H0.515869C0.320504 11.6096 0.166062 11.533 0.0617676 11.4142C-0.0408048 11.2973 -0.0905834 11.144 -0.0915527 10.9943C-0.0924888 10.8446 -0.0447255 10.6909 0.0578613 10.5734C0.162178 10.4539 0.3177 10.3781 0.515869 10.3781H2.65454ZM21.4846 10.3781C21.68 10.3781 21.8334 10.4543 21.9368 10.5734C22.0384 10.6906 22.0871 10.8439 22.0872 10.9933C22.0872 11.1429 22.0384 11.296 21.9368 11.4133C21.8334 11.5325 21.6801 11.6095 21.4846 11.6096H19.345C19.1469 11.6095 18.9912 11.5333 18.886 11.4142C18.7824 11.297 18.7327 11.1434 18.7327 10.9933C18.7327 10.8434 18.7825 10.6896 18.886 10.5724C18.9912 10.4535 19.1471 10.3781 19.345 10.3781H21.4846ZM1.38501 5.4494C1.5654 5.16426 1.93181 5.05255 2.22778 5.22382H2.22876L4.07153 6.29315H4.07056C4.62771 6.60395 4.3891 7.44647 3.76294 7.44647C3.66467 7.44638 3.55783 7.41362 3.4563 7.35565H3.45532L1.61255 6.28534C1.32231 6.11723 1.2123 5.74826 1.38306 5.45331L1.38501 5.4494ZM19.7717 5.22284C19.9409 5.12514 20.1119 5.11503 20.261 5.1662C20.4076 5.21653 20.526 5.32424 20.6008 5.45331C20.6756 5.58237 20.7103 5.73872 20.6809 5.89081C20.651 6.04529 20.5567 6.18764 20.3879 6.28534H20.387L18.5315 7.35565L18.5305 7.35468C18.4374 7.41509 18.3308 7.44646 18.2239 7.44647C17.6077 7.44647 17.375 6.6028 17.9163 6.29315L19.7717 5.22284ZM5.89087 1.31854C6.04548 1.34841 6.18768 1.44347 6.2854 1.61249L7.35474 3.45428C7.60156 3.87081 7.29225 4.37909 6.83032 4.37909C6.61878 4.37896 6.40134 4.27297 6.29126 4.06854V4.06757L5.22388 2.2287L5.2229 2.22772C5.1254 2.05869 5.11511 1.88744 5.16626 1.73846C5.21666 1.59207 5.32444 1.47336 5.45337 1.39862C5.58238 1.32392 5.73889 1.28922 5.89087 1.31854ZM16.1038 1.31854C16.2573 1.28935 16.4152 1.32383 16.5452 1.39862C16.675 1.47337 16.7836 1.59185 16.8342 1.73846C16.8857 1.88759 16.8742 2.05863 16.7766 2.22772V2.2287L15.7073 4.07147L15.7053 4.07343C15.5842 4.27014 15.3848 4.37909 15.1692 4.37909C14.7073 4.379 14.398 3.87077 14.6448 3.45428L15.7014 1.61249L15.7024 1.61151C15.8035 1.443 15.9479 1.34828 16.1038 1.31854ZM10.9934 -0.086731C11.1428 -0.086731 11.2961 -0.0388183 11.4133 0.0626831C11.5326 0.166076 11.6086 0.32023 11.6086 0.515808V2.65448C11.6086 2.99325 11.3322 3.27069 10.9934 3.27069C10.6547 3.2706 10.3782 2.99319 10.3782 2.65448V0.515808C10.3782 0.32023 10.4542 0.166076 10.5735 0.0626831C10.6907 -0.0388903 10.844 -0.0866962 10.9934 -0.086731Z" fill="#ECC681" stroke="#ECC681" stroke-width="0.2"/>
</g>
<defs>
<clipPath id="clip0_38_787">
<rect width="22" height="22" fill="white"/>
</clipPath>
</defs>
</svg>
