<svg width="24" height="24" viewBox="0 0 24 24" fill="none" xmlns="http://www.w3.org/2000/svg">
<g clip-path="url(#clip0_38_338)">
<path d="M18.375 0.700195C19.6807 0.701699 20.9322 1.22125 21.8555 2.14453C22.7787 3.06781 23.2983 4.31929 23.2998 5.625V18.375C23.2983 19.6807 22.7787 20.9322 21.8555 21.8555C20.9322 22.7787 19.6807 23.2983 18.375 23.2998H5.625C4.31929 23.2983 3.06781 22.7787 2.14453 21.8555C1.22125 20.9322 0.701699 19.6807 0.700195 18.375V5.625L0.706055 5.38086C0.767721 4.16406 1.27894 3.01012 2.14453 2.14453C3.06781 1.22125 4.31929 0.701699 5.625 0.700195H18.375ZM5.625 1.5498C4.54462 1.55105 3.50906 1.98117 2.74512 2.74512C1.98117 3.50906 1.55105 4.54462 1.5498 5.625V18.375L1.55566 18.5771C1.60674 19.5839 2.02896 20.5387 2.74512 21.2549C3.50906 22.0188 4.54462 22.449 5.625 22.4502H18.375L18.5771 22.4443C19.5839 22.3933 20.5387 21.971 21.2549 21.2549C22.0188 20.4909 22.449 19.4554 22.4502 18.375V5.625C22.449 4.54462 22.0188 3.50906 21.2549 2.74512C20.5387 2.02896 19.5839 1.60674 18.5771 1.55566L18.375 1.5498H5.625Z" fill="white" stroke="white" stroke-width="0.1"/>
<path d="M10.5498 19.0752V19.8252H11.9502V19.0752H12.7998V20.25C12.7998 20.3627 12.7555 20.4711 12.6758 20.5508C12.5961 20.6305 12.4877 20.6748 12.375 20.6748H10.125C10.0123 20.6748 9.90392 20.6305 9.82422 20.5508C9.74452 20.4711 9.7002 20.3627 9.7002 20.25V19.0752H10.5498Z" fill="white" stroke="white" stroke-width="0.1"/>
<path d="M11.2498 16.8254C11.3462 16.8254 11.4399 16.8581 11.5154 16.9182L13.3904 18.4182C13.4784 18.4886 13.5352 18.5912 13.5476 18.7033C13.56 18.8153 13.5272 18.9278 13.4568 19.0158C13.3863 19.1037 13.2836 19.1606 13.1716 19.173C13.0597 19.1854 12.9471 19.1526 12.8591 19.0822L11.2498 17.7932L9.64038 19.0822C9.55236 19.1525 9.43987 19.1855 9.32788 19.173C9.21584 19.1606 9.11316 19.1038 9.04272 19.0158C8.97235 18.9278 8.93955 18.8153 8.9519 18.7033C8.96435 18.5913 9.02119 18.4886 9.10913 18.4182L10.9841 16.9182C11.0596 16.8582 11.1534 16.8254 11.2498 16.8254Z" fill="white" stroke="white" stroke-width="0.1"/>
<path d="M17.625 17.6748C17.4923 17.6748 17.3653 17.7502 17.2695 17.8779C17.174 18.0055 17.1123 18.182 17.1123 18.375L17.124 18.5156C17.1316 18.5623 17.1433 18.6083 17.1582 18.6533C17.182 18.7267 17.1854 18.8057 17.168 18.8809C17.1506 18.9559 17.113 19.0247 17.0596 19.0801C17.0059 19.1355 16.9378 19.1754 16.8633 19.1953C16.7887 19.2152 16.7099 19.2148 16.6357 19.1934L16.6348 19.1924C16.601 19.1816 16.5657 19.1758 16.5303 19.1748C16.3307 19.1752 16.1748 19.3247 16.1748 19.5C16.1748 19.6756 16.3313 19.8252 16.5312 19.8252H18.7188C18.9187 19.8252 19.0752 19.6756 19.0752 19.5C19.0752 19.3244 18.9187 19.1748 18.7188 19.1748C18.6837 19.1758 18.6486 19.1816 18.6152 19.1924L18.6143 19.1934C18.5401 19.2148 18.4613 19.2152 18.3867 19.1953C18.3122 19.1754 18.2441 19.1355 18.1904 19.0801C18.137 19.0247 18.0994 18.9559 18.082 18.8809C18.0646 18.8057 18.068 18.7267 18.0918 18.6533C18.1214 18.5635 18.1372 18.4696 18.1377 18.375L18.126 18.2334C18.1042 18.0965 18.0521 17.9735 17.9805 17.8779C17.8847 17.7502 17.7577 17.6748 17.625 17.6748ZM19.9189 19.6201C19.857 20.2129 19.3411 20.6748 18.7188 20.6748H16.5312C15.8673 20.6748 15.3252 20.1492 15.3252 19.5V19.499C15.3285 19.223 15.4278 18.9566 15.6064 18.7461C15.7761 18.5462 16.0071 18.4091 16.2627 18.3545C16.2724 17.5153 16.8738 16.8252 17.625 16.8252C18.3762 16.8252 18.9767 17.5153 18.9863 18.3545C19.2423 18.409 19.4737 18.546 19.6436 18.7461C19.8222 18.9566 19.9215 19.223 19.9248 19.499V19.5L19.9189 19.6201Z" fill="white" stroke="white" stroke-width="0.1"/>
<path d="M7.58301 16.833C7.66482 16.8493 7.74092 16.8894 7.80078 16.9492C7.88048 17.0289 7.9248 17.1373 7.9248 17.25C7.92381 18.158 7.56298 19.0288 6.9209 19.6709C6.27881 20.313 5.40805 20.6738 4.5 20.6748C4.38728 20.6748 4.27892 20.6305 4.19922 20.5508C4.11952 20.4711 4.0752 20.3627 4.0752 20.25L4.0791 20.0801C4.12197 19.2339 4.47716 18.431 5.0791 17.8291C5.72119 17.187 6.59195 16.8262 7.5 16.8252L7.58301 16.833ZM7.0293 17.7197C6.51874 17.8154 6.0478 18.0616 5.67969 18.4297C5.31157 18.7978 5.06544 19.2687 4.96973 19.7793C5.48058 19.6837 5.95201 19.4386 6.32031 19.0703C6.68861 18.702 6.93369 18.2306 7.0293 17.7197Z" fill="white" stroke="white" stroke-width="0.1"/>
<path d="M9.375 5.2002C9.48772 5.2002 9.59608 5.24452 9.67578 5.32422C9.75548 5.40392 9.7998 5.51228 9.7998 5.625V9C9.7998 9.11272 9.75548 9.22108 9.67578 9.30078C9.59608 9.38048 9.48772 9.4248 9.375 9.4248H6.7998V11.9502H9.375C9.48772 11.9502 9.59608 11.9945 9.67578 12.0742C9.75548 12.1539 9.7998 12.2623 9.7998 12.375C9.7998 12.4877 9.75548 12.5961 9.67578 12.6758C9.59608 12.7555 9.48772 12.7998 9.375 12.7998H6.375C6.26228 12.7998 6.15392 12.7555 6.07422 12.6758C5.99452 12.5961 5.9502 12.4877 5.9502 12.375V9C5.9502 8.88728 5.99452 8.77892 6.07422 8.69922C6.15392 8.61952 6.26228 8.5752 6.375 8.5752H8.9502V6.0498H6.375C6.26228 6.0498 6.15392 6.00548 6.07422 5.92578C5.99452 5.84608 5.9502 5.73772 5.9502 5.625C5.9502 5.51228 5.99452 5.40392 6.07422 5.32422C6.15392 5.24452 6.26228 5.2002 6.375 5.2002H9.375Z" fill="white" stroke="white" stroke-width="0.1"/>
<path d="M14.25 5.2002C14.3627 5.2002 14.4711 5.24452 14.5508 5.32422C14.6305 5.40392 14.6748 5.51228 14.6748 5.625V9C14.6748 9.11272 14.6305 9.22108 14.5508 9.30078C14.4711 9.38048 14.3627 9.4248 14.25 9.4248H11.6748V11.9502H14.25C14.3627 11.9502 14.4711 11.9945 14.5508 12.0742C14.6305 12.1539 14.6748 12.2623 14.6748 12.375C14.6748 12.4877 14.6305 12.5961 14.5508 12.6758C14.4711 12.7555 14.3627 12.7998 14.25 12.7998H11.25C11.1373 12.7998 11.0289 12.7555 10.9492 12.6758C10.8695 12.5961 10.8252 12.4877 10.8252 12.375V9C10.8252 8.88728 10.8695 8.77892 10.9492 8.69922C11.0289 8.61952 11.1373 8.5752 11.25 8.5752H13.8252V6.0498H11.25C11.1373 6.0498 11.0289 6.00548 10.9492 5.92578C10.8695 5.84608 10.8252 5.73772 10.8252 5.625C10.8252 5.51228 10.8695 5.40392 10.9492 5.32422C11.0289 5.24452 11.1373 5.2002 11.25 5.2002H14.25Z" fill="white" stroke="white" stroke-width="0.1"/>
<path d="M16.875 7.8252C17.1865 7.82555 17.4848 7.94965 17.7051 8.16992C17.9253 8.39019 18.0495 8.68849 18.0498 9L18.0371 9.17285C18.0117 9.3438 17.9483 9.50745 17.8516 9.65234C17.7225 9.84557 17.5389 9.997 17.3242 10.0859C17.1096 10.1747 16.8733 10.1976 16.6455 10.1523C16.4177 10.107 16.2082 9.99532 16.0439 9.83105C15.8797 9.66679 15.768 9.45732 15.7227 9.22949C15.6774 9.00174 15.7003 8.76535 15.7891 8.55078C15.878 8.33608 16.0294 8.15255 16.2227 8.02344C16.4159 7.89438 16.6427 7.8252 16.875 7.8252ZM16.8115 8.68164C16.7485 8.6942 16.6909 8.72509 16.6455 8.77051C16.6001 8.81592 16.5692 8.87354 16.5566 8.93652C16.5441 8.99952 16.5506 9.06467 16.5752 9.12402C16.5998 9.18341 16.6409 9.2348 16.6943 9.27051C16.7478 9.30619 16.8107 9.3252 16.875 9.3252L16.9385 9.31836C17.001 9.30586 17.0588 9.27523 17.1045 9.22949C17.1654 9.16856 17.2001 9.08618 17.2002 9L17.1855 8.90527C17.1763 8.87504 17.1633 8.8459 17.1455 8.81934C17.1098 8.76589 17.0584 8.72479 16.999 8.7002C16.9397 8.67564 16.8745 8.66911 16.8115 8.68164Z" fill="white" stroke="white" stroke-width="0.1"/>
<path d="M16.875 6.3252C17.1097 6.3252 17.2998 6.51528 17.2998 6.75C17.2998 6.98472 17.1097 7.1748 16.875 7.1748C16.6403 7.1748 16.4502 6.98472 16.4502 6.75C16.4502 6.51528 16.6403 6.3252 16.875 6.3252Z" fill="white" stroke="white" stroke-width="0.1"/>
<path d="M16.875 10.8252C17.1097 10.8252 17.2998 11.0153 17.2998 11.25C17.2998 11.4847 17.1097 11.6748 16.875 11.6748C16.6403 11.6748 16.4502 11.4847 16.4502 11.25C16.4502 11.0153 16.6403 10.8252 16.875 10.8252Z" fill="white" stroke="white" stroke-width="0.1"/>
<path d="M16.875 4.8252C17.1097 4.8252 17.2998 5.01528 17.2998 5.25C17.2998 5.48472 17.1097 5.6748 16.875 5.6748C16.6403 5.6748 16.4502 5.48472 16.4502 5.25C16.4502 5.01528 16.6403 4.8252 16.875 4.8252Z" fill="white" stroke="white" stroke-width="0.1"/>
<path d="M16.875 12.3252C17.1097 12.3252 17.2998 12.5153 17.2998 12.75C17.2998 12.9847 17.1097 13.1748 16.875 13.1748C16.6403 13.1748 16.4502 12.9847 16.4502 12.75C16.4502 12.5153 16.6403 12.3252 16.875 12.3252Z" fill="white" stroke="white" stroke-width="0.1"/>
<path d="M18.75 2.5752C19.4592 2.57605 20.1392 2.85791 20.6406 3.35938C21.1421 3.86084 21.4239 4.54083 21.4248 5.25V15C21.4248 15.1127 21.3805 15.2211 21.3008 15.3008C21.2211 15.3805 21.1127 15.4248 21 15.4248H3C2.88728 15.4248 2.77892 15.3805 2.69922 15.3008C2.61952 15.2211 2.5752 15.1127 2.5752 15V5.25L2.58887 4.98535C2.65036 4.3734 2.92068 3.79807 3.35938 3.35938C3.86084 2.85791 4.54083 2.57605 5.25 2.5752H18.75ZM5.25 3.4248C4.76616 3.42539 4.30209 3.61783 3.95996 3.95996C3.61783 4.30209 3.42539 4.76616 3.4248 5.25V14.5752H20.5752V5.25C20.5746 4.76616 20.3822 4.30209 20.04 3.95996C19.7408 3.66069 19.3481 3.47655 18.9307 3.43457L18.75 3.4248H5.25Z" fill="white" stroke="white" stroke-width="0.1"/>
</g>
<defs>
<clipPath id="clip0_38_338">
<rect width="24" height="24" fill="white"/>
</clipPath>
</defs>
</svg>
