<svg width="24" height="24" viewBox="0 0 24 24" fill="none" xmlns="http://www.w3.org/2000/svg">
<path d="M21.5996 1.9502C21.8472 1.9502 22.0498 2.15278 22.0498 2.40039V21.5996C22.0498 21.8472 21.8472 22.0498 21.5996 22.0498H14.0479C13.8003 22.0497 13.5977 21.8472 13.5977 21.5996C13.5977 20.3904 13.7605 19.2473 14.0205 18.1777H9.97949C10.2395 19.2509 10.4023 20.3903 10.4023 21.5996C10.4023 21.8472 10.1997 22.0497 9.95215 22.0498H2.40039C2.15278 22.0498 1.9502 21.8472 1.9502 21.5996V2.40039C1.9502 2.15278 2.15278 1.9502 2.40039 1.9502H21.5996ZM20.542 10.5938C20.074 11.4018 18.4419 14.4775 18.6045 18.0166L18.626 18.3643L18.623 18.457C18.5963 18.6664 18.4288 18.8337 18.2119 18.8496L18.208 18.8506V18.8496H18.1758C17.9422 18.8495 17.7446 18.67 17.7266 18.4355C17.4508 14.9437 18.8073 11.9109 19.5098 10.5977H19.166C19.0414 10.7308 18.8336 10.9583 18.5713 11.2773C18.5412 11.4245 18.4483 11.5451 18.3115 11.6006C16.9543 13.3183 14.6557 16.8417 14.5039 21.1504H21.1504V10.5938H20.542ZM2.84961 21.1504H9.49512C9.29956 15.6121 5.56511 11.38 4.83301 10.6064H4.49023C5.17051 11.8748 6.46348 14.7608 6.29492 18.1113L6.27344 18.4443C6.25105 18.6772 6.05859 18.8583 5.82422 18.8584H5.78711V18.8574C5.54036 18.8348 5.35604 18.6193 5.37402 18.3721L5.39551 18.0244C5.5581 14.4821 3.92709 11.4061 3.45898 10.6016H2.84961V21.1504ZM12.4023 17.2783H14.2666C14.9913 14.8914 16.1836 12.9427 17.1436 11.6377H12.4023V17.2783ZM6.86035 11.6377C7.82019 12.9428 9.0088 14.8915 9.7373 17.2783H11.502V11.6377H6.86035ZM12.4023 10.7383H17.8408C18.0264 10.5175 18.1862 10.3352 18.3174 10.1914C15.6181 7.8137 15.2485 4.13987 15.2051 2.84961H12.4023V10.7383ZM8.79492 2.84961C8.75148 4.1435 8.38109 7.81268 5.68164 10.1904C5.81329 10.3321 5.97381 10.5175 6.15918 10.7383H11.498V2.84961H8.79492ZM16.1094 2.84961C16.1353 3.45707 16.2423 4.62642 16.6572 5.90625C17.083 7.21916 17.8307 8.64525 19.1387 9.70215H21.1504V2.84961H16.1094ZM2.84961 9.70215H4.85742C6.1673 8.64525 6.9151 7.21915 7.34082 5.90625C7.75573 4.62654 7.86289 3.45726 7.89062 2.84961H2.84961V9.70215Z" fill="white" stroke="white" stroke-width="0.1"/>
</svg>
