<svg width="28" height="28" viewBox="0 0 28 28" fill="none" xmlns="http://www.w3.org/2000/svg">
<path d="M11.6667 7L11.6665 5.8338C11.6663 4.54495 12.711 3.5 13.9998 3.5C15.2883 3.5 16.3329 4.54438 16.3332 5.83287L16.3334 7M16.3327 21.5833H20.3389C22.1979 21.5833 23.1973 19.3996 21.9822 17.9928L21.1513 17.0307C20.1234 15.8407 19.6299 14.2805 19.7865 12.7158C20.1239 9.34323 17.4756 6.41667 14.0862 6.41667H13.9142C10.5246 6.41667 7.8759 9.34324 8.21299 12.7161C8.36935 14.2806 7.8759 15.8406 6.84825 17.0306L6.01764 17.9925C4.8026 19.3995 5.80215 21.5833 7.66118 21.5833H11.6661M16.3327 21.5833V22.1667C16.3327 23.4553 15.288 24.5 13.9994 24.5C12.7107 24.5 11.6661 23.4553 11.6661 22.1667V21.5833M16.3327 21.5833H11.6661" stroke="#EEEEEE" stroke-width="1.2" stroke-linejoin="round"/>
</svg>
