<svg width="19" height="22" viewBox="0 0 19 22" fill="none" xmlns="http://www.w3.org/2000/svg">
<path d="M7.79675 15.9108L11.1708 15.9138C11.555 15.9142 11.8774 16.2113 11.8778 16.5876L11.8807 18.8552C11.8811 19.0717 11.7944 19.278 11.6385 19.4343H11.6376C11.4668 19.6045 11.2275 19.7008 10.9803 19.7009H10.9794L7.99011 19.6979C7.50192 19.6976 7.09213 19.3257 7.09167 18.8552L7.08875 16.5856C7.08837 16.4102 7.15758 16.2443 7.28308 16.1188C7.41686 15.9855 7.60363 15.9109 7.79578 15.9108H7.79675ZM7.98328 18.8024C7.98567 18.8027 7.98819 18.8044 7.99109 18.8044L10.9774 18.8073L10.9833 16.8054L7.98132 16.8034L7.98328 18.8024Z" fill="#ECC681" stroke="#ECC681" stroke-width="0.2"/>
<path d="M7.5365 17.3573L11.433 17.3622C11.6798 17.3622 11.8797 17.5622 11.8793 17.8085C11.8791 18.0548 11.679 18.2537 11.433 18.2538L7.53552 18.2489C7.28874 18.2489 7.0898 18.0489 7.09021 17.8026L7.099 17.7128C7.14069 17.5096 7.32064 17.3575 7.53552 17.3573H7.5365Z" fill="#ECC681" stroke="#ECC681" stroke-width="0.2"/>
<path d="M9.4729 0.100388C9.7191 0.100388 9.91894 0.299555 9.91919 0.5457V2.54472C9.91919 2.79101 9.71966 2.99101 9.4729 2.99101C9.22635 2.99077 9.02759 2.79086 9.02759 2.54472V0.5457C9.02783 0.299299 9.22697 0.100632 9.4729 0.100388Z" fill="#ECC681" stroke="#ECC681" stroke-width="0.2"/>
<path d="M4.78577 1.34903C4.99891 1.22496 5.27247 1.29713 5.39612 1.51016L6.401 3.24161C6.52497 3.45476 6.45196 3.72837 6.23889 3.85196L6.23792 3.85098C6.16776 3.89174 6.09115 3.91251 6.01526 3.91251C5.8619 3.9124 5.71235 3.83237 5.62952 3.68985L4.62463 1.9584C4.50068 1.74536 4.57295 1.47273 4.78577 1.34903Z" fill="#ECC681" stroke="#ECC681" stroke-width="0.2"/>
<path d="M1.4082 4.68726C1.54556 4.53141 1.77794 4.48904 1.96484 4.59546L3.70605 5.59448C3.89262 5.70174 3.97272 5.92402 3.9082 6.12085L3.87109 6.20386C3.78835 6.34767 3.63789 6.42847 3.4834 6.42847C3.4269 6.42846 3.36989 6.41757 3.31543 6.39526L3.26172 6.3689L1.52051 5.36987C1.30706 5.24718 1.23316 4.97409 1.35547 4.7605L1.4082 4.68726Z" fill="#ECC681" stroke="#ECC681" stroke-width="0.2"/>
<path d="M2.55737 8.9736C2.80383 8.97378 3.00342 9.17294 3.00366 9.41891C3.00366 9.66509 2.80398 9.86503 2.55737 9.8652H0.545654C0.299102 9.86496 0.100342 9.66505 0.100342 9.41891C0.100587 9.17292 0.29966 8.97385 0.545654 8.9736H2.55737Z" fill="#ECC681" stroke="#ECC681" stroke-width="0.2"/>
<path d="M3.26208 12.4697C3.4754 12.3484 3.74755 12.4203 3.87048 12.6347C3.99328 12.8484 3.91927 13.1214 3.70544 13.2441L1.96423 14.2431C1.89515 14.2823 1.81818 14.3027 1.74255 14.3027C1.58814 14.3026 1.4376 14.2214 1.35486 14.0781C1.23227 13.8645 1.30626 13.5914 1.5199 13.4687L3.26111 12.4697H3.26208Z" fill="#ECC681" stroke="#ECC681" stroke-width="0.2"/>
<path d="M15.1287 12.5612C15.266 12.4053 15.4984 12.363 15.6853 12.4694L17.4265 13.4684C17.6131 13.5757 17.6932 13.798 17.6287 13.9948L17.5916 14.0778C17.5088 14.2216 17.3583 14.3024 17.2039 14.3024C17.1474 14.3024 17.0903 14.2915 17.0359 14.2692L16.9822 14.2428L15.241 13.2438C15.0275 13.1211 14.9536 12.848 15.0759 12.6344L15.1287 12.5612Z" fill="#ECC681" stroke="#ECC681" stroke-width="0.2"/>
<path d="M18.4005 8.9736C18.647 8.97378 18.8466 9.17294 18.8468 9.41891C18.8468 9.66509 18.6471 9.86503 18.4005 9.8652H16.3888C16.1422 9.86496 15.9435 9.66505 15.9435 9.41891C15.9437 9.17292 16.1428 8.97385 16.3888 8.9736H18.4005Z" fill="#ECC681" stroke="#ECC681" stroke-width="0.2"/>
<path d="M16.9816 4.59564C17.1953 4.47353 17.4681 4.54683 17.5909 4.76068C17.7137 4.97435 17.6397 5.24738 17.4259 5.37006L15.6847 6.36908C15.6151 6.409 15.5383 6.42865 15.463 6.42865C15.3086 6.42862 15.1581 6.3474 15.0753 6.20404C14.9528 5.99044 15.0267 5.71731 15.2404 5.59467L16.9816 4.59564Z" fill="#ECC681" stroke="#ECC681" stroke-width="0.2"/>
<path d="M13.5508 1.51016C13.6747 1.29738 13.9479 1.2249 14.1611 1.34903L14.1602 1.35001C14.373 1.47366 14.4461 1.74536 14.3223 1.9584L13.3174 3.68985C13.2344 3.83306 13.084 3.91251 12.9307 3.91251C12.8545 3.91245 12.7774 3.89213 12.707 3.85098C12.4942 3.72726 12.4219 3.45465 12.5459 3.24161L13.5508 1.51016Z" fill="#ECC681" stroke="#ECC681" stroke-width="0.2"/>
<path d="M9.48328 4.39967C12.2654 4.39967 14.5299 6.65523 14.5302 9.42897C14.5302 10.3033 14.3019 11.1646 13.87 11.9192C13.7635 12.1049 13.66 12.2896 13.5673 12.4798C13.2573 13.1172 13.0023 13.6896 12.8143 14.1643C12.6256 14.6409 12.5066 15.0135 12.4667 15.2532C12.3008 16.2532 11.7264 16.6509 11.4764 16.7776H11.4755C11.4105 16.8099 11.3414 16.8255 11.2733 16.8255C11.111 16.8253 10.9544 16.7361 10.8759 16.5813C10.7642 16.3612 10.8523 16.092 11.0721 15.9807C11.1811 15.9253 11.4839 15.7218 11.5858 15.1067C11.6523 14.7078 11.8532 14.1469 12.0819 13.594C12.3116 13.0388 12.5733 12.4823 12.7645 12.0891C12.8732 11.8667 12.9927 11.6536 13.0946 11.4758C13.4492 10.8566 13.6366 10.1489 13.6366 9.42995C13.6366 7.14909 11.7738 5.29229 9.48328 5.29225C7.19239 5.29225 5.32898 7.14907 5.32898 9.42995C5.32902 10.1532 5.52012 10.8646 5.87976 11.4876C5.9727 11.6492 6.05969 11.8137 6.14148 11.9817C6.30239 12.3084 6.57497 12.8754 6.8241 13.4661C7.07208 14.0541 7.30232 14.676 7.3739 15.1077C7.47592 15.7231 7.77938 15.9259 7.88757 15.9807C8.1073 16.092 8.19546 16.3612 8.08386 16.5813C7.97281 16.8 7.70452 16.8892 7.48425 16.7776C7.23437 16.651 6.65893 16.2535 6.49304 15.2532C6.43168 14.8832 6.20657 14.2889 5.96179 13.718C5.71861 13.1509 5.46051 12.6185 5.3407 12.3753V12.3743C5.26727 12.2237 5.18932 12.0778 5.10632 11.9339C4.66851 11.1754 4.43738 10.3086 4.43738 9.42897C4.43758 6.65532 6.70095 4.39982 9.48328 4.39967Z" fill="#ECC681" stroke="#ECC681" stroke-width="0.2"/>
<path d="M7.60327 18.884C7.79832 18.7339 8.0788 18.7708 8.22925 18.966L9.12671 20.132H9.83765L10.7361 18.9699C10.8871 18.7743 11.1672 18.7383 11.3621 18.8888C11.5568 19.0393 11.5927 19.3198 11.4421 19.5148L10.488 20.7502C10.3538 20.9232 10.1546 21.0246 9.94019 21.0246H9.02417C8.81055 21.0246 8.61121 20.9234 8.47729 20.7511L8.47632 20.7502L7.52124 19.5099C7.37148 19.3147 7.40791 19.0341 7.60327 18.884Z" fill="#ECC681" stroke="#ECC681" stroke-width="0.2"/>
</svg>
