<svg width="22" height="22" viewBox="0 0 22 22" fill="none" xmlns="http://www.w3.org/2000/svg">
<g clip-path="url(#clip0_38_717)">
<path d="M5.88367 10.0372C5.88367 10.1548 5.837 10.2684 5.75378 10.3516C5.67067 10.4347 5.5578 10.4814 5.44031 10.4815C5.32263 10.4815 5.20907 10.4348 5.12585 10.3516C5.04264 10.2684 4.99597 10.1548 4.99597 10.0372V9.66216C4.98607 9.5633 4.93839 9.4715 4.86316 9.4063C4.78587 9.33943 4.68488 9.30601 4.58289 9.31255L4.57019 9.31352V9.31255C4.46815 9.30596 4.36719 9.33932 4.28992 9.4063C4.21475 9.47151 4.16787 9.56333 4.15808 9.66216V10.5694H4.1571C4.14638 10.9062 4.00291 11.2249 3.75769 11.4561C3.51283 11.6868 3.18672 11.8105 2.85046 11.8018V11.8028L2.84949 11.8018L2.84753 11.8028V11.8018C2.70571 11.8009 2.5656 11.7778 2.43152 11.7334V18.6026C2.44514 18.6147 2.46922 18.6334 2.51062 18.6563C2.57233 18.6904 2.65959 18.7293 2.77234 18.7696C2.99745 18.8499 3.31712 18.9353 3.72546 19.0137C4.54196 19.1706 5.70641 19.2979 7.16589 19.2979H7.16687C8.33699 19.3104 9.50584 19.2106 10.6571 19.001L10.6659 19H10.6757C10.7849 18.9828 10.8965 19.0052 10.9891 19.0665C11.0873 19.1313 11.156 19.2324 11.1796 19.3477C11.2031 19.463 11.18 19.5835 11.1151 19.6817C11.0503 19.7796 10.9489 19.8475 10.8339 19.8711L10.8309 19.8721C9.62218 20.0929 8.39458 20.1971 7.16589 20.1846V20.1836C6.8789 20.1836 5.49528 20.1747 4.18054 19.9883C3.52305 19.8951 2.87522 19.7572 2.38953 19.5508C2.14678 19.4477 1.93811 19.3247 1.78894 19.1768C1.6383 19.0275 1.54585 18.8489 1.54578 18.6407V6.82524C1.54578 6.56279 1.69275 6.34939 1.91589 6.17973C2.13797 6.01095 2.44574 5.87627 2.79675 5.76762C3.50033 5.54991 4.40743 5.42736 5.22839 5.35844C5.28635 5.35361 5.34486 5.36031 5.40027 5.37798C5.45575 5.39568 5.50714 5.42438 5.55164 5.46196C5.59614 5.49956 5.6333 5.54594 5.66003 5.5977C5.68661 5.64934 5.70301 5.70585 5.70789 5.76372C5.71276 5.8217 5.70601 5.88015 5.68835 5.93559C5.67067 5.99105 5.6419 6.04247 5.60437 6.08696C5.56676 6.13149 5.52041 6.16861 5.46863 6.19536C5.41695 6.222 5.36055 6.23832 5.30261 6.24321C4.35786 6.32234 3.67394 6.44756 3.20593 6.57426C2.97199 6.63761 2.79298 6.70155 2.66296 6.75883C2.60814 6.783 2.56323 6.80588 2.52722 6.82622C2.54093 6.83403 2.55476 6.84422 2.57117 6.85258C2.64531 6.89035 2.74254 6.93049 2.86218 6.97173C3.10128 7.05412 3.42575 7.13911 3.83093 7.21489C4.64153 7.36645 5.7694 7.48247 7.16687 7.48247C8.56392 7.48245 9.69048 7.3664 10.5009 7.21489C10.9063 7.13908 11.2313 7.05416 11.4706 6.97173C11.5902 6.93049 11.6874 6.89036 11.7616 6.85258C11.7772 6.84462 11.7904 6.83466 11.8036 6.82719C11.7693 6.80803 11.7276 6.78537 11.6766 6.76274C11.5504 6.70673 11.3769 6.64457 11.1503 6.58208C10.6967 6.45702 10.0342 6.33198 9.12 6.25102H9.11902C9.00278 6.23937 8.89563 6.18186 8.82117 6.09184C8.74684 6.00185 8.71121 5.88585 8.72156 5.76958C8.732 5.65336 8.78776 5.54613 8.87683 5.47075C8.96603 5.39529 9.08163 5.35816 9.19812 5.36723H9.1991C9.99879 5.43798 10.8817 5.56145 11.5673 5.77837C11.9094 5.88665 12.21 6.02036 12.4266 6.18755C12.6443 6.35566 12.788 6.56676 12.788 6.82524V13.5206C12.788 13.6382 12.7413 13.7518 12.6581 13.835C12.575 13.918 12.4621 13.9648 12.3446 13.9649C12.2269 13.9649 12.1134 13.9182 12.0302 13.835C11.9469 13.7518 11.9003 13.6382 11.9003 13.5206V7.74712C11.1907 8.03804 10.1558 8.19504 9.23718 8.27641C8.25135 8.36375 7.38456 8.37016 7.16589 8.37016C6.94703 8.37016 6.08026 8.36373 5.0946 8.27641C4.17599 8.19502 3.14107 8.03807 2.43152 7.74712V10.5586L2.44421 10.6329C2.46461 10.7057 2.50629 10.7721 2.56433 10.8223C2.64161 10.8891 2.74268 10.9228 2.8446 10.9161L2.8573 10.9151L2.85046 11.0118L2.8573 10.9161C2.9593 10.9228 3.06027 10.8892 3.13757 10.8223C3.21478 10.7555 3.26235 10.6604 3.27039 10.5586V9.65923C3.28098 9.32216 3.4244 9.00285 3.6698 8.77153C3.9139 8.54146 4.2389 8.41699 4.5741 8.42485C4.91128 8.41547 5.2388 8.54015 5.48425 8.77153C5.72959 9.00285 5.87308 9.3222 5.88367 9.65923V10.0372Z" fill="#ECC681" stroke="#ECC681" stroke-width="0.2"/>
<path d="M7.16687 -0.0861969C7.2448 -0.0861245 7.32148 -0.0665724 7.38953 -0.0285797C7.45757 0.00941461 7.51459 0.0643006 7.55554 0.1306L7.56042 0.137436H7.55945C7.5858 0.188762 7.91085 0.813066 8.22937 1.59349C8.54595 2.36919 8.86404 3.31735 8.86414 4.01146C8.86414 4.86103 8.65449 5.4337 8.38074 5.81712C8.13189 6.16563 7.83362 6.34912 7.60925 6.44701V6.82494C7.60925 6.94262 7.56259 7.05519 7.47937 7.13841C7.39615 7.22163 7.28358 7.26927 7.16589 7.26927C7.04824 7.26925 6.93561 7.22161 6.85242 7.13841C6.76926 7.0552 6.72253 6.94258 6.72253 6.82494V6.42259C6.1408 6.15067 5.46817 5.44661 5.46863 4.01048C5.46875 3.31638 5.78584 2.3681 6.10242 1.59251C6.42091 0.812271 6.74592 0.188418 6.77332 0.136459L6.77722 0.1306C6.81815 0.0643065 6.87522 0.00942337 6.94324 -0.0285797C7.01141 -0.0666414 7.08879 -0.0861969 7.16687 -0.0861969ZM6.25574 4.01146L6.35437 4.0222C6.32596 4.2915 6.36 4.56378 6.453 4.8181C6.51669 4.99221 6.60915 5.15321 6.72253 5.29857V4.63744C6.72265 4.5199 6.7693 4.40708 6.85242 4.32396C6.9356 4.24087 7.04832 4.1941 7.16589 4.19408C7.28346 4.19408 7.39618 4.24091 7.47937 4.32396C7.56249 4.40708 7.60914 4.5199 7.60925 4.63744V5.3513C7.79698 5.11987 7.97644 4.71741 7.97644 4.01146C7.97636 3.63176 7.84411 3.1177 7.66199 2.59447C7.5111 2.16096 7.32606 1.72988 7.16589 1.37474C7.00573 1.72988 6.82069 2.16097 6.6698 2.59447C6.48768 3.1177 6.35542 3.63176 6.35535 4.01146V4.0222L6.25574 4.01146Z" fill="#ECC681" stroke="#ECC681" stroke-width="0.2"/>
<path d="M9.33545 11.2227C9.35097 11.3219 9.401 11.4127 9.47705 11.4785C9.55423 11.5453 9.65334 11.582 9.75537 11.582C9.85722 11.582 9.95562 11.5451 10.0327 11.4785C10.1088 11.4128 10.1588 11.3219 10.1743 11.2227V8.75783C10.1743 8.64026 10.2211 8.52755 10.3042 8.44435C10.3874 8.36113 10.501 8.31447 10.6187 8.31447C10.7362 8.31459 10.849 8.36124 10.9321 8.44435C11.0152 8.52755 11.062 8.64025 11.062 8.75783V11.2363C11.0511 11.5732 10.9069 11.8919 10.6616 12.1231C10.4174 12.3532 10.0926 12.4767 9.75732 12.4688L9.7583 12.4697L9.75537 12.4688L9.75244 12.4697V12.4688C9.41727 12.4767 9.09226 12.3531 8.84814 12.1231C8.60296 11.8919 8.45948 11.5732 8.44873 11.2363V10.8926C8.4331 10.7937 8.38294 10.7033 8.30713 10.6377C8.22995 10.571 8.13084 10.5342 8.02881 10.5342C7.9269 10.5343 7.82857 10.5711 7.75146 10.6377C7.67556 10.7033 7.62552 10.7936 7.60986 10.8926V12.5733C7.59913 12.9102 7.45482 13.2297 7.20947 13.461C6.96529 13.6909 6.64039 13.8146 6.30518 13.8067H6.30322L6.30029 13.8076V13.8067C5.96514 13.8144 5.64008 13.691 5.396 13.461C5.15066 13.2297 5.00732 12.9102 4.99658 12.5733V12.3799C4.9966 12.3217 5.0075 12.2638 5.02979 12.21C5.05208 12.1562 5.0853 12.1076 5.12646 12.0664C5.16766 12.0252 5.21621 11.992 5.27002 11.9697C5.32385 11.9474 5.38168 11.9365 5.43994 11.9365C5.49821 11.9365 5.55603 11.9474 5.60986 11.9697C5.66367 11.992 5.71223 12.0252 5.75342 12.0664C5.79459 12.1076 5.8278 12.1562 5.8501 12.21C5.87238 12.2638 5.88328 12.3217 5.8833 12.3799V12.5625L5.89697 12.6367C5.91738 12.7096 5.95812 12.7759 6.01611 12.8262C6.09341 12.8932 6.19431 12.9265 6.29639 12.9199L6.30908 12.919L6.30322 13.0156L6.30908 12.9199C6.41108 12.9265 6.51207 12.8931 6.58936 12.8262C6.66667 12.7592 6.71414 12.6635 6.72217 12.5615V10.877C6.74267 10.5444 6.88958 10.2322 7.13232 10.0039C7.37504 9.77571 7.69566 9.64852 8.02881 9.64845C8.36205 9.64845 8.68349 9.77565 8.92627 10.0039C9.16886 10.2322 9.31495 10.5445 9.33545 10.877L9.33643 10.8828H9.33545V11.2227Z" fill="#ECC681" stroke="#ECC681" stroke-width="0.2"/>
<path d="M5.43994 10.7675C5.55763 10.7675 5.6702 10.8141 5.75342 10.8974C5.83664 10.9806 5.8833 11.0931 5.8833 11.2108V11.2704C5.88318 11.3879 5.83653 11.5008 5.75342 11.5839C5.67022 11.667 5.55753 11.7138 5.43994 11.7138C5.32236 11.7138 5.20966 11.667 5.12646 11.5839C5.04335 11.5008 4.9967 11.3879 4.99658 11.2704V11.2108C4.99658 11.0931 5.04325 10.9806 5.12646 10.8974C5.20968 10.8141 5.32225 10.7675 5.43994 10.7675Z" fill="#ECC681" stroke="#ECC681" stroke-width="0.2"/>
<path d="M15.1764 16.1508C15.4438 16.0976 15.7213 16.1246 15.9733 16.229C16.225 16.3333 16.44 16.5102 16.5914 16.7368C16.7429 16.9634 16.8238 17.2298 16.8239 17.5024V17.5034C16.8233 17.8685 16.6786 18.2187 16.4205 18.477C16.1946 18.703 15.8979 18.8426 15.5826 18.8745L15.4459 18.8813C15.1732 18.8814 14.9061 18.8013 14.6793 18.6499C14.4526 18.4984 14.2759 18.2826 14.1715 18.0307C14.0671 17.7788 14.0403 17.5013 14.0934 17.2338C14.1466 16.9665 14.2776 16.7206 14.4703 16.5278C14.6631 16.335 14.909 16.2041 15.1764 16.1508ZM15.3737 17.017C15.3021 17.0276 15.2332 17.0537 15.1725 17.0942C15.0917 17.1481 15.0291 17.2252 14.9918 17.3149C14.9546 17.4047 14.9446 17.5037 14.9635 17.5991C14.9824 17.6944 15.0295 17.7823 15.0983 17.851C15.1668 17.9195 15.2542 17.9658 15.3492 17.9848C15.4445 18.0037 15.5437 17.9946 15.6334 17.9575C15.7232 17.9202 15.8002 17.8567 15.8541 17.7758C15.9079 17.6952 15.9361 17.6003 15.9362 17.5034C15.9358 17.3734 15.8845 17.2486 15.7926 17.1567C15.7007 17.0648 15.5759 17.0125 15.4459 17.0122L15.3737 17.017Z" fill="#ECC681" stroke="#ECC681" stroke-width="0.2"/>
<path d="M15.4679 12.4722L15.4669 12.4732C16.1355 12.4747 16.6957 12.6781 17.09 13.0493C17.4708 13.4081 17.6858 13.915 17.7023 14.5201C17.9478 14.4225 18.2102 14.3742 18.4747 14.3814C18.761 14.3892 19.0422 14.4597 19.298 14.5884C19.5538 14.7171 19.7783 14.9013 19.9552 15.1265C20.1318 15.3515 20.257 15.6125 20.3214 15.8911C20.5115 16.4207 20.508 17.001 20.3097 17.5279L20.3077 17.5327L20.3068 17.5318C20.1862 17.8085 20.0061 18.0553 19.7784 18.2534C19.5618 18.4419 19.3069 18.5796 19.0323 18.6626C19.1992 18.865 19.3252 19.0981 19.3995 19.3501C19.4805 19.6247 19.5005 19.9138 19.4572 20.1968C19.4137 20.4799 19.3082 20.7501 19.1486 20.9878C18.9906 21.2231 18.7825 21.42 18.5402 21.5669C17.9968 21.962 17.4213 22.128 16.882 22.0591C16.3556 21.9919 15.8771 21.7017 15.506 21.2095C15.3341 21.4615 15.1092 21.6731 14.8448 21.8267C14.5575 21.9936 14.2335 22.0883 13.9015 22.1021H13.8937C13.4205 22.0868 12.9646 21.9213 12.5919 21.6294V21.6284C12.1247 21.3111 11.7852 20.8383 11.6359 20.2935L11.6349 20.2886C11.5697 19.9938 11.571 19.6883 11.6388 19.3941C11.7018 19.1205 11.8221 18.8641 11.9894 18.6392C11.7328 18.5629 11.4916 18.4414 11.2814 18.2749C11.053 18.0941 10.8652 17.8672 10.7286 17.6099L10.7247 17.6031C10.5034 17.0947 10.4885 16.5195 10.6837 16.0005C10.8409 15.4593 11.1857 14.9914 11.6564 14.6812L11.6613 14.6783C11.9213 14.5253 12.2123 14.4323 12.5128 14.4058C12.7971 14.3807 13.0831 14.4175 13.3527 14.5103C13.3401 14.2564 13.3749 14.0023 13.4601 13.7622C13.556 13.4923 13.7107 13.2461 13.9122 13.0425C14.1136 12.8392 14.3574 12.683 14.6261 12.5845C14.895 12.4859 15.1826 12.4471 15.4679 12.4722ZM15.4572 13.3589C15.038 13.3589 14.7388 13.467 14.5441 13.6646C14.3515 13.86 14.2449 14.1595 14.2423 14.5786C14.3036 14.8118 14.4027 15.0326 14.5363 15.232L14.6837 15.4273L14.6857 15.4302L14.7316 15.5015C14.7696 15.5763 14.7857 15.661 14.7775 15.7456C14.7664 15.8585 14.7127 15.9632 14.6271 16.0376C14.5413 16.1121 14.43 16.151 14.3165 16.146C14.2031 16.1411 14.0957 16.0929 14.0167 16.0113L14.0138 16.0083V16.0074C13.7646 15.7302 13.4569 15.5122 13.1134 15.3677L12.9913 15.3267C12.8671 15.293 12.7376 15.2803 12.6085 15.2896C12.4366 15.3019 12.2698 15.3532 12.1202 15.439L12.1193 15.438C11.8284 15.6382 11.6178 15.9361 11.5245 16.2769L11.5226 16.2847L11.5187 16.2935C11.4478 16.4432 11.4122 16.6073 11.4152 16.773C11.4182 16.9389 11.4598 17.1022 11.5363 17.2495C11.6127 17.3969 11.7226 17.5246 11.8566 17.6226C11.9891 17.7195 12.1422 17.7834 12.3038 17.812C12.6461 17.8292 12.9878 17.7694 13.3029 17.6343L13.3058 17.6324C13.3566 17.6125 13.4114 17.6025 13.4659 17.6021C13.5667 17.602 13.6646 17.6368 13.7433 17.6997C13.822 17.7627 13.8774 17.8504 13.8995 17.9488C13.9216 18.0471 13.9095 18.1502 13.8654 18.2408C13.8212 18.3312 13.7473 18.4037 13.6564 18.4468L13.6534 18.4488C13.3011 18.6008 12.9878 18.8308 12.7374 19.1216C12.6281 19.254 12.5493 19.409 12.5079 19.5757C12.4669 19.7411 12.4634 19.9137 12.4972 20.0806C12.5849 20.3788 12.7629 20.641 13.005 20.8326L13.1124 20.9107L13.1163 20.9126L13.2423 20.9986C13.5319 21.1801 13.7959 21.2424 14.0353 21.2027C14.3066 21.1575 14.5684 20.9765 14.8165 20.6372C14.96 20.3097 15.0053 19.9477 14.9445 19.5952L14.9425 19.5826V19.5816L14.9406 19.5132V19.5113C14.9383 19.3973 14.9798 19.2867 15.0568 19.2027C15.1339 19.1186 15.2408 19.0667 15.3546 19.0591C15.4683 19.0516 15.5806 19.0887 15.6681 19.1617C15.7556 19.2347 15.8114 19.3385 15.8243 19.4517L15.8253 19.4566L15.84 19.6158C15.8845 19.9819 16.004 20.3356 16.1925 20.6538C16.5258 21.1118 16.8939 21.2156 17.2159 21.1851C17.5479 21.1535 17.8447 20.9772 18.0167 20.8521C18.3566 20.6051 18.5351 20.342 18.5763 20.0679C18.617 19.7962 18.526 19.4914 18.2804 19.1499C17.9766 18.9109 17.6206 18.7462 17.2413 18.6704L17.2384 18.6695C17.2026 18.6609 17.1654 18.6519 17.1281 18.6421V18.6431C17.0135 18.6155 16.9143 18.5434 16.8527 18.4429C16.7911 18.3423 16.7723 18.2207 16.7999 18.106C16.8276 17.9914 16.8996 17.8921 17.0001 17.8306C17.1007 17.7692 17.2215 17.7503 17.3361 17.7779H17.3351C17.3622 17.784 17.4027 17.7933 17.4532 17.8062L17.4542 17.8072C17.8689 17.9171 18.3044 17.9244 18.7228 17.8296L18.8448 17.7906C18.9653 17.7448 19.0778 17.6795 19.1769 17.5962C19.3084 17.4856 19.4128 17.3465 19.4835 17.19C19.6009 16.8566 19.5967 16.4924 19.4718 16.1617L19.4708 16.1577C19.3411 15.7581 19.1456 15.5073 18.8976 15.3833C18.6492 15.2592 18.3271 15.2511 17.921 15.3833C17.8107 15.4196 17.6836 15.5332 17.5499 15.6949C17.4845 15.774 17.4202 15.8606 17.3595 15.9478L17.1876 16.2046C17.124 16.3022 17.0255 16.3715 16.9122 16.399C16.7989 16.4264 16.6796 16.4098 16.5782 16.3521H16.5773C16.478 16.2951 16.4052 16.2008 16.3751 16.0904C16.3451 15.9798 16.3603 15.8617 16.4171 15.7622L16.4191 15.7583C16.6404 15.4065 16.7771 15.008 16.8165 14.5943L16.8058 14.3931C16.7565 13.9534 16.5448 13.7052 16.3009 13.5611C16.0138 13.3914 15.6699 13.3589 15.4572 13.3589Z" fill="#ECC681" stroke="#ECC681" stroke-width="0.2"/>
</g>
<defs>
<clipPath id="clip0_38_717">
<rect width="22" height="22" fill="white"/>
</clipPath>
</defs>
</svg>
