<svg width="22" height="22" viewBox="0 0 22 22" fill="none" xmlns="http://www.w3.org/2000/svg">
<mask id="path-1-outside-1_38_747" maskUnits="userSpaceOnUse" x="2.88257" y="-0.352875" width="16" height="22" fill="black">
<rect fill="white" x="2.88257" y="-0.352875" width="16" height="22"/>
<path d="M10.176 0.693047C6.81133 1.08128 4.12603 3.89599 3.89956 7.29305C3.7378 9.59011 4.74074 11.8225 6.4878 13.246C7.32897 13.9254 7.87897 15.1872 7.87897 16.546V18.4548C7.87897 20.0725 9.17309 21.3666 10.7907 21.3666H11.1466C12.7643 21.3666 14.0584 20.0725 14.0584 18.4548C14.0584 17.3225 14.0584 17.6783 14.0584 16.546C14.0584 15.2195 14.576 13.9578 15.4172 13.2783C17.0996 11.9195 18.0702 9.91364 18.0702 7.74599C18.0702 3.63716 14.5113 0.207753 10.176 0.693047ZM11.179 20.7195H10.8231C10.0143 20.7195 9.3025 20.2989 8.88192 19.6519H13.0878C12.6996 20.2989 11.9878 20.7195 11.179 20.7195ZM13.3466 19.0048H8.62309C8.55839 18.7136 8.55839 18.5519 8.55839 18.2607H13.4437C13.4437 18.5519 13.4437 18.6813 13.3466 19.0048ZM13.4437 17.6136H8.52603V16.8695H13.4113V17.6136H13.4437ZM15.029 12.7607C14.1231 13.5048 13.5084 14.7989 13.4437 16.2225H8.52603C8.42897 14.8313 7.84662 13.5048 6.90839 12.7607C5.29074 11.4342 4.41721 9.42834 4.54662 7.3254C4.74074 4.25187 7.19956 1.66364 10.2407 1.34011C14.2201 0.919518 17.4231 4.0254 17.4231 7.74599C17.4231 9.71952 16.5496 11.5313 15.029 12.7607Z"/>
<path d="M11.6742 5.55522L11.5642 6.14996C11.542 6.27403 11.5549 6.40184 11.6016 6.51893C11.6482 6.63602 11.7267 6.73772 11.8282 6.81252C11.9354 6.89377 12.0632 6.94345 12.1972 6.95595C12.3312 6.96846 12.466 6.94329 12.5864 6.88329L13.1856 6.58996L13.7851 6.88549C13.8854 6.93509 13.9958 6.96094 14.1077 6.96102C14.265 6.96108 14.4178 6.90956 14.543 6.81436C14.6441 6.7393 14.7223 6.63744 14.7686 6.5203C14.815 6.40315 14.8276 6.27538 14.8051 6.15142L14.6951 5.55669L15.1615 5.13099C15.2578 5.04494 15.3271 4.93296 15.3613 4.80847C15.3954 4.68398 15.3929 4.55229 15.354 4.42919C15.3138 4.30156 15.2377 4.18822 15.1347 4.10272C15.0318 4.01721 14.9064 3.96316 14.7736 3.94702L14.1092 3.85646L13.8159 3.30059C13.7539 3.18705 13.6625 3.09229 13.5513 3.02627C13.44 2.96026 13.3131 2.92542 13.1837 2.92542C13.0544 2.92542 12.9274 2.96026 12.8162 3.02627C12.705 3.09229 12.6136 3.18705 12.5516 3.30059L12.2583 3.85646L11.5939 3.94702C11.4614 3.96356 11.3365 4.01779 11.234 4.10327C11.1315 4.18875 11.0557 4.30187 11.0156 4.42919C10.9771 4.552 10.9747 4.6833 11.0088 4.80741C11.0429 4.93153 11.1119 5.04322 11.2078 5.12916L11.6742 5.55522ZM12.5461 4.55789C12.604 4.55001 12.6591 4.52844 12.7069 4.49496C12.7548 4.46147 12.7939 4.41705 12.8211 4.36539L13.1815 3.66872L13.5482 4.36539C13.5754 4.41705 13.6145 4.46147 13.6624 4.49496C13.7102 4.52844 13.7653 4.55001 13.8232 4.55789L14.5859 4.66166L14.0505 5.15079C14.0047 5.19274 13.9704 5.24563 13.9506 5.30451C13.9309 5.36338 13.9264 5.42631 13.9376 5.48739L14.0689 6.20679L13.3465 5.85112C13.2961 5.82628 13.2407 5.81336 13.1845 5.81336C13.1283 5.81336 13.0728 5.82628 13.0224 5.85112L12.2986 6.21412L12.4313 5.48739C12.4426 5.42631 12.4381 5.36338 12.4183 5.30451C12.3986 5.24563 12.3642 5.19274 12.3184 5.15079L11.7831 4.66166L12.5461 4.55789Z"/>
<path d="M6.81138 7.04866C6.77476 7.15755 6.76909 7.27447 6.79498 7.3864C6.82088 7.49833 6.87732 7.60087 6.95804 7.68263L7.25871 7.98733L7.18538 8.42146C7.16593 8.53631 7.17945 8.65431 7.22436 8.76178C7.26927 8.86926 7.34373 8.96179 7.43911 9.02866C7.53059 9.0942 7.6388 9.13243 7.75115 9.13892C7.8635 9.14541 7.97538 9.11989 8.07381 9.06533L8.43058 8.87026L8.78734 9.06533C8.88581 9.11976 8.99767 9.14521 9.10999 9.13872C9.22231 9.13223 9.3305 9.09407 9.42204 9.02866C9.51708 8.96149 9.59114 8.86877 9.63566 8.76125C9.68018 8.65372 9.69332 8.53578 9.67357 8.42109L9.60024 7.98696L9.90054 7.68226C9.98133 7.60055 10.0378 7.49801 10.0637 7.38606C10.0896 7.27412 10.0839 7.15718 10.0472 7.04829C10.0124 6.94132 9.94864 6.8461 9.86292 6.77326C9.7772 6.70043 9.67293 6.65284 9.56174 6.63579L9.15841 6.57199L8.97507 6.18626C8.9268 6.08201 8.84971 5.99376 8.75291 5.9319C8.6561 5.87005 8.54362 5.83718 8.42874 5.83718C8.31386 5.83718 8.20138 5.87005 8.10458 5.9319C8.00777 5.99376 7.93068 6.08201 7.88241 6.18626L7.69981 6.57199L7.29647 6.63286C7.18496 6.65024 7.0805 6.69835 6.99481 6.7718C6.90913 6.84524 6.8456 6.94112 6.81138 7.04866ZM8.00231 7.27123C8.06168 7.26225 8.11794 7.23884 8.16615 7.20304C8.21435 7.16723 8.25303 7.12014 8.27877 7.06589L8.42911 6.74873L8.57944 7.06589C8.60519 7.12014 8.64386 7.16723 8.69207 7.20304C8.74027 7.23884 8.79654 7.26225 8.85591 7.27123L9.22258 7.32659L8.94758 7.60563C8.90707 7.64686 8.87689 7.69709 8.8595 7.75221C8.8421 7.80733 8.83798 7.86578 8.84747 7.92279L8.90907 8.29716L8.60547 8.13143C8.55159 8.10167 8.49103 8.08606 8.42947 8.08606C8.36792 8.08606 8.30736 8.10167 8.25347 8.13143L7.94987 8.29716L8.01147 7.92279C8.02097 7.86578 8.01685 7.80733 7.99945 7.75221C7.98206 7.69709 7.95188 7.64686 7.91138 7.60563L7.63638 7.32659L8.00231 7.27123Z"/>
<path d="M12.2479 9.50565C12.2192 9.59105 12.2148 9.68273 12.2351 9.7705C12.2554 9.85826 12.2996 9.93868 12.3629 10.0028L12.5987 10.2417L12.5412 10.5821C12.5259 10.6722 12.5365 10.7647 12.5718 10.849C12.607 10.9333 12.6654 11.0058 12.7402 11.0583C12.8119 11.1097 12.8967 11.1397 12.9848 11.1447C13.0729 11.1498 13.1607 11.1298 13.2379 11.087L13.5176 10.9341L13.7974 11.087C13.8746 11.1297 13.9623 11.1497 14.0504 11.1446C14.1385 11.1395 14.2233 11.1096 14.2951 11.0583C14.3696 11.0056 14.4277 10.9329 14.4626 10.8486C14.4975 10.7643 14.5078 10.6718 14.4923 10.5819L14.4348 10.2414L14.6703 10.0025C14.7337 9.93843 14.778 9.85801 14.7983 9.77023C14.8186 9.68245 14.8141 9.59075 14.7853 9.50537C14.758 9.42148 14.708 9.34682 14.6408 9.2897C14.5736 9.23259 14.4918 9.19527 14.4046 9.1819L14.0884 9.13188L13.9446 8.8294C13.9067 8.74766 13.8463 8.67845 13.7704 8.62994C13.6945 8.58144 13.6063 8.55567 13.5162 8.55567C13.4261 8.55567 13.3379 8.58144 13.262 8.62994C13.1861 8.67845 13.1256 8.74766 13.0878 8.8294L12.9446 9.13188L12.6283 9.1796C12.5409 9.19323 12.459 9.23096 12.3918 9.28855C12.3246 9.34615 12.2748 9.42133 12.2479 9.50565ZM13.1818 9.68018C13.2283 9.67315 13.2725 9.65479 13.3103 9.62671C13.3481 9.59864 13.3784 9.56171 13.3986 9.51917L13.5165 9.27046L13.6344 9.51917C13.6545 9.56171 13.6849 9.59864 13.7227 9.62671C13.7605 9.65479 13.8046 9.67315 13.8511 9.68018L14.1387 9.7236L13.923 9.9424C13.8913 9.97474 13.8676 10.0141 13.854 10.0573C13.8403 10.1006 13.8371 10.1464 13.8445 10.1911L13.8928 10.4847L13.6548 10.3547C13.6125 10.3314 13.565 10.3191 13.5168 10.3191C13.4685 10.3191 13.421 10.3314 13.3787 10.3547L13.1407 10.4847L13.189 10.1911C13.1964 10.1464 13.1932 10.1006 13.1796 10.0573C13.1659 10.0141 13.1422 9.97474 13.1105 9.9424L12.8948 9.7236L13.1818 9.68018Z"/>
</mask>
<path d="M10.176 0.693047C6.81133 1.08128 4.12603 3.89599 3.89956 7.29305C3.7378 9.59011 4.74074 11.8225 6.4878 13.246C7.32897 13.9254 7.87897 15.1872 7.87897 16.546V18.4548C7.87897 20.0725 9.17309 21.3666 10.7907 21.3666H11.1466C12.7643 21.3666 14.0584 20.0725 14.0584 18.4548C14.0584 17.3225 14.0584 17.6783 14.0584 16.546C14.0584 15.2195 14.576 13.9578 15.4172 13.2783C17.0996 11.9195 18.0702 9.91364 18.0702 7.74599C18.0702 3.63716 14.5113 0.207753 10.176 0.693047ZM11.179 20.7195H10.8231C10.0143 20.7195 9.3025 20.2989 8.88192 19.6519H13.0878C12.6996 20.2989 11.9878 20.7195 11.179 20.7195ZM13.3466 19.0048H8.62309C8.55839 18.7136 8.55839 18.5519 8.55839 18.2607H13.4437C13.4437 18.5519 13.4437 18.6813 13.3466 19.0048ZM13.4437 17.6136H8.52603V16.8695H13.4113V17.6136H13.4437ZM15.029 12.7607C14.1231 13.5048 13.5084 14.7989 13.4437 16.2225H8.52603C8.42897 14.8313 7.84662 13.5048 6.90839 12.7607C5.29074 11.4342 4.41721 9.42834 4.54662 7.3254C4.74074 4.25187 7.19956 1.66364 10.2407 1.34011C14.2201 0.919518 17.4231 4.0254 17.4231 7.74599C17.4231 9.71952 16.5496 11.5313 15.029 12.7607Z" fill="#ECC681"/>
<path d="M11.6742 5.55522L11.5642 6.14996C11.542 6.27403 11.5549 6.40184 11.6016 6.51893C11.6482 6.63602 11.7267 6.73772 11.8282 6.81252C11.9354 6.89377 12.0632 6.94345 12.1972 6.95595C12.3312 6.96846 12.466 6.94329 12.5864 6.88329L13.1856 6.58996L13.7851 6.88549C13.8854 6.93509 13.9958 6.96094 14.1077 6.96102C14.265 6.96108 14.4178 6.90956 14.543 6.81436C14.6441 6.7393 14.7223 6.63744 14.7686 6.5203C14.815 6.40315 14.8276 6.27538 14.8051 6.15142L14.6951 5.55669L15.1615 5.13099C15.2578 5.04494 15.3271 4.93296 15.3613 4.80847C15.3954 4.68398 15.3929 4.55229 15.354 4.42919C15.3138 4.30156 15.2377 4.18822 15.1347 4.10272C15.0318 4.01721 14.9064 3.96316 14.7736 3.94702L14.1092 3.85646L13.8159 3.30059C13.7539 3.18705 13.6625 3.09229 13.5513 3.02627C13.44 2.96026 13.3131 2.92542 13.1837 2.92542C13.0544 2.92542 12.9274 2.96026 12.8162 3.02627C12.705 3.09229 12.6136 3.18705 12.5516 3.30059L12.2583 3.85646L11.5939 3.94702C11.4614 3.96356 11.3365 4.01779 11.234 4.10327C11.1315 4.18875 11.0557 4.30187 11.0156 4.42919C10.9771 4.552 10.9747 4.6833 11.0088 4.80741C11.0429 4.93153 11.1119 5.04322 11.2078 5.12916L11.6742 5.55522ZM12.5461 4.55789C12.604 4.55001 12.6591 4.52844 12.7069 4.49496C12.7548 4.46147 12.7939 4.41705 12.8211 4.36539L13.1815 3.66872L13.5482 4.36539C13.5754 4.41705 13.6145 4.46147 13.6624 4.49496C13.7102 4.52844 13.7653 4.55001 13.8232 4.55789L14.5859 4.66166L14.0505 5.15079C14.0047 5.19274 13.9704 5.24563 13.9506 5.30451C13.9309 5.36338 13.9264 5.42631 13.9376 5.48739L14.0689 6.20679L13.3465 5.85112C13.2961 5.82628 13.2407 5.81336 13.1845 5.81336C13.1283 5.81336 13.0728 5.82628 13.0224 5.85112L12.2986 6.21412L12.4313 5.48739C12.4426 5.42631 12.4381 5.36338 12.4183 5.30451C12.3986 5.24563 12.3642 5.19274 12.3184 5.15079L11.7831 4.66166L12.5461 4.55789Z" fill="#ECC681"/>
<path d="M6.81138 7.04866C6.77476 7.15755 6.76909 7.27447 6.79498 7.3864C6.82088 7.49833 6.87732 7.60087 6.95804 7.68263L7.25871 7.98733L7.18538 8.42146C7.16593 8.53631 7.17945 8.65431 7.22436 8.76178C7.26927 8.86926 7.34373 8.96179 7.43911 9.02866C7.53059 9.0942 7.6388 9.13243 7.75115 9.13892C7.8635 9.14541 7.97538 9.11989 8.07381 9.06533L8.43058 8.87026L8.78734 9.06533C8.88581 9.11976 8.99767 9.14521 9.10999 9.13872C9.22231 9.13223 9.3305 9.09407 9.42204 9.02866C9.51708 8.96149 9.59114 8.86877 9.63566 8.76125C9.68018 8.65372 9.69332 8.53578 9.67357 8.42109L9.60024 7.98696L9.90054 7.68226C9.98133 7.60055 10.0378 7.49801 10.0637 7.38606C10.0896 7.27412 10.0839 7.15718 10.0472 7.04829C10.0124 6.94132 9.94864 6.8461 9.86292 6.77326C9.7772 6.70043 9.67293 6.65284 9.56174 6.63579L9.15841 6.57199L8.97507 6.18626C8.9268 6.08201 8.84971 5.99376 8.75291 5.9319C8.6561 5.87005 8.54362 5.83718 8.42874 5.83718C8.31386 5.83718 8.20138 5.87005 8.10458 5.9319C8.00777 5.99376 7.93068 6.08201 7.88241 6.18626L7.69981 6.57199L7.29647 6.63286C7.18496 6.65024 7.0805 6.69835 6.99481 6.7718C6.90913 6.84524 6.8456 6.94112 6.81138 7.04866ZM8.00231 7.27123C8.06168 7.26225 8.11794 7.23884 8.16615 7.20304C8.21435 7.16723 8.25303 7.12014 8.27877 7.06589L8.42911 6.74873L8.57944 7.06589C8.60519 7.12014 8.64386 7.16723 8.69207 7.20304C8.74027 7.23884 8.79654 7.26225 8.85591 7.27123L9.22258 7.32659L8.94758 7.60563C8.90707 7.64686 8.87689 7.69709 8.8595 7.75221C8.8421 7.80733 8.83798 7.86578 8.84747 7.92279L8.90907 8.29716L8.60547 8.13143C8.55159 8.10167 8.49103 8.08606 8.42947 8.08606C8.36792 8.08606 8.30736 8.10167 8.25347 8.13143L7.94987 8.29716L8.01147 7.92279C8.02097 7.86578 8.01685 7.80733 7.99945 7.75221C7.98206 7.69709 7.95188 7.64686 7.91138 7.60563L7.63638 7.32659L8.00231 7.27123Z" fill="#ECC681"/>
<path d="M12.2479 9.50565C12.2192 9.59105 12.2148 9.68273 12.2351 9.7705C12.2554 9.85826 12.2996 9.93868 12.3629 10.0028L12.5987 10.2417L12.5412 10.5821C12.5259 10.6722 12.5365 10.7647 12.5718 10.849C12.607 10.9333 12.6654 11.0058 12.7402 11.0583C12.8119 11.1097 12.8967 11.1397 12.9848 11.1447C13.0729 11.1498 13.1607 11.1298 13.2379 11.087L13.5176 10.9341L13.7974 11.087C13.8746 11.1297 13.9623 11.1497 14.0504 11.1446C14.1385 11.1395 14.2233 11.1096 14.2951 11.0583C14.3696 11.0056 14.4277 10.9329 14.4626 10.8486C14.4975 10.7643 14.5078 10.6718 14.4923 10.5819L14.4348 10.2414L14.6703 10.0025C14.7337 9.93843 14.778 9.85801 14.7983 9.77023C14.8186 9.68245 14.8141 9.59075 14.7853 9.50537C14.758 9.42148 14.708 9.34682 14.6408 9.2897C14.5736 9.23259 14.4918 9.19527 14.4046 9.1819L14.0884 9.13188L13.9446 8.8294C13.9067 8.74766 13.8463 8.67845 13.7704 8.62994C13.6945 8.58144 13.6063 8.55567 13.5162 8.55567C13.4261 8.55567 13.3379 8.58144 13.262 8.62994C13.1861 8.67845 13.1256 8.74766 13.0878 8.8294L12.9446 9.13188L12.6283 9.1796C12.5409 9.19323 12.459 9.23096 12.3918 9.28855C12.3246 9.34615 12.2748 9.42133 12.2479 9.50565ZM13.1818 9.68018C13.2283 9.67315 13.2725 9.65479 13.3103 9.62671C13.3481 9.59864 13.3784 9.56171 13.3986 9.51917L13.5165 9.27046L13.6344 9.51917C13.6545 9.56171 13.6849 9.59864 13.7227 9.62671C13.7605 9.65479 13.8046 9.67315 13.8511 9.68018L14.1387 9.7236L13.923 9.9424C13.8913 9.97474 13.8676 10.0141 13.854 10.0573C13.8403 10.1006 13.8371 10.1464 13.8445 10.1911L13.8928 10.4847L13.6548 10.3547C13.6125 10.3314 13.565 10.3191 13.5168 10.3191C13.4685 10.3191 13.421 10.3314 13.3787 10.3547L13.1407 10.4847L13.189 10.1911C13.1964 10.1464 13.1932 10.1006 13.1796 10.0573C13.1659 10.0141 13.1422 9.97474 13.1105 9.9424L12.8948 9.7236L13.1818 9.68018Z" fill="#ECC681"/>
<path d="M10.176 0.693047C6.81133 1.08128 4.12603 3.89599 3.89956 7.29305C3.7378 9.59011 4.74074 11.8225 6.4878 13.246C7.32897 13.9254 7.87897 15.1872 7.87897 16.546V18.4548C7.87897 20.0725 9.17309 21.3666 10.7907 21.3666H11.1466C12.7643 21.3666 14.0584 20.0725 14.0584 18.4548C14.0584 17.3225 14.0584 17.6783 14.0584 16.546C14.0584 15.2195 14.576 13.9578 15.4172 13.2783C17.0996 11.9195 18.0702 9.91364 18.0702 7.74599C18.0702 3.63716 14.5113 0.207753 10.176 0.693047ZM11.179 20.7195H10.8231C10.0143 20.7195 9.3025 20.2989 8.88192 19.6519H13.0878C12.6996 20.2989 11.9878 20.7195 11.179 20.7195ZM13.3466 19.0048H8.62309C8.55839 18.7136 8.55839 18.5519 8.55839 18.2607H13.4437C13.4437 18.5519 13.4437 18.6813 13.3466 19.0048ZM13.4437 17.6136H8.52603V16.8695H13.4113V17.6136H13.4437ZM15.029 12.7607C14.1231 13.5048 13.5084 14.7989 13.4437 16.2225H8.52603C8.42897 14.8313 7.84662 13.5048 6.90839 12.7607C5.29074 11.4342 4.41721 9.42834 4.54662 7.3254C4.74074 4.25187 7.19956 1.66364 10.2407 1.34011C14.2201 0.919518 17.4231 4.0254 17.4231 7.74599C17.4231 9.71952 16.5496 11.5313 15.029 12.7607Z" stroke="#ECC681" stroke-width="0.4" mask="url(#path-1-outside-1_38_747)"/>
<path d="M11.6742 5.55522L11.5642 6.14996C11.542 6.27403 11.5549 6.40184 11.6016 6.51893C11.6482 6.63602 11.7267 6.73772 11.8282 6.81252C11.9354 6.89377 12.0632 6.94345 12.1972 6.95595C12.3312 6.96846 12.466 6.94329 12.5864 6.88329L13.1856 6.58996L13.7851 6.88549C13.8854 6.93509 13.9958 6.96094 14.1077 6.96102C14.265 6.96108 14.4178 6.90956 14.543 6.81436C14.6441 6.7393 14.7223 6.63744 14.7686 6.5203C14.815 6.40315 14.8276 6.27538 14.8051 6.15142L14.6951 5.55669L15.1615 5.13099C15.2578 5.04494 15.3271 4.93296 15.3613 4.80847C15.3954 4.68398 15.3929 4.55229 15.354 4.42919C15.3138 4.30156 15.2377 4.18822 15.1347 4.10272C15.0318 4.01721 14.9064 3.96316 14.7736 3.94702L14.1092 3.85646L13.8159 3.30059C13.7539 3.18705 13.6625 3.09229 13.5513 3.02627C13.44 2.96026 13.3131 2.92542 13.1837 2.92542C13.0544 2.92542 12.9274 2.96026 12.8162 3.02627C12.705 3.09229 12.6136 3.18705 12.5516 3.30059L12.2583 3.85646L11.5939 3.94702C11.4614 3.96356 11.3365 4.01779 11.234 4.10327C11.1315 4.18875 11.0557 4.30187 11.0156 4.42919C10.9771 4.552 10.9747 4.6833 11.0088 4.80741C11.0429 4.93153 11.1119 5.04322 11.2078 5.12916L11.6742 5.55522ZM12.5461 4.55789C12.604 4.55001 12.6591 4.52844 12.7069 4.49496C12.7548 4.46147 12.7939 4.41705 12.8211 4.36539L13.1815 3.66872L13.5482 4.36539C13.5754 4.41705 13.6145 4.46147 13.6624 4.49496C13.7102 4.52844 13.7653 4.55001 13.8232 4.55789L14.5859 4.66166L14.0505 5.15079C14.0047 5.19274 13.9704 5.24563 13.9506 5.30451C13.9309 5.36338 13.9264 5.42631 13.9376 5.48739L14.0689 6.20679L13.3465 5.85112C13.2961 5.82628 13.2407 5.81336 13.1845 5.81336C13.1283 5.81336 13.0728 5.82628 13.0224 5.85112L12.2986 6.21412L12.4313 5.48739C12.4426 5.42631 12.4381 5.36338 12.4183 5.30451C12.3986 5.24563 12.3642 5.19274 12.3184 5.15079L11.7831 4.66166L12.5461 4.55789Z" stroke="#ECC681" stroke-width="0.4" mask="url(#path-1-outside-1_38_747)"/>
<path d="M6.81138 7.04866C6.77476 7.15755 6.76909 7.27447 6.79498 7.3864C6.82088 7.49833 6.87732 7.60087 6.95804 7.68263L7.25871 7.98733L7.18538 8.42146C7.16593 8.53631 7.17945 8.65431 7.22436 8.76178C7.26927 8.86926 7.34373 8.96179 7.43911 9.02866C7.53059 9.0942 7.6388 9.13243 7.75115 9.13892C7.8635 9.14541 7.97538 9.11989 8.07381 9.06533L8.43058 8.87026L8.78734 9.06533C8.88581 9.11976 8.99767 9.14521 9.10999 9.13872C9.22231 9.13223 9.3305 9.09407 9.42204 9.02866C9.51708 8.96149 9.59114 8.86877 9.63566 8.76125C9.68018 8.65372 9.69332 8.53578 9.67357 8.42109L9.60024 7.98696L9.90054 7.68226C9.98133 7.60055 10.0378 7.49801 10.0637 7.38606C10.0896 7.27412 10.0839 7.15718 10.0472 7.04829C10.0124 6.94132 9.94864 6.8461 9.86292 6.77326C9.7772 6.70043 9.67293 6.65284 9.56174 6.63579L9.15841 6.57199L8.97507 6.18626C8.9268 6.08201 8.84971 5.99376 8.75291 5.9319C8.6561 5.87005 8.54362 5.83718 8.42874 5.83718C8.31386 5.83718 8.20138 5.87005 8.10458 5.9319C8.00777 5.99376 7.93068 6.08201 7.88241 6.18626L7.69981 6.57199L7.29647 6.63286C7.18496 6.65024 7.0805 6.69835 6.99481 6.7718C6.90913 6.84524 6.8456 6.94112 6.81138 7.04866ZM8.00231 7.27123C8.06168 7.26225 8.11794 7.23884 8.16615 7.20304C8.21435 7.16723 8.25303 7.12014 8.27877 7.06589L8.42911 6.74873L8.57944 7.06589C8.60519 7.12014 8.64386 7.16723 8.69207 7.20304C8.74027 7.23884 8.79654 7.26225 8.85591 7.27123L9.22258 7.32659L8.94758 7.60563C8.90707 7.64686 8.87689 7.69709 8.8595 7.75221C8.8421 7.80733 8.83798 7.86578 8.84747 7.92279L8.90907 8.29716L8.60547 8.13143C8.55159 8.10167 8.49103 8.08606 8.42947 8.08606C8.36792 8.08606 8.30736 8.10167 8.25347 8.13143L7.94987 8.29716L8.01147 7.92279C8.02097 7.86578 8.01685 7.80733 7.99945 7.75221C7.98206 7.69709 7.95188 7.64686 7.91138 7.60563L7.63638 7.32659L8.00231 7.27123Z" stroke="#ECC681" stroke-width="0.4" mask="url(#path-1-outside-1_38_747)"/>
<path d="M12.2479 9.50565C12.2192 9.59105 12.2148 9.68273 12.2351 9.7705C12.2554 9.85826 12.2996 9.93868 12.3629 10.0028L12.5987 10.2417L12.5412 10.5821C12.5259 10.6722 12.5365 10.7647 12.5718 10.849C12.607 10.9333 12.6654 11.0058 12.7402 11.0583C12.8119 11.1097 12.8967 11.1397 12.9848 11.1447C13.0729 11.1498 13.1607 11.1298 13.2379 11.087L13.5176 10.9341L13.7974 11.087C13.8746 11.1297 13.9623 11.1497 14.0504 11.1446C14.1385 11.1395 14.2233 11.1096 14.2951 11.0583C14.3696 11.0056 14.4277 10.9329 14.4626 10.8486C14.4975 10.7643 14.5078 10.6718 14.4923 10.5819L14.4348 10.2414L14.6703 10.0025C14.7337 9.93843 14.778 9.85801 14.7983 9.77023C14.8186 9.68245 14.8141 9.59075 14.7853 9.50537C14.758 9.42148 14.708 9.34682 14.6408 9.2897C14.5736 9.23259 14.4918 9.19527 14.4046 9.1819L14.0884 9.13188L13.9446 8.8294C13.9067 8.74766 13.8463 8.67845 13.7704 8.62994C13.6945 8.58144 13.6063 8.55567 13.5162 8.55567C13.4261 8.55567 13.3379 8.58144 13.262 8.62994C13.1861 8.67845 13.1256 8.74766 13.0878 8.8294L12.9446 9.13188L12.6283 9.1796C12.5409 9.19323 12.459 9.23096 12.3918 9.28855C12.3246 9.34615 12.2748 9.42133 12.2479 9.50565ZM13.1818 9.68018C13.2283 9.67315 13.2725 9.65479 13.3103 9.62671C13.3481 9.59864 13.3784 9.56171 13.3986 9.51917L13.5165 9.27046L13.6344 9.51917C13.6545 9.56171 13.6849 9.59864 13.7227 9.62671C13.7605 9.65479 13.8046 9.67315 13.8511 9.68018L14.1387 9.7236L13.923 9.9424C13.8913 9.97474 13.8676 10.0141 13.854 10.0573C13.8403 10.1006 13.8371 10.1464 13.8445 10.1911L13.8928 10.4847L13.6548 10.3547C13.6125 10.3314 13.565 10.3191 13.5168 10.3191C13.4685 10.3191 13.421 10.3314 13.3787 10.3547L13.1407 10.4847L13.189 10.1911C13.1964 10.1464 13.1932 10.1006 13.1796 10.0573C13.1659 10.0141 13.1422 9.97474 13.1105 9.9424L12.8948 9.7236L13.1818 9.68018Z" stroke="#ECC681" stroke-width="0.4" mask="url(#path-1-outside-1_38_747)"/>
</svg>
