<svg width="22" height="23" viewBox="0 0 22 23" fill="none" xmlns="http://www.w3.org/2000/svg">
<path d="M10.7306 0.106262C12.2608 0.0323177 13.7542 0.589437 14.8634 1.6463C15.9726 2.70319 16.6007 4.16793 16.6007 5.70001V21.8338C16.6005 22.0913 16.3915 22.2996 16.1339 22.2996H5.86731C5.6098 22.2996 5.40076 22.0913 5.40051 21.8338V10.1004C5.40183 9.03319 6.26689 8.16813 7.33411 8.16681H10.9064C12.203 8.15543 13.2924 7.18923 13.4591 5.90314C13.5166 5.20851 13.2777 4.52142 12.8009 4.01251C12.3235 3.50317 11.6524 3.22006 10.9542 3.23322C9.951 3.27676 9.06816 3.90892 8.70325 4.84454L8.70227 4.8465C8.55206 5.21283 8.50166 5.61248 8.55579 6.0047V6.00568C8.57343 6.13891 8.53298 6.27378 8.44446 6.37482C8.35576 6.47596 8.22734 6.53302 8.0929 6.53302H5.86731C5.60978 6.53296 5.40073 6.32469 5.40051 6.0672V5.8465C5.35589 2.81625 7.70429 0.286838 10.7296 0.106262H10.7306ZM10.7745 1.0379L10.7755 1.03888C8.33567 1.18706 6.41876 3.16852 6.33801 5.6004H7.60559C7.61884 5.22184 7.69568 4.84815 7.83899 4.49689C8.34406 3.21582 9.55855 2.35449 10.9347 2.3006L10.9386 2.29962V2.3006H11.0011C11.9398 2.3016 12.8365 2.68919 13.4796 3.37286L13.5997 3.50763C14.1776 4.19493 14.4633 5.08541 14.3898 5.98517L14.3888 5.98907C14.1679 7.74961 12.6823 9.07756 10.9083 9.1004H7.33411C6.78187 9.1004 6.33411 9.54817 6.33411 10.1004V21.367H15.6671V5.70001C15.6671 4.42318 15.1444 3.20185 14.2198 2.32111C13.2954 1.44034 12.0499 0.976029 10.7745 1.0379Z" fill="#F0A088" stroke="#F0A088" stroke-width="0.2"/>
<path d="M11.0011 12.2005C13.0803 12.2028 14.7655 13.8878 14.7677 15.9671C14.7675 18.0471 13.0811 19.7335 11.0011 19.7337C8.92092 19.7337 7.23469 18.0472 7.2345 15.9671C7.2345 13.8868 8.92081 12.2005 11.0011 12.2005ZM9.18762 18.1341C9.69473 18.5615 10.3356 18.7998 11.0011 18.8001C12.0434 18.801 13.0014 18.2286 13.4952 17.3108C13.9712 16.4261 13.9397 15.3596 13.422 14.5052L9.18762 18.1341ZM12.8136 13.7981C11.9896 13.1056 10.8409 12.937 9.85071 13.3753C8.82571 13.829 8.16521 14.8453 8.16711 15.9661V15.9671C8.16718 16.4831 8.31117 16.9873 8.57825 17.427L12.8136 13.7981Z" fill="#F0A088" stroke="#F0A088" stroke-width="0.2"/>
</svg>
