<svg width="22" height="22" viewBox="0 0 22 22" fill="none" xmlns="http://www.w3.org/2000/svg">
<path d="M6.45825 13.456C6.704 13.456 6.90351 13.6548 6.90356 13.9003V20.372C6.90353 20.6175 6.70396 20.8163 6.45825 20.8163C6.21262 20.8163 6.01399 20.6174 6.01392 20.372V13.9003C6.01397 13.6548 6.21261 13.456 6.45825 13.456Z" fill="#A0D1CA" stroke="#A0D1CA" stroke-width="0.2"/>
<path d="M12.8667 7.87607C13.1124 7.87607 13.312 8.0749 13.312 8.3204C13.3121 8.56599 13.1124 8.76572 12.8667 8.76572H8.4292C8.18352 8.76566 7.98486 8.56597 7.98486 8.3204C7.98492 8.07488 8.18356 7.87612 8.4292 7.87607H12.8667Z" fill="#A0D1CA" stroke="#A0D1CA" stroke-width="0.2"/>
<path d="M4.49902 7.99457C4.7447 7.99457 4.94426 8.19337 4.94434 8.4389V12.5307C4.94417 12.7761 4.74469 12.975 4.49902 12.975C4.25336 12.975 4.05481 12.7761 4.05469 12.5307V8.4389C4.05477 8.19342 4.25338 7.99462 4.49902 7.99457Z" fill="#A0D1CA" stroke="#A0D1CA" stroke-width="0.2"/>
<path d="M18.8547 19.9274C19.1005 19.9274 19.3 20.1262 19.3 20.3717C19.3 20.6173 19.1005 20.817 18.8547 20.817H2.17798C1.9323 20.817 1.73364 20.6172 1.73364 20.3717C1.7337 20.1263 1.93233 19.9275 2.17798 19.9274H18.8547Z" fill="#A0D1CA" stroke="#A0D1CA" stroke-width="0.2"/>
<path d="M16.1709 17.1976C16.384 17.1977 16.567 17.3487 16.6074 17.558L17.1348 20.2874C17.1599 20.4177 17.1253 20.5522 17.041 20.6546C16.9568 20.7567 16.8308 20.8166 16.6982 20.8167H10.5381C10.4053 20.8167 10.2797 20.7568 10.1953 20.6546C10.1109 20.5522 10.0764 20.4178 10.1016 20.2874L10.6289 17.558C10.6693 17.3486 10.8523 17.1976 11.0654 17.1976H16.1709ZM11.0771 19.9271H16.1582L15.8037 18.0872H11.4326L11.0771 19.9271Z" fill="#A0D1CA" stroke="#A0D1CA" stroke-width="0.2"/>
<path d="M16.1128 16.012C16.685 16.012 17.1509 16.4768 17.1509 17.0491C17.1509 17.6213 16.6851 18.0872 16.1128 18.0872H11.1226C10.5504 18.087 10.0854 17.6213 10.0854 17.0491C10.0855 16.4769 10.5504 16.0121 11.1226 16.012H16.1128ZM11.1226 16.9016C11.041 16.9018 10.9751 16.9678 10.9751 17.0491C10.9751 17.1305 11.0411 17.1974 11.1226 17.1975H16.1128C16.1943 17.1975 16.2612 17.1306 16.2612 17.0491C16.2612 16.9677 16.1944 16.9016 16.1128 16.9016H11.1226Z" fill="#A0D1CA" stroke="#A0D1CA" stroke-width="0.2"/>
<path d="M13.6179 18.5624C13.8636 18.5624 14.0632 18.7612 14.0632 19.0067V20.3719C14.0632 20.6174 13.8636 20.8163 13.6179 20.8163C13.3722 20.8162 13.1736 20.6174 13.1736 20.3719V19.0067C13.1736 18.7612 13.3723 18.5624 13.6179 18.5624Z" fill="#A0D1CA" stroke="#A0D1CA" stroke-width="0.2"/>
<path d="M12.2778 18.5663C12.5208 18.6015 12.6888 18.8272 12.6538 19.0702L12.4565 20.4355C12.4245 20.6569 12.2345 20.8161 12.0171 20.8163C11.9961 20.8163 11.9743 20.8156 11.9526 20.8124C11.7095 20.7774 11.5408 20.5515 11.5757 20.3085L11.7739 18.9433C11.8092 18.6997 12.036 18.5315 12.2778 18.5663Z" fill="#A0D1CA" stroke="#A0D1CA" stroke-width="0.2"/>
<path d="M14.9583 18.5663C15.2007 18.5313 15.427 18.6999 15.4622 18.9432L15.6594 20.3085C15.6944 20.5514 15.5264 20.7772 15.2834 20.8124C15.2617 20.8156 15.2401 20.8163 15.219 20.8163C15.0014 20.8163 14.8116 20.657 14.7795 20.4354L14.5813 19.0702C14.5463 18.8271 14.7151 18.6013 14.9583 18.5663Z" fill="#A0D1CA" stroke="#A0D1CA" stroke-width="0.2"/>
<path d="M13.5703 4.18671C14.203 4.18687 14.7178 4.70141 14.7178 5.33417V10.7541C14.7178 10.9997 14.5182 11.1994 14.2725 11.1994C14.0268 11.1993 13.8281 10.9996 13.8281 10.7541V5.33417C13.8281 5.19216 13.7123 5.07652 13.5703 5.07635C13.4282 5.07635 13.3125 5.19208 13.3125 5.33417V16.0119H13.8281V13.4455C13.8284 13.2002 14.027 13.0013 14.2725 13.0012C14.518 13.0012 14.7175 13.2002 14.7178 13.4455V16.4562C14.7177 16.7018 14.5182 16.9016 14.2725 16.9016H12.8672C12.6215 16.9015 12.4229 16.7018 12.4229 16.4562V5.33417C12.4229 4.7013 12.9374 4.18671 13.5703 4.18671Z" fill="#A0D1CA" stroke="#A0D1CA" stroke-width="0.2"/>
<path d="M5.04907 5.79456C5.16012 5.79456 5.26791 5.83561 5.34985 5.91077C5.98202 6.49003 6.93477 6.49 7.56665 5.91077C7.64861 5.83578 7.75556 5.79468 7.86646 5.79456H12.8674C13.113 5.79476 13.3117 5.99352 13.3118 6.23889C13.3118 6.48437 13.113 6.684 12.8674 6.6842H8.02759C7.1041 7.41874 5.81264 7.41872 4.88892 6.6842H4.49927C3.67593 6.6842 3.0061 7.35362 3.0061 8.17639V12.4772C3.00621 12.7878 3.23659 13.0405 3.50122 13.0543L3.60962 13.0494C3.71472 13.0337 3.81175 12.9858 3.89087 12.9108C3.99638 12.8104 4.05396 12.6752 4.05396 12.5299C4.05421 12.2845 4.2537 12.0856 4.49927 12.0856C4.7447 12.0857 4.94335 12.2846 4.9436 12.5299V19.9274H7.98462V8.32092C7.98462 8.07545 8.18342 7.87582 8.42896 7.87561C8.67474 7.87561 8.87427 8.07538 8.87427 8.32092V20.3717C8.87432 20.6173 8.67472 20.817 8.42896 20.817H4.49927C4.25349 20.817 4.05396 20.6172 4.05396 20.3717V13.8424C3.86655 13.9172 3.66447 13.9532 3.45532 13.943H3.45435C2.70018 13.9031 2.11654 13.2554 2.11646 12.4772V8.17639C2.11646 6.86299 3.18524 5.79456 4.49927 5.79456H5.04907Z" fill="#A0D1CA" stroke="#A0D1CA" stroke-width="0.2"/>
<path d="M6.4585 0.817047C7.71964 0.817188 8.74561 1.84297 8.74561 3.10416C8.74542 4.36517 7.71958 5.39113 6.4585 5.39127C5.19734 5.39127 4.17158 4.36526 4.17139 3.10416C4.17139 1.84288 5.19723 0.817047 6.4585 0.817047ZM6.4585 1.7067C5.68797 1.7067 5.06104 2.33364 5.06104 3.10416C5.06122 3.87453 5.6881 4.50162 6.4585 4.50162C7.22877 4.50148 7.85577 3.87444 7.85596 3.10416C7.85596 2.33373 7.22891 1.70684 6.4585 1.7067Z" fill="#A0D1CA" stroke="#A0D1CA" stroke-width="0.2"/>
<path d="M15.7458 9.87265C15.9915 9.87278 16.1901 10.0715 16.1902 10.317C16.1902 11.0164 16.7595 11.5853 17.4587 11.5855C17.7045 11.5855 17.9041 11.7853 17.9041 12.0309C17.904 12.2764 17.7044 12.4752 17.4587 12.4752C16.7595 12.4754 16.1902 13.0453 16.1902 13.7447C16.19 13.9901 15.9914 14.1889 15.7458 14.1891C15.5003 14.1891 15.3007 13.9901 15.3005 13.7447C15.3005 13.0452 14.7314 12.4752 14.032 12.4752C13.7864 12.4751 13.5877 12.2764 13.5876 12.0309C13.5876 11.7853 13.7863 11.5856 14.032 11.5855C14.7314 11.5855 15.3005 11.0165 15.3005 10.317C15.3006 10.0714 15.5002 9.87265 15.7458 9.87265ZM15.7449 11.6236C15.6279 11.7766 15.4916 11.9129 15.3386 12.0299C15.4918 12.1469 15.6278 12.284 15.7449 12.4371C15.862 12.2838 15.9988 12.147 16.1521 12.0299C15.999 11.9128 15.8619 11.7768 15.7449 11.6236Z" fill="#A0D1CA" stroke="#A0D1CA" stroke-width="0.2"/>
<path d="M17.47 3.86343C17.7156 3.86362 17.9143 4.06239 17.9143 4.30777C17.9143 5.12714 18.5812 5.79392 19.4006 5.7941C19.6464 5.7941 19.8459 5.99386 19.8459 6.23941C19.8458 6.48486 19.6462 6.68375 19.4006 6.68375C18.5814 6.68393 17.9145 7.35071 17.9143 8.17007C17.9144 8.41559 17.7156 8.61521 17.47 8.61539C17.2243 8.61539 17.0247 8.41569 17.0247 8.17007C17.0244 7.35059 16.3576 6.68375 15.5383 6.68375C15.2927 6.68369 15.0942 6.48481 15.094 6.23941C15.094 5.99384 15.2927 5.79415 15.5383 5.7941C16.3578 5.7941 17.0247 5.12726 17.0247 4.30777C17.0247 4.06221 17.2242 3.86343 17.47 3.86343ZM17.469 5.68961C17.317 5.90139 17.131 6.08651 16.9192 6.23843C17.131 6.39025 17.317 6.57563 17.469 6.78726C17.6209 6.57567 17.8072 6.39029 18.0188 6.23843C17.8071 6.08648 17.6209 5.90136 17.469 5.68961Z" fill="#A0D1CA" stroke="#A0D1CA" stroke-width="0.2"/>
</svg>
