<svg width="22" height="22" viewBox="0 0 22 22" fill="none" xmlns="http://www.w3.org/2000/svg">
<mask id="path-1-inside-1_38_879" fill="white">
<path d="M20.625 19.3087V11.6875C20.625 11.414 20.5164 11.1517 20.323 10.9583C20.1296 10.7649 19.8673 10.6562 19.5938 10.6562C19.3203 10.6562 19.058 10.7649 18.8646 10.9583C18.6712 11.1517 18.5625 11.414 18.5625 11.6875V12.375H17.1875V2.75H17.5313C17.5764 2.75003 17.6212 2.74115 17.6629 2.72389C17.7046 2.70662 17.7425 2.6813 17.7744 2.64938C17.8064 2.61745 17.8317 2.57955 17.8489 2.53783C17.8662 2.49611 17.8751 2.4514 17.875 2.40625V1.03125C17.8751 0.986101 17.8662 0.941388 17.8489 0.899671C17.8317 0.857953 17.8064 0.820047 17.7744 0.788122C17.7425 0.756196 17.7046 0.730877 17.6629 0.713611C17.6212 0.696346 17.5764 0.687473 17.5313 0.6875H4.4688C4.42365 0.687473 4.37894 0.696346 4.33722 0.713611C4.2955 0.730877 4.25759 0.756196 4.22567 0.788122C4.19374 0.820047 4.16842 0.857953 4.15116 0.899671C4.13389 0.941388 4.12502 0.986101 4.12505 1.03125V2.40625C4.12502 2.4514 4.13389 2.49611 4.15116 2.53783C4.16842 2.57955 4.19374 2.61745 4.22567 2.64938C4.25759 2.6813 4.2955 2.70662 4.33722 2.72389C4.37894 2.74115 4.42365 2.75003 4.4688 2.75H4.81255V12.375H3.43755V11.6875C3.43755 11.414 3.3289 11.1517 3.1355 10.9583C2.9421 10.7649 2.6798 10.6562 2.4063 10.6562C2.13279 10.6562 1.87049 10.7649 1.67709 10.9583C1.4837 11.1517 1.37505 11.414 1.37505 11.6875V19.3087C1.14553 19.3897 0.952045 19.5493 0.828824 19.7591C0.705604 19.969 0.660588 20.2157 0.70174 20.4556C0.742892 20.6955 0.86756 20.9131 1.05369 21.0699C1.23982 21.2267 1.47541 21.3127 1.7188 21.3125H20.2813C20.5247 21.3127 20.7603 21.2267 20.9464 21.0699C21.1325 20.9131 21.2572 20.6955 21.2984 20.4556C21.3395 20.2157 21.2945 19.969 21.1713 19.7591C21.048 19.5493 20.8546 19.3897 20.625 19.3087ZM14.4375 19.25V13.0625H16.1563V19.25H14.4375ZM12.0313 19.25V13.0625H13.75V19.25H12.0313ZM15.125 12.375H12.0313V4.125H15.125V12.375ZM16.8438 13.0625H18.5625V19.25H16.8438V13.0625ZM4.81255 1.375H17.1875V2.0625H4.81255V1.375ZM5.50005 2.75H16.5V12.375H15.8125V3.78125C15.8126 3.7361 15.8037 3.69139 15.7864 3.64967C15.7692 3.60795 15.7439 3.57005 15.7119 3.53812C15.68 3.5062 15.6421 3.48088 15.6004 3.46361C15.5587 3.44635 15.5139 3.43747 15.4688 3.4375H11.6875C11.6424 3.43747 11.5977 3.44635 11.556 3.46361C11.5142 3.48088 11.4763 3.5062 11.4444 3.53812C11.4125 3.57005 11.3872 3.60795 11.3699 3.64967C11.3526 3.69139 11.3438 3.7361 11.3438 3.78125V10.7196C11.1224 10.6351 10.8777 10.6351 10.6563 10.7196V3.78125C10.6563 3.7361 10.6475 3.69139 10.6302 3.64967C10.6129 3.60795 10.5876 3.57005 10.5557 3.53812C10.5237 3.5062 10.4858 3.48088 10.4441 3.46361C10.4024 3.44635 10.3577 3.43747 10.3125 3.4375H6.5313C6.48615 3.43747 6.44144 3.44635 6.39972 3.46361C6.358 3.48088 6.32009 3.5062 6.28817 3.53812C6.25624 3.57005 6.23092 3.60795 6.21366 3.64967C6.19639 3.69139 6.18752 3.7361 6.18755 3.78125V12.375H5.50005V2.75ZM5.8438 19.25V13.0625H7.56255V19.25H5.8438ZM9.9688 12.375H6.87505V4.125H9.9688V12.375ZM8.25005 13.0625H9.9688V19.25H8.25005V13.0625ZM5.1563 13.0625V19.25H3.43755V13.0625H5.1563ZM20.2813 20.625H1.7188C1.62763 20.625 1.54019 20.5888 1.47573 20.5243C1.41126 20.4599 1.37505 20.3724 1.37505 20.2812C1.37505 20.1901 1.41126 20.1026 1.47573 20.0382C1.54019 19.9737 1.62763 19.9375 1.7188 19.9375C1.76395 19.9375 1.80866 19.9287 1.85038 19.9114C1.89209 19.8941 1.93 19.8688 1.96193 19.8369C1.99385 19.805 2.01917 19.767 2.03644 19.7253C2.0537 19.6836 2.06257 19.6389 2.06255 19.5938V11.6875C2.06255 11.5963 2.09876 11.5089 2.16323 11.4444C2.22769 11.38 2.31513 11.3438 2.4063 11.3438C2.49747 11.3438 2.5849 11.38 2.64936 11.4444C2.71383 11.5089 2.75005 11.5963 2.75005 11.6875V19.5938C2.75002 19.6389 2.75889 19.6836 2.77616 19.7253C2.79342 19.767 2.81874 19.805 2.85067 19.8369C2.88259 19.8688 2.9205 19.8941 2.96222 19.9114C3.00394 19.9287 3.04865 19.9375 3.0938 19.9375H10.3125C10.3577 19.9375 10.4024 19.9287 10.4441 19.9114C10.4858 19.8941 10.5237 19.8688 10.5557 19.8369C10.5876 19.805 10.6129 19.767 10.6302 19.7253C10.6475 19.6836 10.6563 19.6389 10.6563 19.5938V11.6875C10.6563 11.5963 10.6925 11.5089 10.757 11.4444C10.8214 11.38 10.9089 11.3438 11 11.3438C11.0912 11.3438 11.1786 11.38 11.2431 11.4444C11.3076 11.5089 11.3438 11.5963 11.3438 11.6875V19.5938C11.3438 19.6389 11.3526 19.6836 11.3699 19.7253C11.3872 19.767 11.4125 19.805 11.4444 19.8369C11.4763 19.8688 11.5142 19.8941 11.556 19.9114C11.5977 19.9287 11.6424 19.9375 11.6875 19.9375H18.9063C18.9514 19.9375 18.9962 19.9287 19.0379 19.9114C19.0796 19.8941 19.1175 19.8688 19.1494 19.8369C19.1814 19.805 19.2067 19.767 19.2239 19.7253C19.2412 19.6836 19.2501 19.6389 19.25 19.5938V11.6875C19.25 11.5963 19.2863 11.5089 19.3507 11.4444C19.4152 11.38 19.5026 11.3438 19.5938 11.3438C19.685 11.3438 19.7724 11.38 19.8369 11.4444C19.9013 11.5089 19.9375 11.5963 19.9375 11.6875V19.5938C19.9375 19.6389 19.9464 19.6836 19.9637 19.7253C19.9809 19.767 20.0062 19.805 20.0382 19.8369C20.0701 19.8688 20.108 19.8941 20.1497 19.9114C20.1914 19.9287 20.2361 19.9375 20.2813 19.9375C20.3725 19.9375 20.4599 19.9737 20.5244 20.0382C20.5888 20.1026 20.625 20.1901 20.625 20.2812C20.625 20.3724 20.5888 20.4599 20.5244 20.5243C20.4599 20.5888 20.3725 20.625 20.2813 20.625Z"/>
</mask>
<path d="M20.625 19.3087V11.6875C20.625 11.414 20.5164 11.1517 20.323 10.9583C20.1296 10.7649 19.8673 10.6562 19.5938 10.6562C19.3203 10.6562 19.058 10.7649 18.8646 10.9583C18.6712 11.1517 18.5625 11.414 18.5625 11.6875V12.375H17.1875V2.75H17.5313C17.5764 2.75003 17.6212 2.74115 17.6629 2.72389C17.7046 2.70662 17.7425 2.6813 17.7744 2.64938C17.8064 2.61745 17.8317 2.57955 17.8489 2.53783C17.8662 2.49611 17.8751 2.4514 17.875 2.40625V1.03125C17.8751 0.986101 17.8662 0.941388 17.8489 0.899671C17.8317 0.857953 17.8064 0.820047 17.7744 0.788122C17.7425 0.756196 17.7046 0.730877 17.6629 0.713611C17.6212 0.696346 17.5764 0.687473 17.5313 0.6875H4.4688C4.42365 0.687473 4.37894 0.696346 4.33722 0.713611C4.2955 0.730877 4.25759 0.756196 4.22567 0.788122C4.19374 0.820047 4.16842 0.857953 4.15116 0.899671C4.13389 0.941388 4.12502 0.986101 4.12505 1.03125V2.40625C4.12502 2.4514 4.13389 2.49611 4.15116 2.53783C4.16842 2.57955 4.19374 2.61745 4.22567 2.64938C4.25759 2.6813 4.2955 2.70662 4.33722 2.72389C4.37894 2.74115 4.42365 2.75003 4.4688 2.75H4.81255V12.375H3.43755V11.6875C3.43755 11.414 3.3289 11.1517 3.1355 10.9583C2.9421 10.7649 2.6798 10.6562 2.4063 10.6562C2.13279 10.6562 1.87049 10.7649 1.67709 10.9583C1.4837 11.1517 1.37505 11.414 1.37505 11.6875V19.3087C1.14553 19.3897 0.952045 19.5493 0.828824 19.7591C0.705604 19.969 0.660588 20.2157 0.70174 20.4556C0.742892 20.6955 0.86756 20.9131 1.05369 21.0699C1.23982 21.2267 1.47541 21.3127 1.7188 21.3125H20.2813C20.5247 21.3127 20.7603 21.2267 20.9464 21.0699C21.1325 20.9131 21.2572 20.6955 21.2984 20.4556C21.3395 20.2157 21.2945 19.969 21.1713 19.7591C21.048 19.5493 20.8546 19.3897 20.625 19.3087ZM14.4375 19.25V13.0625H16.1563V19.25H14.4375ZM12.0313 19.25V13.0625H13.75V19.25H12.0313ZM15.125 12.375H12.0313V4.125H15.125V12.375ZM16.8438 13.0625H18.5625V19.25H16.8438V13.0625ZM4.81255 1.375H17.1875V2.0625H4.81255V1.375ZM5.50005 2.75H16.5V12.375H15.8125V3.78125C15.8126 3.7361 15.8037 3.69139 15.7864 3.64967C15.7692 3.60795 15.7439 3.57005 15.7119 3.53812C15.68 3.5062 15.6421 3.48088 15.6004 3.46361C15.5587 3.44635 15.5139 3.43747 15.4688 3.4375H11.6875C11.6424 3.43747 11.5977 3.44635 11.556 3.46361C11.5142 3.48088 11.4763 3.5062 11.4444 3.53812C11.4125 3.57005 11.3872 3.60795 11.3699 3.64967C11.3526 3.69139 11.3438 3.7361 11.3438 3.78125V10.7196C11.1224 10.6351 10.8777 10.6351 10.6563 10.7196V3.78125C10.6563 3.7361 10.6475 3.69139 10.6302 3.64967C10.6129 3.60795 10.5876 3.57005 10.5557 3.53812C10.5237 3.5062 10.4858 3.48088 10.4441 3.46361C10.4024 3.44635 10.3577 3.43747 10.3125 3.4375H6.5313C6.48615 3.43747 6.44144 3.44635 6.39972 3.46361C6.358 3.48088 6.32009 3.5062 6.28817 3.53812C6.25624 3.57005 6.23092 3.60795 6.21366 3.64967C6.19639 3.69139 6.18752 3.7361 6.18755 3.78125V12.375H5.50005V2.75ZM5.8438 19.25V13.0625H7.56255V19.25H5.8438ZM9.9688 12.375H6.87505V4.125H9.9688V12.375ZM8.25005 13.0625H9.9688V19.25H8.25005V13.0625ZM5.1563 13.0625V19.25H3.43755V13.0625H5.1563ZM20.2813 20.625H1.7188C1.62763 20.625 1.54019 20.5888 1.47573 20.5243C1.41126 20.4599 1.37505 20.3724 1.37505 20.2812C1.37505 20.1901 1.41126 20.1026 1.47573 20.0382C1.54019 19.9737 1.62763 19.9375 1.7188 19.9375C1.76395 19.9375 1.80866 19.9287 1.85038 19.9114C1.89209 19.8941 1.93 19.8688 1.96193 19.8369C1.99385 19.805 2.01917 19.767 2.03644 19.7253C2.0537 19.6836 2.06257 19.6389 2.06255 19.5938V11.6875C2.06255 11.5963 2.09876 11.5089 2.16323 11.4444C2.22769 11.38 2.31513 11.3438 2.4063 11.3438C2.49747 11.3438 2.5849 11.38 2.64936 11.4444C2.71383 11.5089 2.75005 11.5963 2.75005 11.6875V19.5938C2.75002 19.6389 2.75889 19.6836 2.77616 19.7253C2.79342 19.767 2.81874 19.805 2.85067 19.8369C2.88259 19.8688 2.9205 19.8941 2.96222 19.9114C3.00394 19.9287 3.04865 19.9375 3.0938 19.9375H10.3125C10.3577 19.9375 10.4024 19.9287 10.4441 19.9114C10.4858 19.8941 10.5237 19.8688 10.5557 19.8369C10.5876 19.805 10.6129 19.767 10.6302 19.7253C10.6475 19.6836 10.6563 19.6389 10.6563 19.5938V11.6875C10.6563 11.5963 10.6925 11.5089 10.757 11.4444C10.8214 11.38 10.9089 11.3438 11 11.3438C11.0912 11.3438 11.1786 11.38 11.2431 11.4444C11.3076 11.5089 11.3438 11.5963 11.3438 11.6875V19.5938C11.3438 19.6389 11.3526 19.6836 11.3699 19.7253C11.3872 19.767 11.4125 19.805 11.4444 19.8369C11.4763 19.8688 11.5142 19.8941 11.556 19.9114C11.5977 19.9287 11.6424 19.9375 11.6875 19.9375H18.9063C18.9514 19.9375 18.9962 19.9287 19.0379 19.9114C19.0796 19.8941 19.1175 19.8688 19.1494 19.8369C19.1814 19.805 19.2067 19.767 19.2239 19.7253C19.2412 19.6836 19.2501 19.6389 19.25 19.5938V11.6875C19.25 11.5963 19.2863 11.5089 19.3507 11.4444C19.4152 11.38 19.5026 11.3438 19.5938 11.3438C19.685 11.3438 19.7724 11.38 19.8369 11.4444C19.9013 11.5089 19.9375 11.5963 19.9375 11.6875V19.5938C19.9375 19.6389 19.9464 19.6836 19.9637 19.7253C19.9809 19.767 20.0062 19.805 20.0382 19.8369C20.0701 19.8688 20.108 19.8941 20.1497 19.9114C20.1914 19.9287 20.2361 19.9375 20.2813 19.9375C20.3725 19.9375 20.4599 19.9737 20.5244 20.0382C20.5888 20.1026 20.625 20.1901 20.625 20.2812C20.625 20.3724 20.5888 20.4599 20.5244 20.5243C20.4599 20.5888 20.3725 20.625 20.2813 20.625Z" fill="#ECC681" stroke="#ECC681" stroke-width="0.4" mask="url(#path-1-inside-1_38_879)"/>
</svg>
