<svg width="30" height="30" viewBox="0 0 30 30" fill="none" xmlns="http://www.w3.org/2000/svg">
<path d="M14.5405 7.54223C13.5101 7.54223 11.915 6.36332 10.2353 6.40593C8.01918 6.43434 5.98656 7.69848 4.84321 9.70122C2.5424 13.7209 4.25036 19.6581 6.49471 22.925C7.59571 24.5158 8.89433 26.3055 10.6164 26.2487C12.2679 26.1777 12.889 25.1692 14.8934 25.1692C16.8836 25.1692 17.4483 26.2487 19.1986 26.2061C20.9771 26.1777 22.1063 24.5868 23.1932 22.9818C24.4495 21.1353 24.9718 19.3456 25 19.2462C24.9577 19.232 21.5417 17.911 21.4994 13.934C21.4711 10.6103 24.1954 9.01943 24.3225 8.94841C22.7698 6.6616 20.3843 6.40593 19.5515 6.34911C17.3777 6.17867 15.5568 7.54223 14.5405 7.54223ZM18.2105 4.19013C19.128 3.08223 19.735 1.53401 19.5656 0C18.2528 0.0568153 16.6719 0.880637 15.7262 1.98854C14.8793 2.9686 14.1453 4.54523 14.3429 6.05083C15.7968 6.16446 17.293 5.29803 18.2105 4.19013Z" fill="white"/>
</svg>
