<svg width="13" height="25" viewBox="0 0 13 25" fill="none" xmlns="http://www.w3.org/2000/svg">
<path d="M5.55 24.375H6.95C7.69995 24.375 8.07492 24.375 8.33779 24.184C8.42268 24.1223 8.49734 24.0477 8.55902 23.9628C8.75 23.6999 8.75 23.3249 8.75 22.575V14.2188H10.7C11.4499 14.2188 11.8249 14.2188 12.0878 14.0278C12.1727 13.9661 12.2473 13.8914 12.309 13.8065C12.5 13.5437 12.5 13.1687 12.5 12.4187V11.2792C12.5 10.5292 12.5 10.1542 12.309 9.89138C12.2473 9.80649 12.1727 9.73183 12.0878 9.67015C11.8249 9.47917 11.4499 9.47917 10.7 9.47917H8.75V6.53958C8.75 5.78964 8.75 5.41466 8.94098 5.1518C9.00266 5.0669 9.07732 4.99225 9.16221 4.93057C9.42508 4.73958 9.80005 4.73958 10.55 4.73958H10.7C11.4499 4.73958 11.8249 4.73958 12.0878 4.5486C12.1727 4.48692 12.2473 4.41226 12.309 4.32737C12.5 4.0645 12.5 3.68953 12.5 2.93958V1.8C12.5 1.05005 12.5 0.67508 12.309 0.412215C12.2473 0.32732 12.1727 0.252663 12.0878 0.190983C11.8249 0 11.4499 0 10.7 0H10.05C7.42519 0 6.11278 0 5.19275 0.668441C4.89562 0.884319 4.63432 1.14562 4.41844 1.44275C3.75 2.36278 3.75 3.67519 3.75 6.3V9.47917H1.8C1.05005 9.47917 0.67508 9.47917 0.412215 9.67015C0.32732 9.73183 0.252663 9.80649 0.190983 9.89138C0 10.1542 0 10.5292 0 11.2792V12.4187C0 13.1687 0 13.5437 0.190983 13.8065C0.252663 13.8914 0.32732 13.9661 0.412215 14.0278C0.67508 14.2188 1.05005 14.2188 1.8 14.2188H3.75V22.575C3.75 23.3249 3.75 23.6999 3.94098 23.9628C4.00266 24.0477 4.07732 24.1223 4.16221 24.184C4.42508 24.375 4.80005 24.375 5.55 24.375Z" fill="white"/>
</svg>
