<svg width="30" height="30" viewBox="0 0 30 30" fill="none" xmlns="http://www.w3.org/2000/svg">
<path d="M26.9422 15.2951C26.9422 14.4713 26.8692 13.6892 26.7441 12.928H14.9604V17.631H21.7074C21.4049 19.1744 20.5186 20.4779 19.2046 21.3642V24.4926H23.2298C25.5866 22.3132 26.9422 19.1014 26.9422 15.2951Z" fill="white"/>
<path d="M14.9604 27.5272C18.3391 27.5272 21.1651 26.401 23.2298 24.4926L19.2046 21.3642C18.0784 22.1151 16.6498 22.5739 14.9604 22.5739C11.6965 22.5739 8.93306 20.3736 7.9424 17.4016H3.79206V20.6238C5.84638 24.7116 10.0697 27.5272 14.9604 27.5272Z" fill="white"/>
<path d="M7.9424 17.4016C7.6817 16.6508 7.54614 15.8478 7.54614 15.0136C7.54614 14.1794 7.69213 13.3764 7.9424 12.6256V9.40333H3.79206C2.93697 11.0927 2.44685 12.9906 2.44685 15.0136C2.44685 17.0366 2.93697 18.9345 3.79206 20.6238L7.9424 17.4016Z" fill="white"/>
<path d="M14.9604 7.4533C16.8062 7.4533 18.4538 8.0894 19.7573 9.33034L23.3237 5.76396C21.1651 3.74093 18.3391 2.5 14.9604 2.5C10.0697 2.5 5.84638 5.31556 3.79206 9.40333L7.9424 12.6256C8.93306 9.6536 11.6965 7.4533 14.9604 7.4533Z" fill="white"/>
</svg>
