<svg width="20" height="20" viewBox="0 0 20 20" fill="none" xmlns="http://www.w3.org/2000/svg">
<path d="M2.5 9.15C2.5 6.90016 2.5 5.77524 3.07295 4.98664C3.25799 4.73196 3.48196 4.50799 3.73664 4.32295C4.52524 3.75 5.65016 3.75 7.9 3.75H12.1C14.3498 3.75 15.4748 3.75 16.2634 4.32295C16.518 4.50799 16.742 4.73196 16.9271 4.98664C17.5 5.77524 17.5 6.90016 17.5 9.15V10.85C17.5 13.0998 17.5 14.2248 16.9271 15.0134C16.742 15.268 16.518 15.492 16.2634 15.6771C15.4748 16.25 14.3498 16.25 12.1 16.25H7.9C5.65016 16.25 4.52524 16.25 3.73664 15.6771C3.48196 15.492 3.25799 15.268 3.07295 15.0134C2.5 14.2248 2.5 13.0998 2.5 10.85V9.15Z" stroke="white" stroke-linejoin="round"/>
<path d="M2.5 6.66666L4.47479 8.20253C6.82441 10.0299 7.99922 10.9436 9.3412 11.1221C9.77869 11.1802 10.222 11.1802 10.6594 11.122C12.0014 10.9435 13.1762 10.0298 15.5257 8.20228L17.5 6.66666" stroke="white" stroke-linejoin="round"/>
</svg>
