<svg width="20" height="20" viewBox="0 0 20 20" fill="none" xmlns="http://www.w3.org/2000/svg">
<path d="M9.99999 4.16666C12.4787 4.16666 14.6784 5.81737 16.1946 7.36257C16.9946 8.17799 17.3947 8.58569 17.5434 9.53631C17.5782 9.75866 17.5782 10.2413 17.5434 10.4637C17.3947 11.4143 16.9946 11.822 16.1946 12.6374C14.6784 14.1826 12.4787 15.8333 9.99999 15.8333C7.52131 15.8333 5.32158 14.1826 3.80543 12.6374C3.00535 11.822 2.60531 11.4143 2.4566 10.4637C2.42181 10.2413 2.42181 9.75866 2.4566 9.53631C2.60531 8.58569 3.00535 8.17799 3.80543 7.36257C5.32157 5.81737 7.52131 4.16666 9.99999 4.16666Z" stroke="white" stroke-linejoin="round"/>
<path d="M12.5 10C12.5 11.3807 11.3807 12.5 10 12.5C8.61929 12.5 7.5 11.3807 7.5 10C7.5 8.61929 8.61929 7.5 10 7.5C11.3807 7.5 12.5 8.61929 12.5 10Z" stroke="white" stroke-linejoin="round"/>
</svg>
