<svg width="30" height="30" viewBox="0 0 30 30" fill="none" xmlns="http://www.w3.org/2000/svg">
<path fill-rule="evenodd" clip-rule="evenodd" d="M18.6377 2.8125C22.1998 2.8125 23.9809 2.81257 25.2295 3.71973C25.6327 4.01269 25.9873 4.36728 26.2803 4.77051C27.1874 6.0191 27.1875 7.80019 27.1875 11.3623V18.6377C27.1875 22.1998 27.1874 23.9809 26.2803 25.2295C25.9873 25.6327 25.6327 25.9873 25.2295 26.2803C23.9809 27.1874 22.1998 27.1875 18.6377 27.1875H11.3623C7.80019 27.1875 6.0191 27.1874 4.77051 26.2803C4.36728 25.9873 4.01269 25.6327 3.71973 25.2295C2.81257 23.9809 2.8125 22.1998 2.8125 18.6377V11.3623C2.8125 7.80019 2.81257 6.0191 3.71973 4.77051C4.01269 4.36728 4.36728 4.01269 4.77051 3.71973C6.0191 2.81257 7.80019 2.8125 11.3623 2.8125H18.6377ZM15 10C12.2386 10 10 12.2386 10 15C10 17.7614 12.2386 20 15 20C17.7614 20 20 17.7614 20 15C20 12.2386 17.7614 10 15 10ZM21.875 6.875C21.1846 6.875 20.625 7.43464 20.625 8.125C20.625 8.81536 21.1846 9.375 21.875 9.375C22.5654 9.375 23.125 8.81536 23.125 8.125C23.125 7.43464 22.5654 6.875 21.875 6.875Z" fill="white"/>
</svg>
