<svg width="21" height="20" viewBox="0 0 21 20" fill="none" xmlns="http://www.w3.org/2000/svg">
<path fill-rule="evenodd" clip-rule="evenodd" d="M0 3.86928C0 2.5337 1.08271 1.45099 2.41829 1.45099H17.8954C19.2309 1.45099 20.3137 2.5337 20.3137 3.86928V5.80392C20.3137 6.07103 20.0971 6.28757 19.83 6.28757H0.483659C0.216544 6.28757 0 6.07103 0 5.80392V3.86928ZM2.41829 2.41831C1.61694 2.41831 0.967317 3.06793 0.967317 3.86928V5.32026H19.3463V3.86928C19.3463 3.06793 18.6967 2.41831 17.8954 2.41831H2.41829Z" fill="white"/>
<path fill-rule="evenodd" clip-rule="evenodd" d="M0 5.80397C0 5.53686 0.216544 5.32031 0.483659 5.32031H19.83C20.0971 5.32031 20.3137 5.53686 20.3137 5.80397V17.4118C20.3137 18.7473 19.2309 19.8301 17.8954 19.8301H2.41829C1.08271 19.8301 0 18.7473 0 17.4118V5.80397ZM0.967317 6.28763V17.4118C0.967317 18.2131 1.61694 18.8628 2.41829 18.8628H17.8954C18.6967 18.8628 19.3463 18.2131 19.3463 17.4118V6.28763H0.967317Z" fill="white"/>
<path fill-rule="evenodd" clip-rule="evenodd" d="M15.4772 2.90195V0H16.4445V2.90195H15.4772Z" fill="white"/>
<path fill-rule="evenodd" clip-rule="evenodd" d="M3.86938 2.90195V0H4.8367V2.90195H3.86938Z" fill="white"/>
<path fill-rule="evenodd" clip-rule="evenodd" d="M14.3681 10.0152L9.53152 14.8518C9.3426 15.0406 9.03635 15.0406 8.84753 14.8518L5.94556 11.9498L6.62956 11.2657L9.18947 13.8258L13.6841 9.33112L14.3681 10.0152Z" fill="white"/>
</svg>
