<svg width="28" height="28" viewBox="0 0 28 28" fill="none" xmlns="http://www.w3.org/2000/svg">
<path d="M16.1182 4.7C15.5892 4.24767 14.916 3.99939 14.22 4H13.6133C12.9174 3.99939 12.2441 4.24767 11.7152 4.7L5.0185 10.4412C4.69893 10.7151 4.44243 11.0549 4.26662 11.4374C4.09081 11.8198 3.99985 12.2358 4 12.6567V20.9167C4 21.6902 4.30729 22.4321 4.85427 22.9791C5.40125 23.526 6.14312 23.8333 6.91667 23.8333H20.9167C21.6902 23.8333 22.4321 23.526 22.9791 22.9791C23.526 22.4321 23.8333 21.6902 23.8333 20.9167V12.6567C23.8337 12.2356 23.7428 11.8194 23.567 11.4367C23.3911 11.0541 23.1346 10.7141 22.8148 10.44L16.1182 4.7ZM22.6667 20.9167C22.6667 21.3808 22.4823 21.8259 22.1541 22.1541C21.8259 22.4823 21.3808 22.6667 20.9167 22.6667H6.91667C6.45254 22.6667 6.00742 22.4823 5.67923 22.1541C5.35104 21.8259 5.16667 21.3808 5.16667 20.9167V12.6567C5.16653 12.4043 5.22099 12.1548 5.32631 11.9255C5.43163 11.6961 5.58532 11.4922 5.77683 11.3278L12.4747 5.58783C12.7918 5.31607 13.1957 5.16668 13.6133 5.16667H14.22C14.6377 5.16668 15.0415 5.31607 15.3587 5.58783L22.0565 11.3278C22.248 11.4922 22.4017 11.6961 22.507 11.9255C22.6123 12.1548 22.6668 12.4043 22.6667 12.6567V20.9167Z" fill="white"/>
<path d="M17.4167 19.1666H10.4167C10.262 19.1666 10.1136 19.2281 10.0042 19.3375C9.89483 19.4469 9.83337 19.5952 9.83337 19.75C9.83337 19.9047 9.89483 20.053 10.0042 20.1624C10.1136 20.2718 10.262 20.3333 10.4167 20.3333H17.4167C17.5714 20.3333 17.7198 20.2718 17.8292 20.1624C17.9386 20.053 18 19.9047 18 19.75C18 19.5952 17.9386 19.4469 17.8292 19.3375C17.7198 19.2281 17.5714 19.1666 17.4167 19.1666Z" fill="white"/>
</svg>
