<svg width="28" height="28" viewBox="0 0 28 28" fill="none" xmlns="http://www.w3.org/2000/svg">
<path d="M2.13757 22.4704C2.11843 22.5914 2.14643 22.7154 2.21667 22.8161C2.28867 22.9191 2.39861 22.9894 2.52234 23.0114C2.64616 23.0334 2.77369 23.0053 2.87683 22.9333C2.92788 22.8976 2.97122 22.852 3.00476 22.7995C3.0373 22.7486 3.05894 22.6919 3.07019 22.6325L3.07117 22.6335L3.57019 20.988L3.58972 20.9235H2.13757V22.4704ZM24.452 20.989L24.9901 22.6335V22.6345L24.9911 22.6364C25.0247 22.7266 25.0849 22.8046 25.163 22.861C25.2409 22.9173 25.3335 22.9492 25.4296 22.9528L25.5966 22.9597L25.5282 22.9108C25.6025 22.8894 25.6718 22.8522 25.7274 22.7966C25.8138 22.7102 25.8621 22.5926 25.8622 22.4704V20.9235H24.4315L24.452 20.989ZM2.13757 20.1491H25.8622V17.1179H2.13757V20.1491ZM26.6376 22.4704C26.6175 22.7471 26.5052 23.0095 26.3182 23.2145C26.1305 23.4204 25.8783 23.5564 25.6034 23.6013C25.3283 23.646 25.046 23.5963 24.8026 23.4606C24.5603 23.3255 24.3703 23.1131 24.2635 22.8571L23.6464 20.9587L23.6346 20.9235H4.44324L4.4325 20.9587L3.81531 22.8522V22.8532C3.72523 23.1343 3.53737 23.3742 3.28601 23.529C3.03461 23.6837 2.73575 23.7432 2.44421 23.697C2.15279 23.6507 1.88733 23.5018 1.69617 23.277C1.50495 23.0521 1.40089 22.7656 1.40222 22.4704V16.7302H1.4032L1.40125 16.7204C1.40056 16.7165 1.40052 16.7126 1.40125 16.7087L1.40222 16.6999L1.40125 16.6921C1.39759 16.6686 1.39771 16.6443 1.40125 16.6208C1.40582 16.5972 1.41379 16.5743 1.42566 16.5534L1.4325 16.5417V16.5124L4.64929 11.4636L4.6571 11.4509V7.46161C4.68968 6.59127 5.06573 5.76914 5.703 5.17548C6.34028 4.58181 7.18703 4.26453 8.0575 4.29364H19.9432C20.8135 4.26461 21.6596 4.58197 22.2968 5.17548C22.8942 5.732 23.2624 6.48896 23.3329 7.29852L23.3436 7.46161V11.4509L23.3514 11.4636L26.5809 16.5251V16.5554L26.5868 16.5671C26.5987 16.5881 26.6076 16.6107 26.6122 16.6345L26.6132 16.6413L26.6171 16.6481L26.6385 16.7097C26.6391 16.7132 26.6392 16.7169 26.6385 16.7204L26.6874 16.7302L26.6376 16.7204V22.4704ZM5.24304 11.9733L2.50378 16.2653L2.45496 16.3425H25.5448L25.496 16.2653L22.7567 11.9733L22.7421 11.9509H5.25769L5.24304 11.9733ZM8.73718 8.50751C8.59315 8.50751 8.45162 8.51458 8.35339 8.62665C8.30522 8.68165 8.27038 8.75815 8.24792 8.86102C8.22552 8.96388 8.21472 9.0963 8.21472 9.2663V11.1755H12.5145V9.2663C12.5145 9.09621 12.5027 8.96389 12.4803 8.86102C12.458 8.75813 12.4237 8.68164 12.3759 8.62665C12.2782 8.51457 12.1379 8.50751 11.996 8.50751H8.73718ZM16.1698 8.50751C16.0279 8.50751 15.8875 8.51454 15.7899 8.62665C15.7421 8.68163 15.7078 8.75824 15.6854 8.86102C15.6631 8.96387 15.6522 9.09627 15.6522 9.2663V11.1755H19.952V9.2663C19.952 9.09621 19.9402 8.96389 19.9178 8.86102C19.8955 8.75813 19.8612 8.68164 19.8134 8.62665C19.7157 8.51457 19.5754 8.50751 19.4335 8.50751H16.1698ZM22.5682 7.45673C22.5347 6.79202 22.2386 6.16789 21.746 5.7204C21.2539 5.27348 20.6053 5.03932 19.9413 5.06903H8.05847C7.39446 5.0394 6.74584 5.27345 6.25378 5.7204C5.76113 6.16789 5.46508 6.79202 5.43152 7.45673V11.1755H7.453V9.2663C7.453 8.62173 7.63203 8.24127 7.87781 8.02118C8.12476 7.80022 8.44789 7.73214 8.74988 7.73212H11.996C12.2958 7.73212 12.6177 7.79891 12.8641 8.01923C13.1095 8.2387 13.2889 8.61922 13.2889 9.2663V11.1755H14.8593V9.2663C14.8593 8.62146 15.0396 8.24124 15.285 8.02118C15.5314 7.80037 15.8526 7.73216 16.1522 7.73212H19.4247C19.7245 7.73212 20.0465 7.79893 20.2928 8.01923C20.5382 8.2387 20.7186 8.61922 20.7186 9.2663V11.1755H22.5682V7.45673Z" fill="white" stroke="white" stroke-width="0.1"/>
</svg>
