<svg width="28" height="28" viewBox="0 0 28 28" fill="none" xmlns="http://www.w3.org/2000/svg">
<path d="M14.0547 3.90039C18.185 3.90064 21.5449 7.2556 21.5449 11.3799V12.1367C22.4531 12.7591 23.0516 13.803 23.0518 14.9854C23.0518 16.1757 22.4449 17.2258 21.5264 17.8467V19.8857C21.5263 21.4707 20.2372 22.7596 18.6523 22.7598H15.7471C15.5565 23.4339 14.9378 23.9297 14.2031 23.9297C13.3175 23.9297 12.5969 23.2098 12.5967 22.3242C12.5967 21.4384 13.3173 20.7178 14.2031 20.7178C14.9378 20.7178 15.5565 21.2136 15.7471 21.8877H18.6523C19.7559 21.8875 20.6542 20.9893 20.6543 19.8857V18.2695C20.321 18.3769 19.967 18.4385 19.5986 18.4385C19.3577 18.4385 19.1621 18.2429 19.1621 18.002C19.1621 17.9965 19.1629 17.9918 19.1631 17.9893V11.9824C19.1629 11.9798 19.1621 11.9744 19.1621 11.9688C19.1621 11.9535 19.1626 11.9384 19.1641 11.9238C19.1814 11.6988 19.3698 11.5215 19.5996 11.5215C19.6354 11.5215 19.6696 11.5262 19.7021 11.5342C20.0403 11.5442 20.3655 11.6061 20.6729 11.707V11.3799C20.6729 7.73727 17.7039 4.77271 14.0547 4.77246C10.4052 4.77246 7.43555 7.73712 7.43555 11.3799V11.6582C7.70501 11.5838 7.98712 11.5404 8.27832 11.5342L8.35059 11.5264L8.42188 11.5322C8.58203 11.5586 8.71162 11.6724 8.7627 11.8223C8.77896 11.8676 8.78902 11.9167 8.78906 11.9688C8.78906 11.9823 8.78824 11.9956 8.78711 12.0078L8.78223 17.9326H8.78125C8.78493 17.9552 8.78904 17.9781 8.78906 18.002C8.78906 18.2429 8.59352 18.4385 8.35254 18.4385C6.44867 18.4383 4.90039 16.8892 4.90039 14.9854C4.90052 13.7361 5.56772 12.6412 6.56348 12.0352V11.3799C6.56348 7.25546 9.92419 3.90039 14.0547 3.90039ZM14.2031 21.5898C13.7987 21.5898 13.4697 21.9198 13.4697 22.3242C13.47 22.7284 13.7989 23.0576 14.2031 23.0576C14.6074 23.0576 14.9363 22.7284 14.9365 22.3242C14.9365 21.9198 14.6075 21.5899 14.2031 21.5898ZM20.0352 17.5244C21.2503 17.3161 22.1787 16.2588 22.1787 14.9854C22.1785 13.712 21.2502 12.6546 20.0352 12.4463V17.5244ZM7.91309 12.4463C6.69952 12.6558 5.77264 13.7131 5.77246 14.9854C5.77246 16.2563 6.6975 17.3122 7.90918 17.5234L7.91309 12.4463Z" fill="white" stroke="white" stroke-width="0.2"/>
</svg>
