<svg width="28" height="28" viewBox="0 0 28 28" fill="none" xmlns="http://www.w3.org/2000/svg">
<mask id="path-1-outside-1_38_86" maskUnits="userSpaceOnUse" x="0.989502" y="3" width="26" height="21" fill="black">
<rect fill="white" x="0.989502" y="3" width="26" height="21"/>
<path d="M25.9524 17.5539C25.8078 17.444 25.6374 17.3731 25.4575 17.3481C25.2776 17.323 25.0943 17.3447 24.9252 17.411C24.9807 17.191 24.9656 16.9592 24.8822 16.7482C24.7988 16.5372 24.6513 16.3577 24.4604 16.2351C23.3926 15.6111 20.9165 17.4029 19.3316 17.7189C21.8577 15.6634 25.0983 12.374 25.0983 8.90903C25.0886 7.87832 24.7578 6.87629 24.1518 6.04245C23.5459 5.20861 22.695 4.58446 21.7177 4.2569C20.7404 3.92934 19.6853 3.91467 18.6992 4.21493C17.7132 4.51519 16.8453 5.11545 16.2164 5.93212C15.5875 5.11545 14.7196 4.51519 13.7336 4.21493C12.7475 3.91467 11.6924 3.92934 10.7151 4.2569C9.73777 4.58446 8.88691 5.20861 8.28098 6.04245C7.67504 6.87629 7.34419 7.87832 7.33448 8.90903C7.33448 11.3689 8.97631 13.7532 10.8389 15.6541C8.02242 15.3499 5.18809 15.2431 2.35669 15.3346C2.26001 15.3349 2.16731 15.3732 2.09862 15.4412C2.02992 15.5093 1.99074 15.6016 1.98952 15.6983V22.3551C1.98905 22.4042 1.99838 22.4529 2.01696 22.4984C2.03554 22.5438 2.063 22.5851 2.09773 22.6199C2.13245 22.6546 2.17376 22.682 2.21922 22.7006C2.26468 22.7192 2.31339 22.7285 2.3625 22.7281H5.41145C10.0523 24.378 19.8986 24.7162 25.5131 19.8604C25.7458 19.7041 25.9453 19.5033 26.1 19.2696C26.2548 19.0358 26.3618 18.7738 26.4148 18.4986C26.4174 18.3158 26.3769 18.1351 26.2966 17.9709C26.2162 17.8068 26.0983 17.6639 25.9524 17.5539ZM22.2283 17.411C23.08 17.0996 24.1142 16.4036 24.2164 17.1589C24.1634 17.4224 24.02 17.6592 23.8109 17.8281C22.3076 18.4937 20.7534 19.0377 19.1631 19.4549C19.248 19.1543 19.2631 18.8384 19.2073 18.5311C20.236 18.219 21.2448 17.845 22.2283 17.411ZM8.08045 8.90903C8.08122 7.98779 8.38466 7.09232 8.94409 6.36039C9.50351 5.62846 10.2879 5.10061 11.1767 4.85806C12.0654 4.61551 13.0092 4.67169 13.8629 5.01796C14.7166 5.36423 15.4329 5.9814 15.9015 6.77453C15.9334 6.83083 15.9797 6.87766 16.0357 6.91023C16.0916 6.94281 16.1552 6.95998 16.2199 6.95998C16.2846 6.95998 16.3482 6.94281 16.4041 6.91023C16.46 6.87766 16.5063 6.83083 16.5383 6.77453C17.0072 5.98146 17.7236 5.36429 18.5773 5.01786C19.4311 4.67143 20.3749 4.61489 21.2639 4.85693C22.1529 5.09897 22.9378 5.62621 23.4981 6.35763C24.0583 7.08905 24.363 7.9842 24.3651 8.90554C24.3651 12.1787 21.0152 15.4299 18.5554 17.375C18.2414 17.1665 17.8726 17.0557 17.4957 17.0566C14.0947 17.1217 13.5195 16.7708 12.8479 16.3862C10.4462 14.6398 8.1246 11.6303 8.08045 8.90903ZM2.73084 16.0701H5.10354V21.9798H2.73084V16.0701ZM25.0681 19.2562C17.5062 25.2495 7.53666 22.5968 5.84021 22.0902V16.0701C10.8982 16.091 11.7324 16.586 12.4796 17.0252C13.2267 17.4644 13.8972 17.8607 17.5271 17.7944C17.6802 17.7935 17.8316 17.8279 17.9693 17.8948C18.1071 17.9618 18.2276 18.0595 18.3215 18.1805C18.4154 18.3015 18.4802 18.4425 18.5109 18.5925C18.5416 18.7426 18.5373 18.8977 18.4985 19.0459C18.5066 19.1621 18.4415 19.4979 17.8013 19.7605C17.0902 20.0184 15.5936 20.2578 12.2321 19.8267C12.1357 19.8166 12.0392 19.8441 11.9626 19.9034C11.886 19.9627 11.8352 20.0493 11.8208 20.1451C11.8142 20.1934 11.8173 20.2425 11.8297 20.2896C11.8422 20.3367 11.8638 20.3809 11.8934 20.4197C11.923 20.4584 11.9599 20.4909 12.0021 20.5154C12.0442 20.5399 12.0908 20.5558 12.1391 20.5622C14.087 20.9409 16.0926 20.9073 18.0267 20.4634C20.0252 20.057 21.9733 19.4336 23.8365 18.6043C24.594 18.2848 25.3086 17.978 25.4725 18.1093C26.0035 18.5102 25.3284 19.0586 25.0681 19.2562Z"/>
<path d="M3.91719 16.8614C3.80348 16.8614 3.69442 16.9066 3.61401 16.987C3.53361 17.0674 3.48843 17.1765 3.48843 17.2902C3.48843 17.4039 3.53361 17.5129 3.61401 17.5934C3.69442 17.6738 3.80348 17.7189 3.91719 17.7189C4.03091 17.7189 4.13996 17.6738 4.22037 17.5934C4.30078 17.5129 4.34595 17.4039 4.34595 17.2902C4.34595 17.1765 4.30078 17.0674 4.22037 16.987C4.13996 16.9066 4.03091 16.8614 3.91719 16.8614Z"/>
<path d="M13.5393 13.2814H14.8639V14.5991C14.8633 14.8472 14.9605 15.0855 15.1345 15.2624C15.3086 15.4393 15.5453 15.5404 15.7935 15.5437H16.6393C16.8874 15.5401 17.1239 15.4389 17.2979 15.2621C17.4719 15.0853 17.5692 14.8471 17.5689 14.5991V13.2814H18.8924C19.1399 13.2817 19.3774 13.1842 19.5533 13.0101C19.7292 12.8359 19.8291 12.5993 19.8312 12.3518V11.5013C19.8309 11.2517 19.7321 11.0124 19.5563 10.8353C19.3805 10.6582 19.1419 10.5576 18.8924 10.5555H17.577V9.23899C17.577 8.99246 17.4791 8.75602 17.3048 8.58169C17.1305 8.40737 16.894 8.30943 16.6475 8.30943H15.8016C15.555 8.30943 15.3186 8.40737 15.1443 8.58169C14.97 8.75602 14.872 8.99246 14.872 9.23899V10.5555H13.5393C13.2897 10.5576 13.0511 10.6582 12.8753 10.8353C12.6995 11.0124 12.6007 11.2517 12.6004 11.5013V12.3518C12.6026 12.5993 12.7025 12.8359 12.8783 13.0101C13.0542 13.1842 13.2918 13.2817 13.5393 13.2814ZM13.3476 11.5013C13.3472 11.45 13.3672 11.4007 13.4032 11.3642C13.4391 11.3276 13.488 11.3067 13.5393 11.3061H15.2357C15.3347 11.3061 15.4297 11.2668 15.4999 11.1969C15.57 11.127 15.6096 11.0321 15.6099 10.9331V9.23899C15.5889 8.91364 16.2396 9.07864 16.6475 9.0403C16.6735 9.0403 16.6993 9.04544 16.7233 9.05544C16.7474 9.06544 16.7692 9.0801 16.7876 9.09856C16.8059 9.11703 16.8205 9.13894 16.8303 9.16304C16.8402 9.18714 16.8452 9.21295 16.845 9.23899V10.9296C16.8439 10.9785 16.8526 11.0271 16.8705 11.0725C16.8883 11.118 16.9151 11.1595 16.9492 11.1945C16.9832 11.2296 17.0239 11.2575 17.0689 11.2766C17.1138 11.2958 17.1622 11.3058 17.211 11.3061H18.9028C19.2282 11.2887 19.0632 11.9603 19.1004 12.3518C19.0982 12.4025 19.0764 12.4503 19.0395 12.4851C19.0026 12.5198 18.9535 12.5387 18.9028 12.5378H17.211C17.113 12.5399 17.0197 12.5802 16.9509 12.65C16.8821 12.7199 16.8433 12.8139 16.8427 12.9119V14.5991C16.8624 14.9244 16.1897 14.7594 15.7969 14.7966C15.7712 14.7968 15.7457 14.7917 15.722 14.7818C15.6983 14.7718 15.6768 14.7572 15.6589 14.7387C15.641 14.7203 15.627 14.6984 15.6178 14.6744C15.6085 14.6504 15.6043 14.6248 15.6052 14.5991V12.9073C15.6034 12.8086 15.5634 12.7145 15.4937 12.6447C15.4239 12.5749 15.3297 12.5349 15.2311 12.5331H13.5393C13.2232 12.5517 13.3836 11.9103 13.3476 11.5013Z"/>
</mask>
<path d="M25.9524 17.5539C25.8078 17.444 25.6374 17.3731 25.4575 17.3481C25.2776 17.323 25.0943 17.3447 24.9252 17.411C24.9807 17.191 24.9656 16.9592 24.8822 16.7482C24.7988 16.5372 24.6513 16.3577 24.4604 16.2351C23.3926 15.6111 20.9165 17.4029 19.3316 17.7189C21.8577 15.6634 25.0983 12.374 25.0983 8.90903C25.0886 7.87832 24.7578 6.87629 24.1518 6.04245C23.5459 5.20861 22.695 4.58446 21.7177 4.2569C20.7404 3.92934 19.6853 3.91467 18.6992 4.21493C17.7132 4.51519 16.8453 5.11545 16.2164 5.93212C15.5875 5.11545 14.7196 4.51519 13.7336 4.21493C12.7475 3.91467 11.6924 3.92934 10.7151 4.2569C9.73777 4.58446 8.88691 5.20861 8.28098 6.04245C7.67504 6.87629 7.34419 7.87832 7.33448 8.90903C7.33448 11.3689 8.97631 13.7532 10.8389 15.6541C8.02242 15.3499 5.18809 15.2431 2.35669 15.3346C2.26001 15.3349 2.16731 15.3732 2.09862 15.4412C2.02992 15.5093 1.99074 15.6016 1.98952 15.6983V22.3551C1.98905 22.4042 1.99838 22.4529 2.01696 22.4984C2.03554 22.5438 2.063 22.5851 2.09773 22.6199C2.13245 22.6546 2.17376 22.682 2.21922 22.7006C2.26468 22.7192 2.31339 22.7285 2.3625 22.7281H5.41145C10.0523 24.378 19.8986 24.7162 25.5131 19.8604C25.7458 19.7041 25.9453 19.5033 26.1 19.2696C26.2548 19.0358 26.3618 18.7738 26.4148 18.4986C26.4174 18.3158 26.3769 18.1351 26.2966 17.9709C26.2162 17.8068 26.0983 17.6639 25.9524 17.5539ZM22.2283 17.411C23.08 17.0996 24.1142 16.4036 24.2164 17.1589C24.1634 17.4224 24.02 17.6592 23.8109 17.8281C22.3076 18.4937 20.7534 19.0377 19.1631 19.4549C19.248 19.1543 19.2631 18.8384 19.2073 18.5311C20.236 18.219 21.2448 17.845 22.2283 17.411ZM8.08045 8.90903C8.08122 7.98779 8.38466 7.09232 8.94409 6.36039C9.50351 5.62846 10.2879 5.10061 11.1767 4.85806C12.0654 4.61551 13.0092 4.67169 13.8629 5.01796C14.7166 5.36423 15.4329 5.9814 15.9015 6.77453C15.9334 6.83083 15.9797 6.87766 16.0357 6.91023C16.0916 6.94281 16.1552 6.95998 16.2199 6.95998C16.2846 6.95998 16.3482 6.94281 16.4041 6.91023C16.46 6.87766 16.5063 6.83083 16.5383 6.77453C17.0072 5.98146 17.7236 5.36429 18.5773 5.01786C19.4311 4.67143 20.3749 4.61489 21.2639 4.85693C22.1529 5.09897 22.9378 5.62621 23.4981 6.35763C24.0583 7.08905 24.363 7.9842 24.3651 8.90554C24.3651 12.1787 21.0152 15.4299 18.5554 17.375C18.2414 17.1665 17.8726 17.0557 17.4957 17.0566C14.0947 17.1217 13.5195 16.7708 12.8479 16.3862C10.4462 14.6398 8.1246 11.6303 8.08045 8.90903ZM2.73084 16.0701H5.10354V21.9798H2.73084V16.0701ZM25.0681 19.2562C17.5062 25.2495 7.53666 22.5968 5.84021 22.0902V16.0701C10.8982 16.091 11.7324 16.586 12.4796 17.0252C13.2267 17.4644 13.8972 17.8607 17.5271 17.7944C17.6802 17.7935 17.8316 17.8279 17.9693 17.8948C18.1071 17.9618 18.2276 18.0595 18.3215 18.1805C18.4154 18.3015 18.4802 18.4425 18.5109 18.5925C18.5416 18.7426 18.5373 18.8977 18.4985 19.0459C18.5066 19.1621 18.4415 19.4979 17.8013 19.7605C17.0902 20.0184 15.5936 20.2578 12.2321 19.8267C12.1357 19.8166 12.0392 19.8441 11.9626 19.9034C11.886 19.9627 11.8352 20.0493 11.8208 20.1451C11.8142 20.1934 11.8173 20.2425 11.8297 20.2896C11.8422 20.3367 11.8638 20.3809 11.8934 20.4197C11.923 20.4584 11.9599 20.4909 12.0021 20.5154C12.0442 20.5399 12.0908 20.5558 12.1391 20.5622C14.087 20.9409 16.0926 20.9073 18.0267 20.4634C20.0252 20.057 21.9733 19.4336 23.8365 18.6043C24.594 18.2848 25.3086 17.978 25.4725 18.1093C26.0035 18.5102 25.3284 19.0586 25.0681 19.2562Z" fill="white"/>
<path d="M3.91719 16.8614C3.80348 16.8614 3.69442 16.9066 3.61401 16.987C3.53361 17.0674 3.48843 17.1765 3.48843 17.2902C3.48843 17.4039 3.53361 17.5129 3.61401 17.5934C3.69442 17.6738 3.80348 17.7189 3.91719 17.7189C4.03091 17.7189 4.13996 17.6738 4.22037 17.5934C4.30078 17.5129 4.34595 17.4039 4.34595 17.2902C4.34595 17.1765 4.30078 17.0674 4.22037 16.987C4.13996 16.9066 4.03091 16.8614 3.91719 16.8614Z" fill="white"/>
<path d="M13.5393 13.2814H14.8639V14.5991C14.8633 14.8472 14.9605 15.0855 15.1345 15.2624C15.3086 15.4393 15.5453 15.5404 15.7935 15.5437H16.6393C16.8874 15.5401 17.1239 15.4389 17.2979 15.2621C17.4719 15.0853 17.5692 14.8471 17.5689 14.5991V13.2814H18.8924C19.1399 13.2817 19.3774 13.1842 19.5533 13.0101C19.7292 12.8359 19.8291 12.5993 19.8312 12.3518V11.5013C19.8309 11.2517 19.7321 11.0124 19.5563 10.8353C19.3805 10.6582 19.1419 10.5576 18.8924 10.5555H17.577V9.23899C17.577 8.99246 17.4791 8.75602 17.3048 8.58169C17.1305 8.40737 16.894 8.30943 16.6475 8.30943H15.8016C15.555 8.30943 15.3186 8.40737 15.1443 8.58169C14.97 8.75602 14.872 8.99246 14.872 9.23899V10.5555H13.5393C13.2897 10.5576 13.0511 10.6582 12.8753 10.8353C12.6995 11.0124 12.6007 11.2517 12.6004 11.5013V12.3518C12.6026 12.5993 12.7025 12.8359 12.8783 13.0101C13.0542 13.1842 13.2918 13.2817 13.5393 13.2814ZM13.3476 11.5013C13.3472 11.45 13.3672 11.4007 13.4032 11.3642C13.4391 11.3276 13.488 11.3067 13.5393 11.3061H15.2357C15.3347 11.3061 15.4297 11.2668 15.4999 11.1969C15.57 11.127 15.6096 11.0321 15.6099 10.9331V9.23899C15.5889 8.91364 16.2396 9.07864 16.6475 9.0403C16.6735 9.0403 16.6993 9.04544 16.7233 9.05544C16.7474 9.06544 16.7692 9.0801 16.7876 9.09856C16.8059 9.11703 16.8205 9.13894 16.8303 9.16304C16.8402 9.18714 16.8452 9.21295 16.845 9.23899V10.9296C16.8439 10.9785 16.8526 11.0271 16.8705 11.0725C16.8883 11.118 16.9151 11.1595 16.9492 11.1945C16.9832 11.2296 17.0239 11.2575 17.0689 11.2766C17.1138 11.2958 17.1622 11.3058 17.211 11.3061H18.9028C19.2282 11.2887 19.0632 11.9603 19.1004 12.3518C19.0982 12.4025 19.0764 12.4503 19.0395 12.4851C19.0026 12.5198 18.9535 12.5387 18.9028 12.5378H17.211C17.113 12.5399 17.0197 12.5802 16.9509 12.65C16.8821 12.7199 16.8433 12.8139 16.8427 12.9119V14.5991C16.8624 14.9244 16.1897 14.7594 15.7969 14.7966C15.7712 14.7968 15.7457 14.7917 15.722 14.7818C15.6983 14.7718 15.6768 14.7572 15.6589 14.7387C15.641 14.7203 15.627 14.6984 15.6178 14.6744C15.6085 14.6504 15.6043 14.6248 15.6052 14.5991V12.9073C15.6034 12.8086 15.5634 12.7145 15.4937 12.6447C15.4239 12.5749 15.3297 12.5349 15.2311 12.5331H13.5393C13.2232 12.5517 13.3836 11.9103 13.3476 11.5013Z" fill="white"/>
<path d="M25.9524 17.5539C25.8078 17.444 25.6374 17.3731 25.4575 17.3481C25.2776 17.323 25.0943 17.3447 24.9252 17.411C24.9807 17.191 24.9656 16.9592 24.8822 16.7482C24.7988 16.5372 24.6513 16.3577 24.4604 16.2351C23.3926 15.6111 20.9165 17.4029 19.3316 17.7189C21.8577 15.6634 25.0983 12.374 25.0983 8.90903C25.0886 7.87832 24.7578 6.87629 24.1518 6.04245C23.5459 5.20861 22.695 4.58446 21.7177 4.2569C20.7404 3.92934 19.6853 3.91467 18.6992 4.21493C17.7132 4.51519 16.8453 5.11545 16.2164 5.93212C15.5875 5.11545 14.7196 4.51519 13.7336 4.21493C12.7475 3.91467 11.6924 3.92934 10.7151 4.2569C9.73777 4.58446 8.88691 5.20861 8.28098 6.04245C7.67504 6.87629 7.34419 7.87832 7.33448 8.90903C7.33448 11.3689 8.97631 13.7532 10.8389 15.6541C8.02242 15.3499 5.18809 15.2431 2.35669 15.3346C2.26001 15.3349 2.16731 15.3732 2.09862 15.4412C2.02992 15.5093 1.99074 15.6016 1.98952 15.6983V22.3551C1.98905 22.4042 1.99838 22.4529 2.01696 22.4984C2.03554 22.5438 2.063 22.5851 2.09773 22.6199C2.13245 22.6546 2.17376 22.682 2.21922 22.7006C2.26468 22.7192 2.31339 22.7285 2.3625 22.7281H5.41145C10.0523 24.378 19.8986 24.7162 25.5131 19.8604C25.7458 19.7041 25.9453 19.5033 26.1 19.2696C26.2548 19.0358 26.3618 18.7738 26.4148 18.4986C26.4174 18.3158 26.3769 18.1351 26.2966 17.9709C26.2162 17.8068 26.0983 17.6639 25.9524 17.5539ZM22.2283 17.411C23.08 17.0996 24.1142 16.4036 24.2164 17.1589C24.1634 17.4224 24.02 17.6592 23.8109 17.8281C22.3076 18.4937 20.7534 19.0377 19.1631 19.4549C19.248 19.1543 19.2631 18.8384 19.2073 18.5311C20.236 18.219 21.2448 17.845 22.2283 17.411ZM8.08045 8.90903C8.08122 7.98779 8.38466 7.09232 8.94409 6.36039C9.50351 5.62846 10.2879 5.10061 11.1767 4.85806C12.0654 4.61551 13.0092 4.67169 13.8629 5.01796C14.7166 5.36423 15.4329 5.9814 15.9015 6.77453C15.9334 6.83083 15.9797 6.87766 16.0357 6.91023C16.0916 6.94281 16.1552 6.95998 16.2199 6.95998C16.2846 6.95998 16.3482 6.94281 16.4041 6.91023C16.46 6.87766 16.5063 6.83083 16.5383 6.77453C17.0072 5.98146 17.7236 5.36429 18.5773 5.01786C19.4311 4.67143 20.3749 4.61489 21.2639 4.85693C22.1529 5.09897 22.9378 5.62621 23.4981 6.35763C24.0583 7.08905 24.363 7.9842 24.3651 8.90554C24.3651 12.1787 21.0152 15.4299 18.5554 17.375C18.2414 17.1665 17.8726 17.0557 17.4957 17.0566C14.0947 17.1217 13.5195 16.7708 12.8479 16.3862C10.4462 14.6398 8.1246 11.6303 8.08045 8.90903ZM2.73084 16.0701H5.10354V21.9798H2.73084V16.0701ZM25.0681 19.2562C17.5062 25.2495 7.53666 22.5968 5.84021 22.0902V16.0701C10.8982 16.091 11.7324 16.586 12.4796 17.0252C13.2267 17.4644 13.8972 17.8607 17.5271 17.7944C17.6802 17.7935 17.8316 17.8279 17.9693 17.8948C18.1071 17.9618 18.2276 18.0595 18.3215 18.1805C18.4154 18.3015 18.4802 18.4425 18.5109 18.5925C18.5416 18.7426 18.5373 18.8977 18.4985 19.0459C18.5066 19.1621 18.4415 19.4979 17.8013 19.7605C17.0902 20.0184 15.5936 20.2578 12.2321 19.8267C12.1357 19.8166 12.0392 19.8441 11.9626 19.9034C11.886 19.9627 11.8352 20.0493 11.8208 20.1451C11.8142 20.1934 11.8173 20.2425 11.8297 20.2896C11.8422 20.3367 11.8638 20.3809 11.8934 20.4197C11.923 20.4584 11.9599 20.4909 12.0021 20.5154C12.0442 20.5399 12.0908 20.5558 12.1391 20.5622C14.087 20.9409 16.0926 20.9073 18.0267 20.4634C20.0252 20.057 21.9733 19.4336 23.8365 18.6043C24.594 18.2848 25.3086 17.978 25.4725 18.1093C26.0035 18.5102 25.3284 19.0586 25.0681 19.2562Z" stroke="white" stroke-width="0.2" mask="url(#path-1-outside-1_38_86)"/>
<path d="M3.91719 16.8614C3.80348 16.8614 3.69442 16.9066 3.61401 16.987C3.53361 17.0674 3.48843 17.1765 3.48843 17.2902C3.48843 17.4039 3.53361 17.5129 3.61401 17.5934C3.69442 17.6738 3.80348 17.7189 3.91719 17.7189C4.03091 17.7189 4.13996 17.6738 4.22037 17.5934C4.30078 17.5129 4.34595 17.4039 4.34595 17.2902C4.34595 17.1765 4.30078 17.0674 4.22037 16.987C4.13996 16.9066 4.03091 16.8614 3.91719 16.8614Z" stroke="white" stroke-width="0.2" mask="url(#path-1-outside-1_38_86)"/>
<path d="M13.5393 13.2814H14.8639V14.5991C14.8633 14.8472 14.9605 15.0855 15.1345 15.2624C15.3086 15.4393 15.5453 15.5404 15.7935 15.5437H16.6393C16.8874 15.5401 17.1239 15.4389 17.2979 15.2621C17.4719 15.0853 17.5692 14.8471 17.5689 14.5991V13.2814H18.8924C19.1399 13.2817 19.3774 13.1842 19.5533 13.0101C19.7292 12.8359 19.8291 12.5993 19.8312 12.3518V11.5013C19.8309 11.2517 19.7321 11.0124 19.5563 10.8353C19.3805 10.6582 19.1419 10.5576 18.8924 10.5555H17.577V9.23899C17.577 8.99246 17.4791 8.75602 17.3048 8.58169C17.1305 8.40737 16.894 8.30943 16.6475 8.30943H15.8016C15.555 8.30943 15.3186 8.40737 15.1443 8.58169C14.97 8.75602 14.872 8.99246 14.872 9.23899V10.5555H13.5393C13.2897 10.5576 13.0511 10.6582 12.8753 10.8353C12.6995 11.0124 12.6007 11.2517 12.6004 11.5013V12.3518C12.6026 12.5993 12.7025 12.8359 12.8783 13.0101C13.0542 13.1842 13.2918 13.2817 13.5393 13.2814ZM13.3476 11.5013C13.3472 11.45 13.3672 11.4007 13.4032 11.3642C13.4391 11.3276 13.488 11.3067 13.5393 11.3061H15.2357C15.3347 11.3061 15.4297 11.2668 15.4999 11.1969C15.57 11.127 15.6096 11.0321 15.6099 10.9331V9.23899C15.5889 8.91364 16.2396 9.07864 16.6475 9.0403C16.6735 9.0403 16.6993 9.04544 16.7233 9.05544C16.7474 9.06544 16.7692 9.0801 16.7876 9.09856C16.8059 9.11703 16.8205 9.13894 16.8303 9.16304C16.8402 9.18714 16.8452 9.21295 16.845 9.23899V10.9296C16.8439 10.9785 16.8526 11.0271 16.8705 11.0725C16.8883 11.118 16.9151 11.1595 16.9492 11.1945C16.9832 11.2296 17.0239 11.2575 17.0689 11.2766C17.1138 11.2958 17.1622 11.3058 17.211 11.3061H18.9028C19.2282 11.2887 19.0632 11.9603 19.1004 12.3518C19.0982 12.4025 19.0764 12.4503 19.0395 12.4851C19.0026 12.5198 18.9535 12.5387 18.9028 12.5378H17.211C17.113 12.5399 17.0197 12.5802 16.9509 12.65C16.8821 12.7199 16.8433 12.8139 16.8427 12.9119V14.5991C16.8624 14.9244 16.1897 14.7594 15.7969 14.7966C15.7712 14.7968 15.7457 14.7917 15.722 14.7818C15.6983 14.7718 15.6768 14.7572 15.6589 14.7387C15.641 14.7203 15.627 14.6984 15.6178 14.6744C15.6085 14.6504 15.6043 14.6248 15.6052 14.5991V12.9073C15.6034 12.8086 15.5634 12.7145 15.4937 12.6447C15.4239 12.5749 15.3297 12.5349 15.2311 12.5331H13.5393C13.2232 12.5517 13.3836 11.9103 13.3476 11.5013Z" stroke="white" stroke-width="0.2" mask="url(#path-1-outside-1_38_86)"/>
</svg>
